<ttFont>
    <TTGlyph name="A" xMin="5" yMin="0" xMax="648" yMax="730">
      <contour>
        <pt x="648" y="50" on="1"/>
        <pt x="648" y="0" on="1"/>
        <pt x="470" y="0" on="1"/>
        <pt x="470" y="50" on="1"/>
        <pt x="529" y="50" on="1"/>
        <pt x="468" y="236" on="1"/>
        <pt x="184" y="236" on="1"/>
        <pt x="123" y="50" on="1"/>
        <pt x="183" y="50" on="1"/>
        <pt x="183" y="0" on="1"/>
        <pt x="5" y="0" on="1"/>
        <pt x="5" y="50" on="1"/>
        <pt x="51" y="50" on="1"/>
        <pt x="278" y="730" on="1"/>
        <pt x="375" y="730" on="1"/>
        <pt x="601" y="50" on="1"/>
      </contour>
      <contour>
        <pt x="326" y="667" on="1"/>
        <pt x="204" y="295" on="1"/>
        <pt x="449" y="295" on="1"/>
      </contour>
    </TTGlyph>
    <TTGlyph name="AE" xMin="5" yMin="0" xMax="883" yMax="730">
      <contour>
        <pt x="5" y="0" on="1"/>
        <pt x="5" y="50" on="1"/>
        <pt x="54" y="50" on="1"/>
        <pt x="318" y="730" on="1"/>
        <pt x="863" y="730" on="1"/>
        <pt x="863" y="572" on="1"/>
        <pt x="807" y="572" on="1"/>
        <pt x="807" y="671" on="1"/>
        <pt x="525" y="671" on="1"/>
        <pt x="525" y="401" on="1"/>
        <pt x="813" y="401" on="1"/>
        <pt x="813" y="341" on="1"/>
        <pt x="525" y="341" on="1"/>
        <pt x="525" y="59" on="1"/>
        <pt x="827" y="59" on="1"/>
        <pt x="827" y="158" on="1"/>
        <pt x="883" y="158" on="1"/>
        <pt x="883" y="0" on="1"/>
        <pt x="393" y="0" on="1"/>
        <pt x="393" y="50" on="1"/>
        <pt x="453" y="50" on="1"/>
        <pt x="453" y="341" on="1"/>
        <pt x="237" y="341" on="1"/>
        <pt x="126" y="50" on="1"/>
        <pt x="183" y="50" on="1"/>
        <pt x="183" y="0" on="1"/>
      </contour>
      <contour>
        <pt x="453" y="671" on="1"/>
        <pt x="364" y="671" on="1"/>
        <pt x="260" y="401" on="1"/>
        <pt x="453" y="401" on="1"/>
      </contour>
    </TTGlyph>
    <TTGlyph name="Aacute" xMin="5" yMin="0" xMax="648" yMax="985">
      <contour>
        <pt x="648" y="50" on="1"/>
        <pt x="648" y="0" on="1"/>
        <pt x="470" y="0" on="1"/>
        <pt x="470" y="50" on="1"/>
        <pt x="529" y="50" on="1"/>
        <pt x="468" y="236" on="1"/>
        <pt x="184" y="236" on="1"/>
        <pt x="123" y="50" on="1"/>
        <pt x="183" y="50" on="1"/>
        <pt x="183" y="0" on="1"/>
        <pt x="5" y="0" on="1"/>
        <pt x="5" y="50" on="1"/>
        <pt x="51" y="50" on="1"/>
        <pt x="278" y="730" on="1"/>
        <pt x="375" y="730" on="1"/>
        <pt x="601" y="50" on="1"/>
      </contour>
      <contour>
        <pt x="326" y="667" on="1"/>
        <pt x="204" y="295" on="1"/>
        <pt x="449" y="295" on="1"/>
      </contour>
      <contour>
        <pt x="261" y="782" on="1"/>
        <pt x="219" y="824" on="1"/>
        <pt x="380" y="985" on="1"/>
        <pt x="433" y="932" on="1"/>
      </contour>
    </TTGlyph>
    <TTGlyph name="Acircumflex" xMin="5" yMin="0" xMax="648" yMax="979">
      <contour>
        <pt x="648" y="50" on="1"/>
        <pt x="648" y="0" on="1"/>
        <pt x="470" y="0" on="1"/>
        <pt x="470" y="50" on="1"/>
        <pt x="529" y="50" on="1"/>
        <pt x="468" y="236" on="1"/>
        <pt x="184" y="236" on="1"/>
        <pt x="123" y="50" on="1"/>
        <pt x="183" y="50" on="1"/>
        <pt x="183" y="0" on="1"/>
        <pt x="5" y="0" on="1"/>
        <pt x="5" y="50" on="1"/>
        <pt x="51" y="50" on="1"/>
        <pt x="278" y="730" on="1"/>
        <pt x="375" y="730" on="1"/>
        <pt x="601" y="50" on="1"/>
      </contour>
      <contour>
        <pt x="326" y="667" on="1"/>
        <pt x="204" y="295" on="1"/>
        <pt x="449" y="295" on="1"/>
      </contour>
      <contour>
        <pt x="218" y="782" on="1"/>
        <pt x="176" y="824" on="1"/>
        <pt x="312" y="979" on="1"/>
        <pt x="341" y="979" on="1"/>
        <pt x="477" y="824" on="1"/>
        <pt x="435" y="782" on="1"/>
        <pt x="326" y="892" on="1"/>
      </contour>
    </TTGlyph>
    <TTGlyph name="Adieresis" xMin="5" yMin="0" xMax="648" yMax="937">
      <contour>
        <pt x="648" y="50" on="1"/>
        <pt x="648" y="0" on="1"/>
        <pt x="470" y="0" on="1"/>
        <pt x="470" y="50" on="1"/>
        <pt x="529" y="50" on="1"/>
        <pt x="468" y="236" on="1"/>
        <pt x="184" y="236" on="1"/>
        <pt x="123" y="50" on="1"/>
        <pt x="183" y="50" on="1"/>
        <pt x="183" y="0" on="1"/>
        <pt x="5" y="0" on="1"/>
        <pt x="5" y="50" on="1"/>
        <pt x="51" y="50" on="1"/>
        <pt x="278" y="730" on="1"/>
        <pt x="375" y="730" on="1"/>
        <pt x="601" y="50" on="1"/>
      </contour>
      <contour>
        <pt x="326" y="667" on="1"/>
        <pt x="204" y="295" on="1"/>
        <pt x="449" y="295" on="1"/>
      </contour>
      <contour>
        <pt x="261" y="848" on="0"/>
        <pt x="240" y="830" on="0"/>
        <pt x="201" y="830" on="0"/>
        <pt x="181" y="848" on="0"/>
        <pt x="177" y="867" on="0"/>
        <pt x="177" y="900" on="0"/>
        <pt x="181" y="919" on="0"/>
        <pt x="201" y="937" on="0"/>
        <pt x="249" y="937" on="0"/>
        <pt x="265" y="909" on="0"/>
        <pt x="265" y="867" on="0"/>
      </contour>
      <contour>
        <pt x="471" y="848" on="0"/>
        <pt x="450" y="830" on="0"/>
        <pt x="411" y="830" on="0"/>
        <pt x="391" y="848" on="0"/>
        <pt x="387" y="867" on="0"/>
        <pt x="387" y="900" on="0"/>
        <pt x="391" y="919" on="0"/>
        <pt x="411" y="937" on="0"/>
        <pt x="459" y="937" on="0"/>
        <pt x="475" y="909" on="0"/>
        <pt x="475" y="867" on="0"/>
      </contour>
    </TTGlyph>
    <TTGlyph name="Agrave" xMin="5" yMin="0" xMax="648" yMax="985">
      <contour>
        <pt x="648" y="50" on="1"/>
        <pt x="648" y="0" on="1"/>
        <pt x="470" y="0" on="1"/>
        <pt x="470" y="50" on="1"/>
        <pt x="529" y="50" on="1"/>
        <pt x="468" y="236" on="1"/>
        <pt x="184" y="236" on="1"/>
        <pt x="123" y="50" on="1"/>
        <pt x="183" y="50" on="1"/>
        <pt x="183" y="0" on="1"/>
        <pt x="5" y="0" on="1"/>
        <pt x="5" y="50" on="1"/>
        <pt x="51" y="50" on="1"/>
        <pt x="278" y="730" on="1"/>
        <pt x="375" y="730" on="1"/>
        <pt x="601" y="50" on="1"/>
      </contour>
      <contour>
        <pt x="326" y="667" on="1"/>
        <pt x="204" y="295" on="1"/>
        <pt x="449" y="295" on="1"/>
      </contour>
      <contour>
        <pt x="433" y="824" on="1"/>
        <pt x="391" y="782" on="1"/>
        <pt x="219" y="932" on="1"/>
        <pt x="272" y="985" on="1"/>
      </contour>
    </TTGlyph>
    <TTGlyph name="Aring" xMin="5" yMin="0" xMax="648" yMax="981">
      <contour>
        <pt x="648" y="50" on="1"/>
        <pt x="648" y="0" on="1"/>
        <pt x="470" y="0" on="1"/>
        <pt x="470" y="50" on="1"/>
        <pt x="529" y="50" on="1"/>
        <pt x="468" y="236" on="1"/>
        <pt x="184" y="236" on="1"/>
        <pt x="123" y="50" on="1"/>
        <pt x="183" y="50" on="1"/>
        <pt x="183" y="0" on="1"/>
        <pt x="5" y="0" on="1"/>
        <pt x="5" y="50" on="1"/>
        <pt x="51" y="50" on="1"/>
        <pt x="278" y="730" on="1"/>
        <pt x="375" y="730" on="1"/>
        <pt x="601" y="50" on="1"/>
      </contour>
      <contour>
        <pt x="326" y="667" on="1"/>
        <pt x="204" y="295" on="1"/>
        <pt x="449" y="295" on="1"/>
      </contour>
      <contour>
        <pt x="357" y="786" on="0"/>
        <pt x="293" y="786" on="0"/>
        <pt x="253" y="802" on="0"/>
        <pt x="236" y="834" on="0"/>
        <pt x="231" y="862" on="0"/>
        <pt x="231" y="904" on="0"/>
        <pt x="236" y="932" on="0"/>
        <pt x="253" y="965" on="0"/>
        <pt x="293" y="981" on="0"/>
        <pt x="357" y="981" on="0"/>
        <pt x="399" y="965" on="0"/>
        <pt x="416" y="932" on="0"/>
        <pt x="421" y="904" on="0"/>
        <pt x="421" y="862" on="0"/>
        <pt x="416" y="834" on="0"/>
        <pt x="399" y="802" on="0"/>
      </contour>
      <contour>
        <pt x="287" y="847" on="0"/>
        <pt x="306" y="829" on="0"/>
        <pt x="345" y="829" on="0"/>
        <pt x="365" y="847" on="0"/>
        <pt x="369" y="867" on="0"/>
        <pt x="369" y="900" on="0"/>
        <pt x="365" y="919" on="0"/>
        <pt x="345" y="938" on="0"/>
        <pt x="298" y="938" on="0"/>
        <pt x="283" y="909" on="0"/>
        <pt x="283" y="867" on="0"/>
      </contour>
    </TTGlyph>
    <TTGlyph name="Atilde" xMin="5" yMin="0" xMax="648" yMax="944">
      <contour>
        <pt x="648" y="50" on="1"/>
        <pt x="648" y="0" on="1"/>
        <pt x="470" y="0" on="1"/>
        <pt x="470" y="50" on="1"/>
        <pt x="529" y="50" on="1"/>
        <pt x="468" y="236" on="1"/>
        <pt x="184" y="236" on="1"/>
        <pt x="123" y="50" on="1"/>
        <pt x="183" y="50" on="1"/>
        <pt x="183" y="0" on="1"/>
        <pt x="5" y="0" on="1"/>
        <pt x="5" y="50" on="1"/>
        <pt x="51" y="50" on="1"/>
        <pt x="278" y="730" on="1"/>
        <pt x="375" y="730" on="1"/>
        <pt x="601" y="50" on="1"/>
      </contour>
      <contour>
        <pt x="326" y="667" on="1"/>
        <pt x="204" y="295" on="1"/>
        <pt x="449" y="295" on="1"/>
      </contour>
      <contour>
        <pt x="399" y="835" on="1"/>
        <pt x="374" y="835" on="0"/>
        <pt x="276" y="871" on="0"/>
        <pt x="244" y="871" on="0"/>
        <pt x="224" y="851" on="0"/>
        <pt x="216" y="827" on="1"/>
        <pt x="165" y="843" on="1"/>
        <pt x="192" y="936" on="0"/>
        <pt x="253" y="936" on="1"/>
        <pt x="278" y="936" on="0"/>
        <pt x="378" y="900" on="0"/>
        <pt x="409" y="900" on="0"/>
        <pt x="429" y="920" on="0"/>
        <pt x="437" y="944" on="1"/>
        <pt x="487" y="928" on="1"/>
        <pt x="460" y="835" on="0"/>
      </contour>
    </TTGlyph>
    <TTGlyph name="B" xMin="70" yMin="0" xMax="579" yMax="730">
      <contour>
        <pt x="360" y="0" on="1"/>
        <pt x="70" y="0" on="1"/>
        <pt x="70" y="50" on="1"/>
        <pt x="130" y="50" on="1"/>
        <pt x="130" y="680" on="1"/>
        <pt x="70" y="680" on="1"/>
        <pt x="70" y="730" on="1"/>
        <pt x="320" y="730" on="1"/>
        <pt x="475" y="730" on="0"/>
        <pt x="518" y="650" on="1"/>
        <pt x="539" y="610" on="0"/>
        <pt x="539" y="481" on="0"/>
        <pt x="499" y="399" on="0"/>
        <pt x="442" y="378" on="1"/>
        <pt x="523" y="363" on="0"/>
        <pt x="579" y="270" on="0"/>
        <pt x="579" y="195" on="1"/>
        <pt x="579" y="81" on="0"/>
        <pt x="520" y="39" on="1"/>
        <pt x="467" y="0" on="0"/>
      </contour>
      <contour>
        <pt x="202" y="59" on="1"/>
        <pt x="360" y="59" on="1"/>
        <pt x="448" y="59" on="0"/>
        <pt x="507" y="130" on="0"/>
        <pt x="507" y="270" on="0"/>
        <pt x="448" y="343" on="0"/>
        <pt x="360" y="343" on="1"/>
        <pt x="202" y="343" on="1"/>
      </contour>
      <contour>
        <pt x="202" y="404" on="1"/>
        <pt x="320" y="404" on="1"/>
        <pt x="408" y="404" on="0"/>
        <pt x="467" y="472" on="0"/>
        <pt x="467" y="604" on="0"/>
        <pt x="408" y="671" on="0"/>
        <pt x="320" y="671" on="1"/>
        <pt x="202" y="671" on="1"/>
      </contour>
    </TTGlyph>
    <TTGlyph name="C" xMin="60" yMin="-14" xMax="562" yMax="744">
      <contour>
        <pt x="508" y="730" on="1"/>
        <pt x="562" y="730" on="1"/>
        <pt x="562" y="514" on="1"/>
        <pt x="508" y="514" on="1"/>
        <pt x="502" y="597" on="0"/>
        <pt x="421" y="684" on="0"/>
        <pt x="326" y="684" on="1"/>
        <pt x="228" y="684" on="0"/>
        <pt x="182" y="630" on="1"/>
        <pt x="144" y="584" on="0"/>
        <pt x="136" y="474" on="1"/>
        <pt x="132" y="431" on="0"/>
        <pt x="132" y="295" on="0"/>
        <pt x="137" y="215" on="0"/>
        <pt x="159" y="123" on="0"/>
        <pt x="180" y="100" on="1"/>
        <pt x="229" y="46" on="0"/>
        <pt x="427" y="46" on="0"/>
        <pt x="500" y="134" on="0"/>
        <pt x="503" y="212" on="1"/>
        <pt x="562" y="209" on="1"/>
        <pt x="558" y="155" on="0"/>
        <pt x="536" y="80" on="0"/>
        <pt x="512" y="48" on="1"/>
        <pt x="464" y="-14" on="0"/>
        <pt x="336" y="-14" on="1"/>
        <pt x="210" y="-14" on="0"/>
        <pt x="153" y="32" on="1"/>
        <pt x="123" y="57" on="0"/>
        <pt x="85" y="116" on="0"/>
        <pt x="76" y="163" on="1"/>
        <pt x="60" y="240" on="0"/>
        <pt x="60" y="463" on="0"/>
        <pt x="79" y="589" on="0"/>
        <pt x="134" y="695" on="0"/>
        <pt x="242" y="744" on="0"/>
        <pt x="326" y="744" on="1"/>
        <pt x="457" y="744" on="0"/>
        <pt x="508" y="656" on="1"/>
      </contour>
    </TTGlyph>
    <TTGlyph name="Ccedilla" xMin="75" yMin="-241" xMax="577" yMax="744">
      <contour>
        <pt x="523" y="730" on="1"/>
        <pt x="577" y="730" on="1"/>
        <pt x="577" y="514" on="1"/>
        <pt x="523" y="514" on="1"/>
        <pt x="517" y="597" on="0"/>
        <pt x="436" y="684" on="0"/>
        <pt x="341" y="684" on="1"/>
        <pt x="243" y="684" on="0"/>
        <pt x="198" y="630" on="1"/>
        <pt x="159" y="584" on="0"/>
        <pt x="150" y="474" on="1"/>
        <pt x="147" y="431" on="0"/>
        <pt x="147" y="295" on="0"/>
        <pt x="152" y="215" on="0"/>
        <pt x="174" y="123" on="0"/>
        <pt x="195" y="100" on="1"/>
        <pt x="244" y="46" on="0"/>
        <pt x="442" y="46" on="0"/>
        <pt x="515" y="134" on="0"/>
        <pt x="518" y="212" on="1"/>
        <pt x="577" y="209" on="1"/>
        <pt x="573" y="155" on="0"/>
        <pt x="551" y="80" on="0"/>
        <pt x="527" y="48" on="1"/>
        <pt x="479" y="-14" on="0"/>
        <pt x="351" y="-14" on="1"/>
        <pt x="225" y="-14" on="0"/>
        <pt x="168" y="32" on="1"/>
        <pt x="138" y="57" on="0"/>
        <pt x="100" y="116" on="0"/>
        <pt x="90" y="163" on="1"/>
        <pt x="75" y="240" on="0"/>
        <pt x="75" y="463" on="0"/>
        <pt x="94" y="589" on="0"/>
        <pt x="149" y="695" on="0"/>
        <pt x="257" y="744" on="0"/>
        <pt x="341" y="744" on="1"/>
        <pt x="472" y="744" on="0"/>
        <pt x="523" y="656" on="1"/>
      </contour>
      <contour>
        <pt x="215" y="-146" on="1"/>
        <pt x="265" y="-146" on="1"/>
        <pt x="265" y="-168" on="0"/>
        <pt x="286" y="-191" on="0"/>
        <pt x="342" y="-191" on="0"/>
        <pt x="364" y="-168" on="0"/>
        <pt x="364" y="-145" on="1"/>
        <pt x="364" y="-105" on="0"/>
        <pt x="312" y="-96" on="1"/>
        <pt x="259" y="-86" on="1"/>
        <pt x="259" y="-50" on="1"/>
        <pt x="318" y="-50" on="1"/>
        <pt x="363" y="-50" on="0"/>
        <pt x="414" y="-92" on="0"/>
        <pt x="414" y="-193" on="0"/>
        <pt x="371" y="-241" on="0"/>
        <pt x="258" y="-241" on="0"/>
        <pt x="215" y="-193" on="0"/>
      </contour>
    </TTGlyph>
    <TTGlyph name="D" xMin="70" yMin="0" xMax="628" yMax="730">
      <contour>
        <pt x="70" y="730" on="1"/>
        <pt x="345" y="730" on="1"/>
        <pt x="474" y="730" on="0"/>
        <pt x="532" y="685" on="1"/>
        <pt x="563" y="661" on="0"/>
        <pt x="601" y="604" on="0"/>
        <pt x="611" y="560" on="1"/>
        <pt x="628" y="484" on="0"/>
        <pt x="628" y="289" on="0"/>
        <pt x="618" y="188" on="0"/>
        <pt x="585" y="90" on="0"/>
        <pt x="554" y="62" on="1"/>
        <pt x="487" y="0" on="0"/>
        <pt x="345" y="0" on="1"/>
        <pt x="70" y="0" on="1"/>
        <pt x="70" y="50" on="1"/>
        <pt x="130" y="50" on="1"/>
        <pt x="130" y="680" on="1"/>
        <pt x="70" y="680" on="1"/>
      </contour>
      <contour>
        <pt x="345" y="671" on="1"/>
        <pt x="202" y="671" on="1"/>
        <pt x="202" y="59" on="1"/>
        <pt x="345" y="59" on="1"/>
        <pt x="414" y="59" on="0"/>
        <pt x="501" y="99" on="0"/>
        <pt x="543" y="187" on="0"/>
        <pt x="556" y="285" on="0"/>
        <pt x="556" y="445" on="0"/>
        <pt x="543" y="543" on="0"/>
        <pt x="501" y="631" on="0"/>
        <pt x="414" y="671" on="0"/>
      </contour>
    </TTGlyph>
    <TTGlyph name="Delta" xMin="0" yMin="0" xMax="572" yMax="670">
      <contour>
        <pt x="248" y="670" on="1"/>
        <pt x="324" y="670" on="1"/>
        <pt x="572" y="0" on="1"/>
        <pt x="0" y="0" on="1"/>
      </contour>
      <contour>
        <pt x="286" y="590" on="1"/>
        <pt x="89" y="50" on="1"/>
        <pt x="483" y="50" on="1"/>
      </contour>
    </TTGlyph>
    <TTGlyph name="E" xMin="70" yMin="0" xMax="560" yMax="730">
      <contour>
        <pt x="70" y="0" on="1"/>
        <pt x="70" y="50" on="1"/>
        <pt x="130" y="50" on="1"/>
        <pt x="130" y="680" on="1"/>
        <pt x="70" y="680" on="1"/>
        <pt x="70" y="730" on="1"/>
        <pt x="540" y="730" on="1"/>
        <pt x="540" y="572" on="1"/>
        <pt x="484" y="572" on="1"/>
        <pt x="484" y="671" on="1"/>
        <pt x="202" y="671" on="1"/>
        <pt x="202" y="401" on="1"/>
        <pt x="490" y="401" on="1"/>
        <pt x="490" y="341" on="1"/>
        <pt x="202" y="341" on="1"/>
        <pt x="202" y="59" on="1"/>
        <pt x="504" y="59" on="1"/>
        <pt x="504" y="158" on="1"/>
        <pt x="560" y="158" on="1"/>
        <pt x="560" y="0" on="1"/>
      </contour>
    </TTGlyph>
    <TTGlyph name="Eacute" xMin="70" yMin="0" xMax="560" yMax="985">
      <contour>
        <pt x="70" y="0" on="1"/>
        <pt x="70" y="50" on="1"/>
        <pt x="130" y="50" on="1"/>
        <pt x="130" y="680" on="1"/>
        <pt x="70" y="680" on="1"/>
        <pt x="70" y="730" on="1"/>
        <pt x="540" y="730" on="1"/>
        <pt x="540" y="572" on="1"/>
        <pt x="484" y="572" on="1"/>
        <pt x="484" y="671" on="1"/>
        <pt x="202" y="671" on="1"/>
        <pt x="202" y="401" on="1"/>
        <pt x="490" y="401" on="1"/>
        <pt x="490" y="341" on="1"/>
        <pt x="202" y="341" on="1"/>
        <pt x="202" y="59" on="1"/>
        <pt x="504" y="59" on="1"/>
        <pt x="504" y="158" on="1"/>
        <pt x="560" y="158" on="1"/>
        <pt x="560" y="0" on="1"/>
      </contour>
      <contour>
        <pt x="237" y="782" on="1"/>
        <pt x="195" y="824" on="1"/>
        <pt x="356" y="985" on="1"/>
        <pt x="409" y="932" on="1"/>
      </contour>
    </TTGlyph>
    <TTGlyph name="Ecircumflex" xMin="70" yMin="0" xMax="560" yMax="979">
      <contour>
        <pt x="70" y="0" on="1"/>
        <pt x="70" y="50" on="1"/>
        <pt x="130" y="50" on="1"/>
        <pt x="130" y="680" on="1"/>
        <pt x="70" y="680" on="1"/>
        <pt x="70" y="730" on="1"/>
        <pt x="540" y="730" on="1"/>
        <pt x="540" y="572" on="1"/>
        <pt x="484" y="572" on="1"/>
        <pt x="484" y="671" on="1"/>
        <pt x="202" y="671" on="1"/>
        <pt x="202" y="401" on="1"/>
        <pt x="490" y="401" on="1"/>
        <pt x="490" y="341" on="1"/>
        <pt x="202" y="341" on="1"/>
        <pt x="202" y="59" on="1"/>
        <pt x="504" y="59" on="1"/>
        <pt x="504" y="158" on="1"/>
        <pt x="560" y="158" on="1"/>
        <pt x="560" y="0" on="1"/>
      </contour>
      <contour>
        <pt x="194" y="782" on="1"/>
        <pt x="152" y="824" on="1"/>
        <pt x="288" y="979" on="1"/>
        <pt x="317" y="979" on="1"/>
        <pt x="453" y="824" on="1"/>
        <pt x="411" y="782" on="1"/>
        <pt x="302" y="892" on="1"/>
      </contour>
    </TTGlyph>
    <TTGlyph name="Edieresis" xMin="70" yMin="0" xMax="560" yMax="937">
      <contour>
        <pt x="70" y="0" on="1"/>
        <pt x="70" y="50" on="1"/>
        <pt x="130" y="50" on="1"/>
        <pt x="130" y="680" on="1"/>
        <pt x="70" y="680" on="1"/>
        <pt x="70" y="730" on="1"/>
        <pt x="540" y="730" on="1"/>
        <pt x="540" y="572" on="1"/>
        <pt x="484" y="572" on="1"/>
        <pt x="484" y="671" on="1"/>
        <pt x="202" y="671" on="1"/>
        <pt x="202" y="401" on="1"/>
        <pt x="490" y="401" on="1"/>
        <pt x="490" y="341" on="1"/>
        <pt x="202" y="341" on="1"/>
        <pt x="202" y="59" on="1"/>
        <pt x="504" y="59" on="1"/>
        <pt x="504" y="158" on="1"/>
        <pt x="560" y="158" on="1"/>
        <pt x="560" y="0" on="1"/>
      </contour>
      <contour>
        <pt x="237" y="848" on="0"/>
        <pt x="216" y="830" on="0"/>
        <pt x="177" y="830" on="0"/>
        <pt x="157" y="848" on="0"/>
        <pt x="153" y="867" on="0"/>
        <pt x="153" y="900" on="0"/>
        <pt x="157" y="919" on="0"/>
        <pt x="177" y="937" on="0"/>
        <pt x="225" y="937" on="0"/>
        <pt x="241" y="909" on="0"/>
        <pt x="241" y="867" on="0"/>
      </contour>
      <contour>
        <pt x="447" y="848" on="0"/>
        <pt x="426" y="830" on="0"/>
        <pt x="387" y="830" on="0"/>
        <pt x="367" y="848" on="0"/>
        <pt x="363" y="867" on="0"/>
        <pt x="363" y="900" on="0"/>
        <pt x="367" y="919" on="0"/>
        <pt x="387" y="937" on="0"/>
        <pt x="435" y="937" on="0"/>
        <pt x="451" y="909" on="0"/>
        <pt x="451" y="867" on="0"/>
      </contour>
    </TTGlyph>
    <TTGlyph name="Egrave" xMin="70" yMin="0" xMax="560" yMax="985">
      <contour>
        <pt x="70" y="0" on="1"/>
        <pt x="70" y="50" on="1"/>
        <pt x="130" y="50" on="1"/>
        <pt x="130" y="680" on="1"/>
        <pt x="70" y="680" on="1"/>
        <pt x="70" y="730" on="1"/>
        <pt x="540" y="730" on="1"/>
        <pt x="540" y="572" on="1"/>
        <pt x="484" y="572" on="1"/>
        <pt x="484" y="671" on="1"/>
        <pt x="202" y="671" on="1"/>
        <pt x="202" y="401" on="1"/>
        <pt x="490" y="401" on="1"/>
        <pt x="490" y="341" on="1"/>
        <pt x="202" y="341" on="1"/>
        <pt x="202" y="59" on="1"/>
        <pt x="504" y="59" on="1"/>
        <pt x="504" y="158" on="1"/>
        <pt x="560" y="158" on="1"/>
        <pt x="560" y="0" on="1"/>
      </contour>
      <contour>
        <pt x="409" y="824" on="1"/>
        <pt x="367" y="782" on="1"/>
        <pt x="195" y="932" on="1"/>
        <pt x="248" y="985" on="1"/>
      </contour>
    </TTGlyph>
    <TTGlyph name="Eth" xMin="70" yMin="0" xMax="628" yMax="730">
      <contour>
        <pt x="70" y="674" on="1"/>
        <pt x="70" y="730" on="1"/>
        <pt x="345" y="730" on="1"/>
        <pt x="474" y="730" on="0"/>
        <pt x="532" y="685" on="1"/>
        <pt x="563" y="661" on="0"/>
        <pt x="601" y="604" on="0"/>
        <pt x="611" y="560" on="1"/>
        <pt x="628" y="484" on="0"/>
        <pt x="628" y="289" on="0"/>
        <pt x="618" y="188" on="0"/>
        <pt x="585" y="90" on="0"/>
        <pt x="554" y="62" on="1"/>
        <pt x="487" y="0" on="0"/>
        <pt x="345" y="0" on="1"/>
        <pt x="70" y="0" on="1"/>
        <pt x="70" y="56" on="1"/>
        <pt x="130" y="56" on="1"/>
        <pt x="130" y="335" on="1"/>
        <pt x="70" y="335" on="1"/>
        <pt x="70" y="395" on="1"/>
        <pt x="130" y="395" on="1"/>
        <pt x="130" y="674" on="1"/>
      </contour>
      <contour>
        <pt x="345" y="668" on="1"/>
        <pt x="202" y="668" on="1"/>
        <pt x="202" y="395" on="1"/>
        <pt x="422" y="395" on="1"/>
        <pt x="422" y="335" on="1"/>
        <pt x="202" y="335" on="1"/>
        <pt x="202" y="62" on="1"/>
        <pt x="345" y="62" on="1"/>
        <pt x="414" y="62" on="0"/>
        <pt x="501" y="101" on="0"/>
        <pt x="543" y="188" on="0"/>
        <pt x="556" y="285" on="0"/>
        <pt x="556" y="445" on="0"/>
        <pt x="543" y="542" on="0"/>
        <pt x="501" y="629" on="0"/>
        <pt x="414" y="668" on="0"/>
      </contour>
    </TTGlyph>
    <TTGlyph name="Euro" xMin="47" yMin="-14" xMax="543" yMax="684">
      <contour>
        <pt x="47" y="365" on="1"/>
        <pt x="47" y="425" on="1"/>
        <pt x="112" y="425" on="1"/>
        <pt x="116" y="489" on="0"/>
        <pt x="139" y="578" on="0"/>
        <pt x="166" y="614" on="1"/>
        <pt x="218" y="684" on="0"/>
        <pt x="353" y="684" on="1"/>
        <pt x="452" y="684" on="0"/>
        <pt x="541" y="599" on="0"/>
        <pt x="543" y="517" on="1"/>
        <pt x="481" y="517" on="1"/>
        <pt x="481" y="624" on="0"/>
        <pt x="353" y="624" on="1"/>
        <pt x="262" y="624" on="0"/>
        <pt x="188" y="528" on="0"/>
        <pt x="182" y="425" on="1"/>
        <pt x="375" y="425" on="1"/>
        <pt x="375" y="365" on="1"/>
        <pt x="180" y="365" on="1"/>
        <pt x="180" y="305" on="1"/>
        <pt x="375" y="305" on="1"/>
        <pt x="375" y="245" on="1"/>
        <pt x="182" y="245" on="1"/>
        <pt x="188" y="141" on="0"/>
        <pt x="262" y="45" on="0"/>
        <pt x="353" y="45" on="1"/>
        <pt x="482" y="45" on="0"/>
        <pt x="482" y="155" on="1"/>
        <pt x="543" y="155" on="1"/>
        <pt x="541" y="72" on="0"/>
        <pt x="453" y="-14" on="0"/>
        <pt x="353" y="-14" on="1"/>
        <pt x="221" y="-14" on="0"/>
        <pt x="119" y="114" on="0"/>
        <pt x="112" y="245" on="1"/>
        <pt x="47" y="245" on="1"/>
        <pt x="47" y="305" on="1"/>
        <pt x="110" y="305" on="1"/>
        <pt x="110" y="365" on="1"/>
      </contour>
    </TTGlyph>
    <TTGlyph name="F" xMin="70" yMin="0" xMax="520" yMax="730">
      <contour>
        <pt x="70" y="680" on="1"/>
        <pt x="70" y="730" on="1"/>
        <pt x="520" y="730" on="1"/>
        <pt x="520" y="572" on="1"/>
        <pt x="464" y="572" on="1"/>
        <pt x="464" y="671" on="1"/>
        <pt x="202" y="671" on="1"/>
        <pt x="202" y="401" on="1"/>
        <pt x="470" y="401" on="1"/>
        <pt x="470" y="341" on="1"/>
        <pt x="202" y="341" on="1"/>
        <pt x="202" y="51" on="1"/>
        <pt x="282" y="51" on="1"/>
        <pt x="282" y="0" on="1"/>
        <pt x="70" y="0" on="1"/>
        <pt x="70" y="51" on="1"/>
        <pt x="130" y="51" on="1"/>
        <pt x="130" y="680" on="1"/>
      </contour>
    </TTGlyph>
    <TTGlyph name="G" xMin="60" yMin="-14" xMax="572" yMax="744">
      <contour>
        <pt x="394" y="315" on="1"/>
        <pt x="394" y="365" on="1"/>
        <pt x="572" y="365" on="1"/>
        <pt x="572" y="0" on="1"/>
        <pt x="531" y="0" on="1"/>
        <pt x="520" y="84" on="1"/>
        <pt x="465" y="-14" on="0"/>
        <pt x="327" y="-14" on="1"/>
        <pt x="230" y="-14" on="0"/>
        <pt x="164" y="20" on="1"/>
        <pt x="115" y="45" on="0"/>
        <pt x="86" y="116" on="1"/>
        <pt x="60" y="182" on="0"/>
        <pt x="60" y="365" on="1"/>
        <pt x="60" y="443" on="0"/>
        <pt x="71" y="550" on="0"/>
        <pt x="105" y="650" on="0"/>
        <pt x="135" y="680" on="1"/>
        <pt x="201" y="744" on="0"/>
        <pt x="463" y="744" on="0"/>
        <pt x="513" y="653" on="1"/>
        <pt x="513" y="730" on="1"/>
        <pt x="567" y="730" on="1"/>
        <pt x="567" y="514" on="1"/>
        <pt x="513" y="514" on="1"/>
        <pt x="507" y="593" on="0"/>
        <pt x="430" y="684" on="0"/>
        <pt x="337" y="684" on="1"/>
        <pt x="234" y="684" on="0"/>
        <pt x="185" y="630" on="1"/>
        <pt x="144" y="584" on="0"/>
        <pt x="136" y="474" on="1"/>
        <pt x="132" y="431" on="0"/>
        <pt x="132" y="304" on="0"/>
        <pt x="135" y="233" on="0"/>
        <pt x="147" y="150" on="0"/>
        <pt x="172" y="104" on="0"/>
        <pt x="194" y="84" on="1"/>
        <pt x="233" y="46" on="0"/>
        <pt x="327" y="46" on="1"/>
        <pt x="503" y="46" on="0"/>
        <pt x="508" y="212" on="1"/>
        <pt x="508" y="315" on="1"/>
      </contour>
    </TTGlyph>
    <TTGlyph name="H" xMin="70" yMin="0" xMax="682" yMax="730">
      <contour>
        <pt x="490" y="0" on="1"/>
        <pt x="490" y="50" on="1"/>
        <pt x="550" y="50" on="1"/>
        <pt x="550" y="335" on="1"/>
        <pt x="202" y="335" on="1"/>
        <pt x="202" y="50" on="1"/>
        <pt x="262" y="50" on="1"/>
        <pt x="262" y="0" on="1"/>
        <pt x="70" y="0" on="1"/>
        <pt x="70" y="50" on="1"/>
        <pt x="130" y="50" on="1"/>
        <pt x="130" y="680" on="1"/>
        <pt x="70" y="680" on="1"/>
        <pt x="70" y="730" on="1"/>
        <pt x="262" y="730" on="1"/>
        <pt x="262" y="680" on="1"/>
        <pt x="202" y="680" on="1"/>
        <pt x="202" y="395" on="1"/>
        <pt x="550" y="395" on="1"/>
        <pt x="550" y="680" on="1"/>
        <pt x="490" y="680" on="1"/>
        <pt x="490" y="730" on="1"/>
        <pt x="682" y="730" on="1"/>
        <pt x="682" y="680" on="1"/>
        <pt x="622" y="680" on="1"/>
        <pt x="622" y="50" on="1"/>
        <pt x="682" y="50" on="1"/>
        <pt x="682" y="0" on="1"/>
      </contour>
    </TTGlyph>
    <TTGlyph name="I" xMin="70" yMin="0" xMax="282" yMax="730">
      <contour>
        <pt x="70" y="680" on="1"/>
        <pt x="70" y="730" on="1"/>
        <pt x="282" y="730" on="1"/>
        <pt x="282" y="680" on="1"/>
        <pt x="212" y="680" on="1"/>
        <pt x="212" y="50" on="1"/>
        <pt x="282" y="50" on="1"/>
        <pt x="282" y="0" on="1"/>
        <pt x="70" y="0" on="1"/>
        <pt x="70" y="50" on="1"/>
        <pt x="140" y="50" on="1"/>
        <pt x="140" y="680" on="1"/>
      </contour>
    </TTGlyph>
    <TTGlyph name="Iacute" xMin="70" yMin="0" xMax="303" yMax="985">
      <contour>
        <pt x="70" y="680" on="1"/>
        <pt x="70" y="730" on="1"/>
        <pt x="282" y="730" on="1"/>
        <pt x="282" y="680" on="1"/>
        <pt x="212" y="680" on="1"/>
        <pt x="212" y="50" on="1"/>
        <pt x="282" y="50" on="1"/>
        <pt x="282" y="0" on="1"/>
        <pt x="70" y="0" on="1"/>
        <pt x="70" y="50" on="1"/>
        <pt x="140" y="50" on="1"/>
        <pt x="140" y="680" on="1"/>
      </contour>
      <contour>
        <pt x="131" y="782" on="1"/>
        <pt x="89" y="824" on="1"/>
        <pt x="250" y="985" on="1"/>
        <pt x="303" y="932" on="1"/>
      </contour>
    </TTGlyph>
    <TTGlyph name="Icircumflex" xMin="26" yMin="0" xMax="327" yMax="979">
      <contour>
        <pt x="70" y="680" on="1"/>
        <pt x="70" y="730" on="1"/>
        <pt x="282" y="730" on="1"/>
        <pt x="282" y="680" on="1"/>
        <pt x="212" y="680" on="1"/>
        <pt x="212" y="50" on="1"/>
        <pt x="282" y="50" on="1"/>
        <pt x="282" y="0" on="1"/>
        <pt x="70" y="0" on="1"/>
        <pt x="70" y="50" on="1"/>
        <pt x="140" y="50" on="1"/>
        <pt x="140" y="680" on="1"/>
      </contour>
      <contour>
        <pt x="68" y="782" on="1"/>
        <pt x="26" y="824" on="1"/>
        <pt x="162" y="979" on="1"/>
        <pt x="191" y="979" on="1"/>
        <pt x="327" y="824" on="1"/>
        <pt x="285" y="782" on="1"/>
        <pt x="176" y="892" on="1"/>
      </contour>
    </TTGlyph>
    <TTGlyph name="Idieresis" xMin="27" yMin="0" xMax="325" yMax="937">
      <contour>
        <pt x="70" y="680" on="1"/>
        <pt x="70" y="730" on="1"/>
        <pt x="282" y="730" on="1"/>
        <pt x="282" y="680" on="1"/>
        <pt x="212" y="680" on="1"/>
        <pt x="212" y="50" on="1"/>
        <pt x="282" y="50" on="1"/>
        <pt x="282" y="0" on="1"/>
        <pt x="70" y="0" on="1"/>
        <pt x="70" y="50" on="1"/>
        <pt x="140" y="50" on="1"/>
        <pt x="140" y="680" on="1"/>
      </contour>
      <contour>
        <pt x="321" y="848" on="0"/>
        <pt x="300" y="830" on="0"/>
        <pt x="261" y="830" on="0"/>
        <pt x="241" y="848" on="0"/>
        <pt x="237" y="867" on="0"/>
        <pt x="237" y="900" on="0"/>
        <pt x="241" y="919" on="0"/>
        <pt x="261" y="937" on="0"/>
        <pt x="309" y="937" on="0"/>
        <pt x="325" y="909" on="0"/>
        <pt x="325" y="867" on="0"/>
      </contour>
      <contour>
        <pt x="111" y="848" on="0"/>
        <pt x="90" y="830" on="0"/>
        <pt x="51" y="830" on="0"/>
        <pt x="31" y="848" on="0"/>
        <pt x="27" y="867" on="0"/>
        <pt x="27" y="900" on="0"/>
        <pt x="31" y="919" on="0"/>
        <pt x="51" y="937" on="0"/>
        <pt x="99" y="937" on="0"/>
        <pt x="115" y="909" on="0"/>
        <pt x="115" y="867" on="0"/>
      </contour>
    </TTGlyph>
    <TTGlyph name="Igrave" xMin="69" yMin="0" xMax="283" yMax="985">
      <contour>
        <pt x="70" y="680" on="1"/>
        <pt x="70" y="730" on="1"/>
        <pt x="282" y="730" on="1"/>
        <pt x="282" y="680" on="1"/>
        <pt x="212" y="680" on="1"/>
        <pt x="212" y="50" on="1"/>
        <pt x="282" y="50" on="1"/>
        <pt x="282" y="0" on="1"/>
        <pt x="70" y="0" on="1"/>
        <pt x="70" y="50" on="1"/>
        <pt x="140" y="50" on="1"/>
        <pt x="140" y="680" on="1"/>
      </contour>
      <contour>
        <pt x="283" y="824" on="1"/>
        <pt x="241" y="782" on="1"/>
        <pt x="69" y="932" on="1"/>
        <pt x="122" y="985" on="1"/>
      </contour>
    </TTGlyph>
    <TTGlyph name="J" xMin="20" yMin="-14" xMax="426" yMax="730">
      <contour>
        <pt x="214" y="680" on="1"/>
        <pt x="214" y="730" on="1"/>
        <pt x="426" y="730" on="1"/>
        <pt x="426" y="680" on="1"/>
        <pt x="366" y="680" on="1"/>
        <pt x="366" y="183" on="1"/>
        <pt x="366" y="61" on="0"/>
        <pt x="321" y="23" on="1"/>
        <pt x="277" y="-14" on="0"/>
        <pt x="188" y="-14" on="1"/>
        <pt x="107" y="-14" on="0"/>
        <pt x="72" y="15" on="1"/>
        <pt x="54" y="30" on="0"/>
        <pt x="32" y="61" on="0"/>
        <pt x="27" y="87" on="1"/>
        <pt x="20" y="123" on="0"/>
        <pt x="20" y="183" on="1"/>
        <pt x="82" y="183" on="1"/>
        <pt x="82" y="106" on="0"/>
        <pt x="127" y="46" on="0"/>
        <pt x="253" y="46" on="0"/>
        <pt x="294" y="104" on="0"/>
        <pt x="294" y="183" on="1"/>
        <pt x="294" y="680" on="1"/>
      </contour>
    </TTGlyph>
    <TTGlyph name="K" xMin="70" yMin="0" xMax="609" yMax="730">
      <contour>
        <pt x="427" y="0" on="1"/>
        <pt x="427" y="50" on="1"/>
        <pt x="478" y="50" on="1"/>
        <pt x="285" y="340" on="1"/>
        <pt x="202" y="340" on="1"/>
        <pt x="202" y="50" on="1"/>
        <pt x="262" y="50" on="1"/>
        <pt x="262" y="0" on="1"/>
        <pt x="70" y="0" on="1"/>
        <pt x="70" y="50" on="1"/>
        <pt x="130" y="50" on="1"/>
        <pt x="130" y="680" on="1"/>
        <pt x="70" y="680" on="1"/>
        <pt x="70" y="730" on="1"/>
        <pt x="262" y="730" on="1"/>
        <pt x="262" y="680" on="1"/>
        <pt x="202" y="680" on="1"/>
        <pt x="202" y="399" on="1"/>
        <pt x="289" y="399" on="1"/>
        <pt x="470" y="680" on="1"/>
        <pt x="417" y="680" on="1"/>
        <pt x="417" y="730" on="1"/>
        <pt x="599" y="730" on="1"/>
        <pt x="599" y="680" on="1"/>
        <pt x="545" y="680" on="1"/>
        <pt x="342" y="368" on="1"/>
        <pt x="556" y="50" on="1"/>
        <pt x="609" y="50" on="1"/>
        <pt x="609" y="0" on="1"/>
      </contour>
    </TTGlyph>
    <TTGlyph name="L" xMin="70" yMin="0" xMax="497" yMax="730">
      <contour>
        <pt x="70" y="680" on="1"/>
        <pt x="70" y="730" on="1"/>
        <pt x="282" y="730" on="1"/>
        <pt x="282" y="680" on="1"/>
        <pt x="202" y="680" on="1"/>
        <pt x="202" y="59" on="1"/>
        <pt x="441" y="59" on="1"/>
        <pt x="441" y="158" on="1"/>
        <pt x="497" y="158" on="1"/>
        <pt x="497" y="0" on="1"/>
        <pt x="70" y="0" on="1"/>
        <pt x="70" y="50" on="1"/>
        <pt x="130" y="50" on="1"/>
        <pt x="130" y="680" on="1"/>
      </contour>
    </TTGlyph>
    <TTGlyph name="Lslash" xMin="41" yMin="0" xMax="497" yMax="730">
      <contour>
        <pt x="70" y="680" on="1"/>
        <pt x="70" y="730" on="1"/>
        <pt x="282" y="730" on="1"/>
        <pt x="282" y="680" on="1"/>
        <pt x="202" y="680" on="1"/>
        <pt x="202" y="421" on="1"/>
        <pt x="291" y="457" on="1"/>
        <pt x="291" y="402" on="1"/>
        <pt x="202" y="366" on="1"/>
        <pt x="202" y="59" on="1"/>
        <pt x="441" y="59" on="1"/>
        <pt x="441" y="158" on="1"/>
        <pt x="497" y="158" on="1"/>
        <pt x="497" y="0" on="1"/>
        <pt x="70" y="0" on="1"/>
        <pt x="70" y="50" on="1"/>
        <pt x="130" y="50" on="1"/>
        <pt x="130" y="337" on="1"/>
        <pt x="41" y="302" on="1"/>
        <pt x="41" y="357" on="1"/>
        <pt x="130" y="392" on="1"/>
        <pt x="130" y="680" on="1"/>
      </contour>
    </TTGlyph>
    <TTGlyph name="M" xMin="70" yMin="0" xMax="826" yMax="730">
      <contour>
        <pt x="634" y="0" on="1"/>
        <pt x="634" y="50" on="1"/>
        <pt x="694" y="50" on="1"/>
        <pt x="694" y="617" on="1"/>
        <pt x="476" y="56" on="1"/>
        <pt x="404" y="56" on="1"/>
        <pt x="202" y="609" on="1"/>
        <pt x="202" y="50" on="1"/>
        <pt x="262" y="50" on="1"/>
        <pt x="262" y="0" on="1"/>
        <pt x="70" y="0" on="1"/>
        <pt x="70" y="50" on="1"/>
        <pt x="130" y="50" on="1"/>
        <pt x="130" y="680" on="1"/>
        <pt x="70" y="680" on="1"/>
        <pt x="70" y="730" on="1"/>
        <pt x="229" y="730" on="1"/>
        <pt x="441" y="142" on="1"/>
        <pt x="667" y="730" on="1"/>
        <pt x="826" y="730" on="1"/>
        <pt x="826" y="680" on="1"/>
        <pt x="766" y="680" on="1"/>
        <pt x="766" y="50" on="1"/>
        <pt x="826" y="50" on="1"/>
        <pt x="826" y="0" on="1"/>
      </contour>
    </TTGlyph>
    <TTGlyph name="N" xMin="70" yMin="0" xMax="710" yMax="730">
      <contour>
        <pt x="518" y="680" on="1"/>
        <pt x="518" y="730" on="1"/>
        <pt x="710" y="730" on="1"/>
        <pt x="710" y="680" on="1"/>
        <pt x="650" y="680" on="1"/>
        <pt x="650" y="0" on="1"/>
        <pt x="570" y="0" on="1"/>
        <pt x="202" y="610" on="1"/>
        <pt x="202" y="50" on="1"/>
        <pt x="262" y="50" on="1"/>
        <pt x="262" y="0" on="1"/>
        <pt x="70" y="0" on="1"/>
        <pt x="70" y="50" on="1"/>
        <pt x="130" y="50" on="1"/>
        <pt x="130" y="680" on="1"/>
        <pt x="70" y="680" on="1"/>
        <pt x="70" y="730" on="1"/>
        <pt x="210" y="730" on="1"/>
        <pt x="578" y="119" on="1"/>
        <pt x="578" y="680" on="1"/>
      </contour>
    </TTGlyph>
    <TTGlyph name="Ntilde" xMin="70" yMin="0" xMax="710" yMax="944">
      <contour>
        <pt x="518" y="680" on="1"/>
        <pt x="518" y="730" on="1"/>
        <pt x="710" y="730" on="1"/>
        <pt x="710" y="680" on="1"/>
        <pt x="650" y="680" on="1"/>
        <pt x="650" y="0" on="1"/>
        <pt x="570" y="0" on="1"/>
        <pt x="202" y="610" on="1"/>
        <pt x="202" y="50" on="1"/>
        <pt x="262" y="50" on="1"/>
        <pt x="262" y="0" on="1"/>
        <pt x="70" y="0" on="1"/>
        <pt x="70" y="50" on="1"/>
        <pt x="130" y="50" on="1"/>
        <pt x="130" y="680" on="1"/>
        <pt x="70" y="680" on="1"/>
        <pt x="70" y="730" on="1"/>
        <pt x="210" y="730" on="1"/>
        <pt x="578" y="119" on="1"/>
        <pt x="578" y="680" on="1"/>
      </contour>
      <contour>
        <pt x="468" y="835" on="1"/>
        <pt x="442" y="835" on="0"/>
        <pt x="344" y="871" on="0"/>
        <pt x="313" y="871" on="0"/>
        <pt x="293" y="851" on="0"/>
        <pt x="285" y="827" on="1"/>
        <pt x="234" y="843" on="1"/>
        <pt x="261" y="936" on="0"/>
        <pt x="322" y="936" on="1"/>
        <pt x="348" y="936" on="0"/>
        <pt x="446" y="900" on="0"/>
        <pt x="478" y="900" on="0"/>
        <pt x="498" y="920" on="0"/>
        <pt x="506" y="944" on="1"/>
        <pt x="556" y="928" on="1"/>
        <pt x="529" y="835" on="0"/>
      </contour>
    </TTGlyph>
    <TTGlyph name="O" xMin="60" yMin="-14" xMax="615" yMax="744">
      <contour>
        <pt x="411" y="-14" on="0"/>
        <pt x="263" y="-14" on="0"/>
        <pt x="161" y="21" on="0"/>
        <pt x="102" y="79" on="0"/>
        <pt x="69" y="182" on="0"/>
        <pt x="60" y="285" on="0"/>
        <pt x="60" y="444" on="0"/>
        <pt x="69" y="547" on="0"/>
        <pt x="102" y="650" on="0"/>
        <pt x="161" y="708" on="0"/>
        <pt x="263" y="744" on="0"/>
        <pt x="411" y="744" on="0"/>
        <pt x="513" y="708" on="0"/>
        <pt x="573" y="650" on="0"/>
        <pt x="605" y="548" on="0"/>
        <pt x="615" y="444" on="0"/>
        <pt x="615" y="286" on="0"/>
        <pt x="605" y="181" on="0"/>
        <pt x="573" y="79" on="0"/>
        <pt x="513" y="21" on="0"/>
      </contour>
      <contour>
        <pt x="283" y="46" on="0"/>
        <pt x="391" y="46" on="0"/>
        <pt x="467" y="76" on="0"/>
        <pt x="512" y="125" on="0"/>
        <pt x="536" y="212" on="0"/>
        <pt x="543" y="299" on="0"/>
        <pt x="543" y="431" on="0"/>
        <pt x="536" y="518" on="0"/>
        <pt x="512" y="605" on="0"/>
        <pt x="467" y="654" on="0"/>
        <pt x="391" y="684" on="0"/>
        <pt x="283" y="684" on="0"/>
        <pt x="207" y="654" on="0"/>
        <pt x="163" y="605" on="0"/>
        <pt x="139" y="518" on="0"/>
        <pt x="132" y="431" on="0"/>
        <pt x="132" y="299" on="0"/>
        <pt x="139" y="212" on="0"/>
        <pt x="163" y="125" on="0"/>
        <pt x="207" y="76" on="0"/>
      </contour>
    </TTGlyph>
    <TTGlyph name="OE" xMin="60" yMin="0" xMax="953" yMax="730">
      <contour>
        <pt x="933" y="572" on="1"/>
        <pt x="877" y="572" on="1"/>
        <pt x="877" y="671" on="1"/>
        <pt x="538" y="671" on="1"/>
        <pt x="580" y="632" on="0"/>
        <pt x="613" y="501" on="0"/>
        <pt x="615" y="401" on="1"/>
        <pt x="883" y="401" on="1"/>
        <pt x="883" y="341" on="1"/>
        <pt x="615" y="341" on="1"/>
        <pt x="613" y="234" on="0"/>
        <pt x="581" y="99" on="0"/>
        <pt x="538" y="59" on="1"/>
        <pt x="897" y="59" on="1"/>
        <pt x="897" y="158" on="1"/>
        <pt x="953" y="158" on="1"/>
        <pt x="953" y="0" on="1"/>
        <pt x="337" y="0" on="1"/>
        <pt x="197" y="0" on="0"/>
        <pt x="132" y="62" on="1"/>
        <pt x="102" y="89" on="0"/>
        <pt x="69" y="189" on="0"/>
        <pt x="60" y="288" on="0"/>
        <pt x="60" y="441" on="0"/>
        <pt x="69" y="541" on="0"/>
        <pt x="102" y="640" on="0"/>
        <pt x="132" y="668" on="1"/>
        <pt x="199" y="730" on="0"/>
        <pt x="337" y="730" on="1"/>
        <pt x="933" y="730" on="1"/>
      </contour>
      <contour>
        <pt x="337" y="671" on="1"/>
        <pt x="234" y="671" on="0"/>
        <pt x="185" y="618" on="1"/>
        <pt x="144" y="575" on="0"/>
        <pt x="136" y="470" on="1"/>
        <pt x="132" y="429" on="0"/>
        <pt x="132" y="301" on="0"/>
        <pt x="139" y="218" on="0"/>
        <pt x="163" y="135" on="0"/>
        <pt x="185" y="112" on="1"/>
        <pt x="234" y="59" on="0"/>
        <pt x="337" y="59" on="1"/>
        <pt x="350" y="59" on="1"/>
        <pt x="446" y="61" on="0"/>
        <pt x="492" y="115" on="1"/>
        <pt x="531" y="160" on="0"/>
        <pt x="540" y="262" on="1"/>
        <pt x="543" y="303" on="0"/>
        <pt x="543" y="427" on="0"/>
        <pt x="536" y="509" on="0"/>
        <pt x="513" y="591" on="0"/>
        <pt x="492" y="614" on="1"/>
        <pt x="447" y="667" on="0"/>
        <pt x="350" y="671" on="1"/>
      </contour>
    </TTGlyph>
    <TTGlyph name="Oacute" xMin="75" yMin="-14" xMax="630" yMax="985">
      <contour>
        <pt x="426" y="-14" on="0"/>
        <pt x="278" y="-14" on="0"/>
        <pt x="176" y="21" on="0"/>
        <pt x="117" y="79" on="0"/>
        <pt x="84" y="182" on="0"/>
        <pt x="75" y="285" on="0"/>
        <pt x="75" y="444" on="0"/>
        <pt x="84" y="547" on="0"/>
        <pt x="117" y="650" on="0"/>
        <pt x="176" y="708" on="0"/>
        <pt x="278" y="744" on="0"/>
        <pt x="426" y="744" on="0"/>
        <pt x="528" y="708" on="0"/>
        <pt x="588" y="650" on="0"/>
        <pt x="620" y="548" on="0"/>
        <pt x="630" y="444" on="0"/>
        <pt x="630" y="286" on="0"/>
        <pt x="620" y="181" on="0"/>
        <pt x="588" y="79" on="0"/>
        <pt x="528" y="21" on="0"/>
      </contour>
      <contour>
        <pt x="298" y="46" on="0"/>
        <pt x="406" y="46" on="0"/>
        <pt x="482" y="76" on="0"/>
        <pt x="527" y="125" on="0"/>
        <pt x="551" y="212" on="0"/>
        <pt x="558" y="299" on="0"/>
        <pt x="558" y="431" on="0"/>
        <pt x="551" y="518" on="0"/>
        <pt x="527" y="605" on="0"/>
        <pt x="482" y="654" on="0"/>
        <pt x="406" y="684" on="0"/>
        <pt x="298" y="684" on="0"/>
        <pt x="222" y="654" on="0"/>
        <pt x="178" y="605" on="0"/>
        <pt x="154" y="518" on="0"/>
        <pt x="147" y="431" on="0"/>
        <pt x="147" y="299" on="0"/>
        <pt x="154" y="212" on="0"/>
        <pt x="178" y="125" on="0"/>
        <pt x="222" y="76" on="0"/>
      </contour>
      <contour>
        <pt x="287" y="782" on="1"/>
        <pt x="245" y="824" on="1"/>
        <pt x="406" y="985" on="1"/>
        <pt x="459" y="932" on="1"/>
      </contour>
    </TTGlyph>
    <TTGlyph name="Ocircumflex" xMin="75" yMin="-14" xMax="630" yMax="979">
      <contour>
        <pt x="426" y="-14" on="0"/>
        <pt x="278" y="-14" on="0"/>
        <pt x="176" y="21" on="0"/>
        <pt x="117" y="79" on="0"/>
        <pt x="84" y="182" on="0"/>
        <pt x="75" y="285" on="0"/>
        <pt x="75" y="444" on="0"/>
        <pt x="84" y="547" on="0"/>
        <pt x="117" y="650" on="0"/>
        <pt x="176" y="708" on="0"/>
        <pt x="278" y="744" on="0"/>
        <pt x="426" y="744" on="0"/>
        <pt x="528" y="708" on="0"/>
        <pt x="588" y="650" on="0"/>
        <pt x="620" y="548" on="0"/>
        <pt x="630" y="444" on="0"/>
        <pt x="630" y="286" on="0"/>
        <pt x="620" y="181" on="0"/>
        <pt x="588" y="79" on="0"/>
        <pt x="528" y="21" on="0"/>
      </contour>
      <contour>
        <pt x="298" y="46" on="0"/>
        <pt x="406" y="46" on="0"/>
        <pt x="482" y="76" on="0"/>
        <pt x="527" y="125" on="0"/>
        <pt x="551" y="212" on="0"/>
        <pt x="558" y="299" on="0"/>
        <pt x="558" y="431" on="0"/>
        <pt x="551" y="518" on="0"/>
        <pt x="527" y="605" on="0"/>
        <pt x="482" y="654" on="0"/>
        <pt x="406" y="684" on="0"/>
        <pt x="298" y="684" on="0"/>
        <pt x="222" y="654" on="0"/>
        <pt x="178" y="605" on="0"/>
        <pt x="154" y="518" on="0"/>
        <pt x="147" y="431" on="0"/>
        <pt x="147" y="299" on="0"/>
        <pt x="154" y="212" on="0"/>
        <pt x="178" y="125" on="0"/>
        <pt x="222" y="76" on="0"/>
      </contour>
      <contour>
        <pt x="244" y="782" on="1"/>
        <pt x="202" y="824" on="1"/>
        <pt x="338" y="979" on="1"/>
        <pt x="367" y="979" on="1"/>
        <pt x="503" y="824" on="1"/>
        <pt x="461" y="782" on="1"/>
        <pt x="352" y="892" on="1"/>
      </contour>
    </TTGlyph>
    <TTGlyph name="Odieresis" xMin="75" yMin="-14" xMax="630" yMax="937">
      <contour>
        <pt x="426" y="-14" on="0"/>
        <pt x="278" y="-14" on="0"/>
        <pt x="176" y="21" on="0"/>
        <pt x="117" y="79" on="0"/>
        <pt x="84" y="182" on="0"/>
        <pt x="75" y="285" on="0"/>
        <pt x="75" y="444" on="0"/>
        <pt x="84" y="547" on="0"/>
        <pt x="117" y="650" on="0"/>
        <pt x="176" y="708" on="0"/>
        <pt x="278" y="744" on="0"/>
        <pt x="426" y="744" on="0"/>
        <pt x="528" y="708" on="0"/>
        <pt x="588" y="650" on="0"/>
        <pt x="620" y="548" on="0"/>
        <pt x="630" y="444" on="0"/>
        <pt x="630" y="286" on="0"/>
        <pt x="620" y="181" on="0"/>
        <pt x="588" y="79" on="0"/>
        <pt x="528" y="21" on="0"/>
      </contour>
      <contour>
        <pt x="298" y="46" on="0"/>
        <pt x="406" y="46" on="0"/>
        <pt x="482" y="76" on="0"/>
        <pt x="527" y="125" on="0"/>
        <pt x="551" y="212" on="0"/>
        <pt x="558" y="299" on="0"/>
        <pt x="558" y="431" on="0"/>
        <pt x="551" y="518" on="0"/>
        <pt x="527" y="605" on="0"/>
        <pt x="482" y="654" on="0"/>
        <pt x="406" y="684" on="0"/>
        <pt x="298" y="684" on="0"/>
        <pt x="222" y="654" on="0"/>
        <pt x="178" y="605" on="0"/>
        <pt x="154" y="518" on="0"/>
        <pt x="147" y="431" on="0"/>
        <pt x="147" y="299" on="0"/>
        <pt x="154" y="212" on="0"/>
        <pt x="178" y="125" on="0"/>
        <pt x="222" y="76" on="0"/>
      </contour>
      <contour>
        <pt x="287" y="848" on="0"/>
        <pt x="266" y="830" on="0"/>
        <pt x="227" y="830" on="0"/>
        <pt x="207" y="848" on="0"/>
        <pt x="203" y="867" on="0"/>
        <pt x="203" y="900" on="0"/>
        <pt x="207" y="919" on="0"/>
        <pt x="227" y="937" on="0"/>
        <pt x="275" y="937" on="0"/>
        <pt x="291" y="909" on="0"/>
        <pt x="291" y="867" on="0"/>
      </contour>
      <contour>
        <pt x="497" y="848" on="0"/>
        <pt x="476" y="830" on="0"/>
        <pt x="437" y="830" on="0"/>
        <pt x="417" y="848" on="0"/>
        <pt x="413" y="867" on="0"/>
        <pt x="413" y="900" on="0"/>
        <pt x="417" y="919" on="0"/>
        <pt x="437" y="937" on="0"/>
        <pt x="485" y="937" on="0"/>
        <pt x="501" y="909" on="0"/>
        <pt x="501" y="867" on="0"/>
      </contour>
    </TTGlyph>
    <TTGlyph name="Ograve" xMin="75" yMin="-14" xMax="630" yMax="985">
      <contour>
        <pt x="426" y="-14" on="0"/>
        <pt x="278" y="-14" on="0"/>
        <pt x="176" y="21" on="0"/>
        <pt x="117" y="79" on="0"/>
        <pt x="84" y="182" on="0"/>
        <pt x="75" y="285" on="0"/>
        <pt x="75" y="444" on="0"/>
        <pt x="84" y="547" on="0"/>
        <pt x="117" y="650" on="0"/>
        <pt x="176" y="708" on="0"/>
        <pt x="278" y="744" on="0"/>
        <pt x="426" y="744" on="0"/>
        <pt x="528" y="708" on="0"/>
        <pt x="588" y="650" on="0"/>
        <pt x="620" y="548" on="0"/>
        <pt x="630" y="444" on="0"/>
        <pt x="630" y="286" on="0"/>
        <pt x="620" y="181" on="0"/>
        <pt x="588" y="79" on="0"/>
        <pt x="528" y="21" on="0"/>
      </contour>
      <contour>
        <pt x="298" y="46" on="0"/>
        <pt x="406" y="46" on="0"/>
        <pt x="482" y="76" on="0"/>
        <pt x="527" y="125" on="0"/>
        <pt x="551" y="212" on="0"/>
        <pt x="558" y="299" on="0"/>
        <pt x="558" y="431" on="0"/>
        <pt x="551" y="518" on="0"/>
        <pt x="527" y="605" on="0"/>
        <pt x="482" y="654" on="0"/>
        <pt x="406" y="684" on="0"/>
        <pt x="298" y="684" on="0"/>
        <pt x="222" y="654" on="0"/>
        <pt x="178" y="605" on="0"/>
        <pt x="154" y="518" on="0"/>
        <pt x="147" y="431" on="0"/>
        <pt x="147" y="299" on="0"/>
        <pt x="154" y="212" on="0"/>
        <pt x="178" y="125" on="0"/>
        <pt x="222" y="76" on="0"/>
      </contour>
      <contour>
        <pt x="459" y="824" on="1"/>
        <pt x="417" y="782" on="1"/>
        <pt x="245" y="932" on="1"/>
        <pt x="298" y="985" on="1"/>
      </contour>
    </TTGlyph>
    <TTGlyph name="Omega" xMin="68" yMin="0" xMax="674" yMax="684">
      <contour>
        <pt x="503" y="625" on="0"/>
        <pt x="239" y="625" on="0"/>
        <pt x="140" y="506" on="0"/>
        <pt x="140" y="386" on="1"/>
        <pt x="140" y="309" on="0"/>
        <pt x="212" y="199" on="0"/>
        <pt x="277" y="172" on="1"/>
        <pt x="277" y="0" on="1"/>
        <pt x="227" y="0" on="1"/>
        <pt x="227" y="133" on="1"/>
        <pt x="68" y="194" on="0"/>
        <pt x="68" y="392" on="1"/>
        <pt x="68" y="534" on="0"/>
        <pt x="211" y="684" on="0"/>
        <pt x="531" y="684" on="0"/>
        <pt x="674" y="534" on="0"/>
        <pt x="674" y="392" on="1"/>
        <pt x="674" y="195" on="0"/>
        <pt x="515" y="133" on="1"/>
        <pt x="515" y="50" on="1"/>
        <pt x="647" y="50" on="1"/>
        <pt x="647" y="0" on="1"/>
        <pt x="465" y="0" on="1"/>
        <pt x="465" y="172" on="1"/>
        <pt x="530" y="199" on="0"/>
        <pt x="602" y="309" on="0"/>
        <pt x="602" y="386" on="1"/>
        <pt x="602" y="506" on="0"/>
      </contour>
      <contour>
        <pt x="95" y="0" on="1"/>
        <pt x="95" y="50" on="1"/>
        <pt x="227" y="50" on="1"/>
        <pt x="227" y="0" on="1"/>
      </contour>
    </TTGlyph>
    <TTGlyph name="Oslash" xMin="60" yMin="-94" xMax="615" yMax="827">
      <contour>
        <pt x="71" y="176" on="0"/>
        <pt x="60" y="282" on="0"/>
        <pt x="60" y="444" on="0"/>
        <pt x="69" y="547" on="0"/>
        <pt x="102" y="650" on="0"/>
        <pt x="132" y="679" on="1"/>
        <pt x="198" y="744" on="0"/>
        <pt x="337" y="744" on="1"/>
        <pt x="360" y="744" on="0"/>
        <pt x="398" y="740" on="1"/>
        <pt x="418" y="827" on="1"/>
        <pt x="471" y="827" on="1"/>
        <pt x="448" y="731" on="1"/>
        <pt x="532" y="708" on="0"/>
        <pt x="571" y="642" on="1"/>
        <pt x="605" y="585" on="0"/>
        <pt x="612" y="474" on="1"/>
        <pt x="615" y="429" on="0"/>
        <pt x="615" y="286" on="0"/>
        <pt x="605" y="181" on="0"/>
        <pt x="573" y="79" on="0"/>
        <pt x="543" y="50" on="1"/>
        <pt x="477" y="-14" on="0"/>
        <pt x="337" y="-14" on="1"/>
        <pt x="313" y="-14" on="0"/>
        <pt x="275" y="-10" on="1"/>
        <pt x="256" y="-94" on="1"/>
        <pt x="204" y="-94" on="1"/>
        <pt x="225" y="-1" on="1"/>
        <pt x="171" y="13" on="0"/>
        <pt x="104" y="74" on="0"/>
      </contour>
      <contour>
        <pt x="289" y="49" on="1"/>
        <pt x="312" y="46" on="0"/>
        <pt x="391" y="46" on="0"/>
        <pt x="467" y="76" on="0"/>
        <pt x="512" y="125" on="0"/>
        <pt x="524" y="168" on="1"/>
        <pt x="543" y="237" on="0"/>
        <pt x="543" y="498" on="0"/>
        <pt x="501" y="641" on="0"/>
        <pt x="434" y="668" on="1"/>
      </contour>
      <contour>
        <pt x="132" y="232" on="0"/>
        <pt x="174" y="89" on="0"/>
        <pt x="240" y="62" on="1"/>
        <pt x="384" y="681" on="1"/>
        <pt x="362" y="684" on="0"/>
        <pt x="283" y="684" on="0"/>
        <pt x="207" y="654" on="0"/>
        <pt x="163" y="605" on="0"/>
        <pt x="151" y="562" on="1"/>
        <pt x="132" y="493" on="0"/>
      </contour>
    </TTGlyph>
    <TTGlyph name="Otilde" xMin="75" yMin="-14" xMax="630" yMax="944">
      <contour>
        <pt x="426" y="-14" on="0"/>
        <pt x="278" y="-14" on="0"/>
        <pt x="176" y="21" on="0"/>
        <pt x="117" y="79" on="0"/>
        <pt x="84" y="182" on="0"/>
        <pt x="75" y="285" on="0"/>
        <pt x="75" y="444" on="0"/>
        <pt x="84" y="547" on="0"/>
        <pt x="117" y="650" on="0"/>
        <pt x="176" y="708" on="0"/>
        <pt x="278" y="744" on="0"/>
        <pt x="426" y="744" on="0"/>
        <pt x="528" y="708" on="0"/>
        <pt x="588" y="650" on="0"/>
        <pt x="620" y="548" on="0"/>
        <pt x="630" y="444" on="0"/>
        <pt x="630" y="286" on="0"/>
        <pt x="620" y="181" on="0"/>
        <pt x="588" y="79" on="0"/>
        <pt x="528" y="21" on="0"/>
      </contour>
      <contour>
        <pt x="298" y="46" on="0"/>
        <pt x="406" y="46" on="0"/>
        <pt x="482" y="76" on="0"/>
        <pt x="527" y="125" on="0"/>
        <pt x="551" y="212" on="0"/>
        <pt x="558" y="299" on="0"/>
        <pt x="558" y="431" on="0"/>
        <pt x="551" y="518" on="0"/>
        <pt x="527" y="605" on="0"/>
        <pt x="482" y="654" on="0"/>
        <pt x="406" y="684" on="0"/>
        <pt x="298" y="684" on="0"/>
        <pt x="222" y="654" on="0"/>
        <pt x="178" y="605" on="0"/>
        <pt x="154" y="518" on="0"/>
        <pt x="147" y="431" on="0"/>
        <pt x="147" y="299" on="0"/>
        <pt x="154" y="212" on="0"/>
        <pt x="178" y="125" on="0"/>
        <pt x="222" y="76" on="0"/>
      </contour>
      <contour>
        <pt x="425" y="835" on="1"/>
        <pt x="400" y="835" on="0"/>
        <pt x="302" y="871" on="0"/>
        <pt x="270" y="871" on="0"/>
        <pt x="250" y="851" on="0"/>
        <pt x="242" y="827" on="1"/>
        <pt x="191" y="843" on="1"/>
        <pt x="218" y="936" on="0"/>
        <pt x="279" y="936" on="1"/>
        <pt x="304" y="936" on="0"/>
        <pt x="403" y="900" on="0"/>
        <pt x="435" y="900" on="0"/>
        <pt x="455" y="920" on="0"/>
        <pt x="463" y="944" on="1"/>
        <pt x="513" y="928" on="1"/>
        <pt x="486" y="835" on="0"/>
      </contour>
    </TTGlyph>
    <TTGlyph name="P" xMin="70" yMin="0" xMax="549" yMax="730">
      <contour>
        <pt x="330" y="275" on="1"/>
        <pt x="202" y="275" on="1"/>
        <pt x="202" y="50" on="1"/>
        <pt x="282" y="50" on="1"/>
        <pt x="282" y="0" on="1"/>
        <pt x="70" y="0" on="1"/>
        <pt x="70" y="50" on="1"/>
        <pt x="130" y="50" on="1"/>
        <pt x="130" y="680" on="1"/>
        <pt x="70" y="680" on="1"/>
        <pt x="70" y="730" on="1"/>
        <pt x="330" y="730" on="1"/>
        <pt x="471" y="730" on="0"/>
        <pt x="514" y="659" on="1"/>
        <pt x="535" y="624" on="0"/>
        <pt x="549" y="554" on="0"/>
        <pt x="549" y="462" on="0"/>
        <pt x="542" y="404" on="0"/>
        <pt x="516" y="340" on="0"/>
        <pt x="493" y="320" on="1"/>
        <pt x="439" y="275" on="0"/>
      </contour>
      <contour>
        <pt x="202" y="334" on="1"/>
        <pt x="330" y="334" on="1"/>
        <pt x="425" y="334" on="0"/>
        <pt x="454" y="384" on="1"/>
        <pt x="468" y="409" on="0"/>
        <pt x="477" y="461" on="0"/>
        <pt x="477" y="543" on="0"/>
        <pt x="468" y="596" on="0"/>
        <pt x="454" y="622" on="1"/>
        <pt x="425" y="671" on="0"/>
        <pt x="330" y="671" on="1"/>
        <pt x="202" y="671" on="1"/>
      </contour>
    </TTGlyph>
    <TTGlyph name="Q" xMin="60" yMin="-192" xMax="615" yMax="744">
      <contour>
        <pt x="64" y="238" on="1"/>
        <pt x="60" y="288" on="0"/>
        <pt x="60" y="444" on="0"/>
        <pt x="69" y="547" on="0"/>
        <pt x="102" y="650" on="0"/>
        <pt x="161" y="708" on="0"/>
        <pt x="263" y="744" on="0"/>
        <pt x="411" y="744" on="0"/>
        <pt x="513" y="708" on="0"/>
        <pt x="573" y="650" on="0"/>
        <pt x="605" y="548" on="0"/>
        <pt x="615" y="444" on="0"/>
        <pt x="615" y="291" on="0"/>
        <pt x="607" y="192" on="0"/>
        <pt x="579" y="94" on="0"/>
        <pt x="554" y="64" on="1"/>
        <pt x="500" y="-2" on="0"/>
        <pt x="386" y="-12" on="1"/>
        <pt x="477" y="-192" on="1"/>
        <pt x="402" y="-192" on="1"/>
        <pt x="312" y="-13" on="1"/>
        <pt x="185" y="-7" on="0"/>
        <pt x="125" y="57" on="1"/>
        <pt x="76" y="110" on="0"/>
      </contour>
      <contour>
        <pt x="283" y="46" on="0"/>
        <pt x="391" y="46" on="0"/>
        <pt x="467" y="76" on="0"/>
        <pt x="512" y="125" on="0"/>
        <pt x="536" y="212" on="0"/>
        <pt x="543" y="299" on="0"/>
        <pt x="543" y="431" on="0"/>
        <pt x="536" y="518" on="0"/>
        <pt x="512" y="605" on="0"/>
        <pt x="467" y="654" on="0"/>
        <pt x="391" y="684" on="0"/>
        <pt x="283" y="684" on="0"/>
        <pt x="207" y="654" on="0"/>
        <pt x="163" y="605" on="0"/>
        <pt x="139" y="518" on="0"/>
        <pt x="132" y="431" on="0"/>
        <pt x="132" y="299" on="0"/>
        <pt x="139" y="212" on="0"/>
        <pt x="163" y="125" on="0"/>
        <pt x="207" y="76" on="0"/>
      </contour>
    </TTGlyph>
    <TTGlyph name="R" xMin="70" yMin="0" xMax="629" yMax="730">
      <contour>
        <pt x="281" y="305" on="1"/>
        <pt x="202" y="305" on="1"/>
        <pt x="202" y="50" on="1"/>
        <pt x="262" y="50" on="1"/>
        <pt x="262" y="0" on="1"/>
        <pt x="70" y="0" on="1"/>
        <pt x="70" y="50" on="1"/>
        <pt x="130" y="50" on="1"/>
        <pt x="130" y="680" on="1"/>
        <pt x="70" y="680" on="1"/>
        <pt x="70" y="730" on="1"/>
        <pt x="340" y="730" on="1"/>
        <pt x="500" y="730" on="0"/>
        <pt x="539" y="639" on="1"/>
        <pt x="552" y="609" on="0"/>
        <pt x="559" y="555" on="0"/>
        <pt x="559" y="479" on="0"/>
        <pt x="551" y="423" on="0"/>
        <pt x="538" y="394" on="1"/>
        <pt x="513" y="335" on="0"/>
        <pt x="432" y="315" on="1"/>
        <pt x="460" y="295" on="0"/>
        <pt x="481" y="249" on="1"/>
        <pt x="567" y="50" on="1"/>
        <pt x="629" y="50" on="1"/>
        <pt x="629" y="0" on="1"/>
        <pt x="512" y="0" on="1"/>
        <pt x="411" y="237" on="1"/>
        <pt x="393" y="278" on="0"/>
        <pt x="335" y="305" on="0"/>
      </contour>
      <contour>
        <pt x="202" y="364" on="1"/>
        <pt x="340" y="364" on="1"/>
        <pt x="436" y="364" on="0"/>
        <pt x="464" y="410" on="1"/>
        <pt x="478" y="433" on="0"/>
        <pt x="487" y="481" on="0"/>
        <pt x="487" y="554" on="0"/>
        <pt x="478" y="602" on="0"/>
        <pt x="464" y="625" on="1"/>
        <pt x="436" y="671" on="0"/>
        <pt x="340" y="671" on="1"/>
        <pt x="202" y="671" on="1"/>
      </contour>
    </TTGlyph>
    <TTGlyph name="S" xMin="47" yMin="-14" xMax="531" yMax="744">
      <contour>
        <pt x="101" y="0" on="1"/>
        <pt x="47" y="0" on="1"/>
        <pt x="47" y="216" on="1"/>
        <pt x="101" y="216" on="1"/>
        <pt x="103" y="141" on="0"/>
        <pt x="197" y="46" on="0"/>
        <pt x="384" y="46" on="0"/>
        <pt x="459" y="114" on="0"/>
        <pt x="459" y="251" on="0"/>
        <pt x="405" y="307" on="0"/>
        <pt x="333" y="321" on="1"/>
        <pt x="243" y="338" on="1"/>
        <pt x="135" y="359" on="0"/>
        <pt x="54" y="439" on="0"/>
        <pt x="54" y="636" on="0"/>
        <pt x="150" y="744" on="0"/>
        <pt x="268" y="744" on="1"/>
        <pt x="405" y="744" on="0"/>
        <pt x="459" y="652" on="1"/>
        <pt x="459" y="730" on="1"/>
        <pt x="513" y="730" on="1"/>
        <pt x="513" y="552" on="1"/>
        <pt x="459" y="552" on="1"/>
        <pt x="439" y="684" on="0"/>
        <pt x="283" y="684" on="1"/>
        <pt x="192" y="684" on="0"/>
        <pt x="126" y="610" on="0"/>
        <pt x="126" y="472" on="0"/>
        <pt x="172" y="420" on="0"/>
        <pt x="246" y="406" on="1"/>
        <pt x="335" y="389" on="1"/>
        <pt x="445" y="368" on="0"/>
        <pt x="531" y="285" on="0"/>
        <pt x="531" y="90" on="0"/>
        <pt x="428" y="-14" on="0"/>
        <pt x="162" y="-14" on="0"/>
        <pt x="101" y="86" on="1"/>
      </contour>
    </TTGlyph>
    <TTGlyph name="Scaron" xMin="69" yMin="-14" xMax="553" yMax="985">
      <contour>
        <pt x="123" y="0" on="1"/>
        <pt x="69" y="0" on="1"/>
        <pt x="69" y="216" on="1"/>
        <pt x="123" y="216" on="1"/>
        <pt x="125" y="141" on="0"/>
        <pt x="219" y="46" on="0"/>
        <pt x="406" y="46" on="0"/>
        <pt x="481" y="114" on="0"/>
        <pt x="481" y="251" on="0"/>
        <pt x="427" y="307" on="0"/>
        <pt x="355" y="321" on="1"/>
        <pt x="265" y="338" on="1"/>
        <pt x="157" y="359" on="0"/>
        <pt x="76" y="439" on="0"/>
        <pt x="76" y="636" on="0"/>
        <pt x="172" y="744" on="0"/>
        <pt x="290" y="744" on="1"/>
        <pt x="427" y="744" on="0"/>
        <pt x="481" y="652" on="1"/>
        <pt x="481" y="730" on="1"/>
        <pt x="535" y="730" on="1"/>
        <pt x="535" y="552" on="1"/>
        <pt x="481" y="552" on="1"/>
        <pt x="461" y="684" on="0"/>
        <pt x="305" y="684" on="1"/>
        <pt x="214" y="684" on="0"/>
        <pt x="148" y="610" on="0"/>
        <pt x="148" y="472" on="0"/>
        <pt x="194" y="420" on="0"/>
        <pt x="268" y="406" on="1"/>
        <pt x="357" y="389" on="1"/>
        <pt x="467" y="368" on="0"/>
        <pt x="553" y="285" on="0"/>
        <pt x="553" y="90" on="0"/>
        <pt x="450" y="-14" on="0"/>
        <pt x="184" y="-14" on="0"/>
        <pt x="123" y="86" on="1"/>
      </contour>
      <contour>
        <pt x="417" y="985" on="1"/>
        <pt x="459" y="943" on="1"/>
        <pt x="323" y="788" on="1"/>
        <pt x="294" y="788" on="1"/>
        <pt x="158" y="943" on="1"/>
        <pt x="200" y="985" on="1"/>
        <pt x="309" y="875" on="1"/>
      </contour>
    </TTGlyph>
    <TTGlyph name="T" xMin="10" yMin="0" xMax="528" yMax="730">
      <contour>
        <pt x="528" y="572" on="1"/>
        <pt x="472" y="572" on="1"/>
        <pt x="472" y="671" on="1"/>
        <pt x="305" y="671" on="1"/>
        <pt x="305" y="50" on="1"/>
        <pt x="385" y="50" on="1"/>
        <pt x="385" y="0" on="1"/>
        <pt x="153" y="0" on="1"/>
        <pt x="153" y="50" on="1"/>
        <pt x="233" y="50" on="1"/>
        <pt x="233" y="671" on="1"/>
        <pt x="66" y="671" on="1"/>
        <pt x="66" y="572" on="1"/>
        <pt x="10" y="572" on="1"/>
        <pt x="10" y="730" on="1"/>
        <pt x="528" y="730" on="1"/>
      </contour>
    </TTGlyph>
    <TTGlyph name="Thorn" xMin="70" yMin="0" xMax="549" yMax="730">
      <contour>
        <pt x="330" y="137" on="1"/>
        <pt x="202" y="137" on="1"/>
        <pt x="202" y="56" on="1"/>
        <pt x="272" y="56" on="1"/>
        <pt x="272" y="0" on="1"/>
        <pt x="70" y="0" on="1"/>
        <pt x="70" y="56" on="1"/>
        <pt x="130" y="56" on="1"/>
        <pt x="130" y="674" on="1"/>
        <pt x="70" y="674" on="1"/>
        <pt x="70" y="730" on="1"/>
        <pt x="272" y="730" on="1"/>
        <pt x="272" y="674" on="1"/>
        <pt x="202" y="674" on="1"/>
        <pt x="202" y="592" on="1"/>
        <pt x="330" y="592" on="1"/>
        <pt x="471" y="592" on="0"/>
        <pt x="514" y="521" on="1"/>
        <pt x="535" y="486" on="0"/>
        <pt x="549" y="416" on="0"/>
        <pt x="549" y="324" on="0"/>
        <pt x="542" y="266" on="0"/>
        <pt x="516" y="202" on="0"/>
        <pt x="493" y="182" on="1"/>
        <pt x="439" y="137" on="0"/>
      </contour>
      <contour>
        <pt x="202" y="201" on="1"/>
        <pt x="330" y="201" on="1"/>
        <pt x="425" y="201" on="0"/>
        <pt x="454" y="252" on="1"/>
        <pt x="468" y="277" on="0"/>
        <pt x="477" y="327" on="0"/>
        <pt x="477" y="401" on="0"/>
        <pt x="468" y="452" on="0"/>
        <pt x="454" y="477" on="1"/>
        <pt x="425" y="528" on="0"/>
        <pt x="330" y="528" on="1"/>
        <pt x="202" y="528" on="1"/>
      </contour>
    </TTGlyph>
    <TTGlyph name="U" xMin="55" yMin="-14" xMax="695" yMax="730">
      <contour>
        <pt x="55" y="680" on="1"/>
        <pt x="55" y="730" on="1"/>
        <pt x="247" y="730" on="1"/>
        <pt x="247" y="680" on="1"/>
        <pt x="187" y="680" on="1"/>
        <pt x="187" y="241" on="1"/>
        <pt x="187" y="116" on="0"/>
        <pt x="246" y="78" on="1"/>
        <pt x="274" y="60" on="0"/>
        <pt x="333" y="47" on="0"/>
        <pt x="416" y="47" on="0"/>
        <pt x="475" y="60" on="0"/>
        <pt x="504" y="78" on="1"/>
        <pt x="563" y="116" on="0"/>
        <pt x="563" y="241" on="1"/>
        <pt x="563" y="680" on="1"/>
        <pt x="503" y="680" on="1"/>
        <pt x="503" y="730" on="1"/>
        <pt x="695" y="730" on="1"/>
        <pt x="695" y="680" on="1"/>
        <pt x="635" y="680" on="1"/>
        <pt x="635" y="241" on="1"/>
        <pt x="635" y="113" on="0"/>
        <pt x="582" y="52" on="1"/>
        <pt x="560" y="25" on="0"/>
        <pt x="487" y="-6" on="0"/>
        <pt x="420" y="-14" on="0"/>
        <pt x="328" y="-14" on="0"/>
        <pt x="262" y="-6" on="0"/>
        <pt x="190" y="25" on="0"/>
        <pt x="168" y="52" on="1"/>
        <pt x="115" y="113" on="0"/>
        <pt x="115" y="241" on="1"/>
        <pt x="115" y="680" on="1"/>
      </contour>
    </TTGlyph>
    <TTGlyph name="Uacute" xMin="55" yMin="-14" xMax="695" yMax="985">
      <contour>
        <pt x="55" y="680" on="1"/>
        <pt x="55" y="730" on="1"/>
        <pt x="247" y="730" on="1"/>
        <pt x="247" y="680" on="1"/>
        <pt x="187" y="680" on="1"/>
        <pt x="187" y="241" on="1"/>
        <pt x="187" y="116" on="0"/>
        <pt x="246" y="78" on="1"/>
        <pt x="274" y="60" on="0"/>
        <pt x="333" y="47" on="0"/>
        <pt x="416" y="47" on="0"/>
        <pt x="475" y="60" on="0"/>
        <pt x="504" y="78" on="1"/>
        <pt x="563" y="116" on="0"/>
        <pt x="563" y="241" on="1"/>
        <pt x="563" y="680" on="1"/>
        <pt x="503" y="680" on="1"/>
        <pt x="503" y="730" on="1"/>
        <pt x="695" y="730" on="1"/>
        <pt x="695" y="680" on="1"/>
        <pt x="635" y="680" on="1"/>
        <pt x="635" y="241" on="1"/>
        <pt x="635" y="113" on="0"/>
        <pt x="582" y="52" on="1"/>
        <pt x="560" y="25" on="0"/>
        <pt x="487" y="-6" on="0"/>
        <pt x="420" y="-14" on="0"/>
        <pt x="328" y="-14" on="0"/>
        <pt x="262" y="-6" on="0"/>
        <pt x="190" y="25" on="0"/>
        <pt x="168" y="52" on="1"/>
        <pt x="115" y="113" on="0"/>
        <pt x="115" y="241" on="1"/>
        <pt x="115" y="680" on="1"/>
      </contour>
      <contour>
        <pt x="360" y="782" on="1"/>
        <pt x="318" y="824" on="1"/>
        <pt x="479" y="985" on="1"/>
        <pt x="532" y="932" on="1"/>
      </contour>
    </TTGlyph>
    <TTGlyph name="Ucircumflex" xMin="55" yMin="-14" xMax="695" yMax="979">
      <contour>
        <pt x="55" y="680" on="1"/>
        <pt x="55" y="730" on="1"/>
        <pt x="247" y="730" on="1"/>
        <pt x="247" y="680" on="1"/>
        <pt x="187" y="680" on="1"/>
        <pt x="187" y="241" on="1"/>
        <pt x="187" y="116" on="0"/>
        <pt x="246" y="78" on="1"/>
        <pt x="274" y="60" on="0"/>
        <pt x="333" y="47" on="0"/>
        <pt x="416" y="47" on="0"/>
        <pt x="475" y="60" on="0"/>
        <pt x="504" y="78" on="1"/>
        <pt x="563" y="116" on="0"/>
        <pt x="563" y="241" on="1"/>
        <pt x="563" y="680" on="1"/>
        <pt x="503" y="680" on="1"/>
        <pt x="503" y="730" on="1"/>
        <pt x="695" y="730" on="1"/>
        <pt x="695" y="680" on="1"/>
        <pt x="635" y="680" on="1"/>
        <pt x="635" y="241" on="1"/>
        <pt x="635" y="113" on="0"/>
        <pt x="582" y="52" on="1"/>
        <pt x="560" y="25" on="0"/>
        <pt x="487" y="-6" on="0"/>
        <pt x="420" y="-14" on="0"/>
        <pt x="328" y="-14" on="0"/>
        <pt x="262" y="-6" on="0"/>
        <pt x="190" y="25" on="0"/>
        <pt x="168" y="52" on="1"/>
        <pt x="115" y="113" on="0"/>
        <pt x="115" y="241" on="1"/>
        <pt x="115" y="680" on="1"/>
      </contour>
      <contour>
        <pt x="266" y="782" on="1"/>
        <pt x="224" y="824" on="1"/>
        <pt x="360" y="979" on="1"/>
        <pt x="389" y="979" on="1"/>
        <pt x="525" y="824" on="1"/>
        <pt x="483" y="782" on="1"/>
        <pt x="374" y="892" on="1"/>
      </contour>
    </TTGlyph>
    <TTGlyph name="Udieresis" xMin="55" yMin="-14" xMax="695" yMax="937">
      <contour>
        <pt x="55" y="680" on="1"/>
        <pt x="55" y="730" on="1"/>
        <pt x="247" y="730" on="1"/>
        <pt x="247" y="680" on="1"/>
        <pt x="187" y="680" on="1"/>
        <pt x="187" y="241" on="1"/>
        <pt x="187" y="116" on="0"/>
        <pt x="246" y="78" on="1"/>
        <pt x="274" y="60" on="0"/>
        <pt x="333" y="47" on="0"/>
        <pt x="416" y="47" on="0"/>
        <pt x="475" y="60" on="0"/>
        <pt x="504" y="78" on="1"/>
        <pt x="563" y="116" on="0"/>
        <pt x="563" y="241" on="1"/>
        <pt x="563" y="680" on="1"/>
        <pt x="503" y="680" on="1"/>
        <pt x="503" y="730" on="1"/>
        <pt x="695" y="730" on="1"/>
        <pt x="695" y="680" on="1"/>
        <pt x="635" y="680" on="1"/>
        <pt x="635" y="241" on="1"/>
        <pt x="635" y="113" on="0"/>
        <pt x="582" y="52" on="1"/>
        <pt x="560" y="25" on="0"/>
        <pt x="487" y="-6" on="0"/>
        <pt x="420" y="-14" on="0"/>
        <pt x="328" y="-14" on="0"/>
        <pt x="262" y="-6" on="0"/>
        <pt x="190" y="25" on="0"/>
        <pt x="168" y="52" on="1"/>
        <pt x="115" y="113" on="0"/>
        <pt x="115" y="241" on="1"/>
        <pt x="115" y="680" on="1"/>
      </contour>
      <contour>
        <pt x="520" y="848" on="0"/>
        <pt x="499" y="830" on="0"/>
        <pt x="460" y="830" on="0"/>
        <pt x="440" y="848" on="0"/>
        <pt x="436" y="867" on="0"/>
        <pt x="436" y="900" on="0"/>
        <pt x="440" y="919" on="0"/>
        <pt x="460" y="937" on="0"/>
        <pt x="508" y="937" on="0"/>
        <pt x="524" y="909" on="0"/>
        <pt x="524" y="867" on="0"/>
      </contour>
      <contour>
        <pt x="310" y="848" on="0"/>
        <pt x="289" y="830" on="0"/>
        <pt x="250" y="830" on="0"/>
        <pt x="230" y="848" on="0"/>
        <pt x="226" y="867" on="0"/>
        <pt x="226" y="900" on="0"/>
        <pt x="230" y="919" on="0"/>
        <pt x="250" y="937" on="0"/>
        <pt x="298" y="937" on="0"/>
        <pt x="314" y="909" on="0"/>
        <pt x="314" y="867" on="0"/>
      </contour>
    </TTGlyph>
    <TTGlyph name="Ugrave" xMin="55" yMin="-14" xMax="695" yMax="985">
      <contour>
        <pt x="55" y="680" on="1"/>
        <pt x="55" y="730" on="1"/>
        <pt x="247" y="730" on="1"/>
        <pt x="247" y="680" on="1"/>
        <pt x="187" y="680" on="1"/>
        <pt x="187" y="241" on="1"/>
        <pt x="187" y="116" on="0"/>
        <pt x="246" y="78" on="1"/>
        <pt x="274" y="60" on="0"/>
        <pt x="333" y="47" on="0"/>
        <pt x="416" y="47" on="0"/>
        <pt x="475" y="60" on="0"/>
        <pt x="504" y="78" on="1"/>
        <pt x="563" y="116" on="0"/>
        <pt x="563" y="241" on="1"/>
        <pt x="563" y="680" on="1"/>
        <pt x="503" y="680" on="1"/>
        <pt x="503" y="730" on="1"/>
        <pt x="695" y="730" on="1"/>
        <pt x="695" y="680" on="1"/>
        <pt x="635" y="680" on="1"/>
        <pt x="635" y="241" on="1"/>
        <pt x="635" y="113" on="0"/>
        <pt x="582" y="52" on="1"/>
        <pt x="560" y="25" on="0"/>
        <pt x="487" y="-6" on="0"/>
        <pt x="420" y="-14" on="0"/>
        <pt x="328" y="-14" on="0"/>
        <pt x="262" y="-6" on="0"/>
        <pt x="190" y="25" on="0"/>
        <pt x="168" y="52" on="1"/>
        <pt x="115" y="113" on="0"/>
        <pt x="115" y="241" on="1"/>
        <pt x="115" y="680" on="1"/>
      </contour>
      <contour>
        <pt x="452" y="824" on="1"/>
        <pt x="410" y="782" on="1"/>
        <pt x="238" y="932" on="1"/>
        <pt x="291" y="985" on="1"/>
      </contour>
    </TTGlyph>
    <TTGlyph name="V" xMin="10" yMin="0" xMax="617" yMax="730">
      <contour>
        <pt x="10" y="674" on="1"/>
        <pt x="10" y="730" on="1"/>
        <pt x="192" y="730" on="1"/>
        <pt x="192" y="674" on="1"/>
        <pt x="129" y="674" on="1"/>
        <pt x="313" y="61" on="1"/>
        <pt x="498" y="674" on="1"/>
        <pt x="435" y="674" on="1"/>
        <pt x="435" y="730" on="1"/>
        <pt x="617" y="730" on="1"/>
        <pt x="617" y="674" on="1"/>
        <pt x="569" y="674" on="1"/>
        <pt x="362" y="0" on="1"/>
        <pt x="265" y="0" on="1"/>
        <pt x="57" y="674" on="1"/>
      </contour>
    </TTGlyph>
    <TTGlyph name="W" xMin="15" yMin="0" xMax="874" yMax="730">
      <contour>
        <pt x="15" y="674" on="1"/>
        <pt x="15" y="730" on="1"/>
        <pt x="197" y="730" on="1"/>
        <pt x="197" y="674" on="1"/>
        <pt x="129" y="674" on="1"/>
        <pt x="263" y="59" on="1"/>
        <pt x="409" y="730" on="1"/>
        <pt x="480" y="730" on="1"/>
        <pt x="626" y="59" on="1"/>
        <pt x="760" y="674" on="1"/>
        <pt x="692" y="674" on="1"/>
        <pt x="692" y="730" on="1"/>
        <pt x="874" y="730" on="1"/>
        <pt x="874" y="674" on="1"/>
        <pt x="831" y="674" on="1"/>
        <pt x="679" y="0" on="1"/>
        <pt x="574" y="0" on="1"/>
        <pt x="444" y="591" on="1"/>
        <pt x="315" y="0" on="1"/>
        <pt x="210" y="0" on="1"/>
        <pt x="57" y="674" on="1"/>
      </contour>
    </TTGlyph>
    <TTGlyph name="X" xMin="30" yMin="0" xMax="631" yMax="730">
      <contour>
        <pt x="432" y="674" on="1"/>
        <pt x="432" y="730" on="1"/>
        <pt x="614" y="730" on="1"/>
        <pt x="614" y="674" on="1"/>
        <pt x="559" y="674" on="1"/>
        <pt x="373" y="376" on="1"/>
        <pt x="577" y="56" on="1"/>
        <pt x="631" y="56" on="1"/>
        <pt x="631" y="0" on="1"/>
        <pt x="449" y="0" on="1"/>
        <pt x="449" y="56" on="1"/>
        <pt x="494" y="56" on="1"/>
        <pt x="325" y="321" on="1"/>
        <pt x="164" y="56" on="1"/>
        <pt x="212" y="56" on="1"/>
        <pt x="212" y="0" on="1"/>
        <pt x="30" y="0" on="1"/>
        <pt x="30" y="56" on="1"/>
        <pt x="84" y="56" on="1"/>
        <pt x="287" y="381" on="1"/>
        <pt x="101" y="674" on="1"/>
        <pt x="47" y="674" on="1"/>
        <pt x="47" y="730" on="1"/>
        <pt x="229" y="730" on="1"/>
        <pt x="229" y="674" on="1"/>
        <pt x="184" y="674" on="1"/>
        <pt x="335" y="436" on="1"/>
        <pt x="479" y="674" on="1"/>
      </contour>
    </TTGlyph>
    <TTGlyph name="Y" xMin="10" yMin="0" xMax="552" yMax="730">
      <contour>
        <pt x="317" y="56" on="1"/>
        <pt x="387" y="56" on="1"/>
        <pt x="387" y="0" on="1"/>
        <pt x="175" y="0" on="1"/>
        <pt x="175" y="56" on="1"/>
        <pt x="245" y="56" on="1"/>
        <pt x="245" y="255" on="1"/>
        <pt x="55" y="674" on="1"/>
        <pt x="10" y="674" on="1"/>
        <pt x="10" y="730" on="1"/>
        <pt x="192" y="730" on="1"/>
        <pt x="192" y="674" on="1"/>
        <pt x="130" y="674" on="1"/>
        <pt x="281" y="332" on="1"/>
        <pt x="431" y="674" on="1"/>
        <pt x="370" y="674" on="1"/>
        <pt x="370" y="730" on="1"/>
        <pt x="552" y="730" on="1"/>
        <pt x="552" y="674" on="1"/>
        <pt x="506" y="674" on="1"/>
        <pt x="317" y="255" on="1"/>
      </contour>
    </TTGlyph>
    <TTGlyph name="Yacute" xMin="-25" yMin="0" xMax="517" yMax="985">
      <contour>
        <pt x="282" y="56" on="1"/>
        <pt x="352" y="56" on="1"/>
        <pt x="352" y="0" on="1"/>
        <pt x="140" y="0" on="1"/>
        <pt x="140" y="56" on="1"/>
        <pt x="210" y="56" on="1"/>
        <pt x="210" y="255" on="1"/>
        <pt x="20" y="674" on="1"/>
        <pt x="-25" y="674" on="1"/>
        <pt x="-25" y="730" on="1"/>
        <pt x="157" y="730" on="1"/>
        <pt x="157" y="674" on="1"/>
        <pt x="95" y="674" on="1"/>
        <pt x="246" y="332" on="1"/>
        <pt x="396" y="674" on="1"/>
        <pt x="335" y="674" on="1"/>
        <pt x="335" y="730" on="1"/>
        <pt x="517" y="730" on="1"/>
        <pt x="517" y="674" on="1"/>
        <pt x="471" y="674" on="1"/>
        <pt x="282" y="255" on="1"/>
      </contour>
      <contour>
        <pt x="181" y="782" on="1"/>
        <pt x="139" y="824" on="1"/>
        <pt x="300" y="985" on="1"/>
        <pt x="353" y="932" on="1"/>
      </contour>
    </TTGlyph>
    <TTGlyph name="Ydieresis" xMin="-25" yMin="0" xMax="517" yMax="937">
      <contour>
        <pt x="282" y="56" on="1"/>
        <pt x="352" y="56" on="1"/>
        <pt x="352" y="0" on="1"/>
        <pt x="140" y="0" on="1"/>
        <pt x="140" y="56" on="1"/>
        <pt x="210" y="56" on="1"/>
        <pt x="210" y="255" on="1"/>
        <pt x="20" y="674" on="1"/>
        <pt x="-25" y="674" on="1"/>
        <pt x="-25" y="730" on="1"/>
        <pt x="157" y="730" on="1"/>
        <pt x="157" y="674" on="1"/>
        <pt x="95" y="674" on="1"/>
        <pt x="246" y="332" on="1"/>
        <pt x="396" y="674" on="1"/>
        <pt x="335" y="674" on="1"/>
        <pt x="335" y="730" on="1"/>
        <pt x="517" y="730" on="1"/>
        <pt x="517" y="674" on="1"/>
        <pt x="471" y="674" on="1"/>
        <pt x="282" y="255" on="1"/>
      </contour>
      <contour>
        <pt x="181" y="848" on="0"/>
        <pt x="160" y="830" on="0"/>
        <pt x="121" y="830" on="0"/>
        <pt x="101" y="848" on="0"/>
        <pt x="97" y="867" on="0"/>
        <pt x="97" y="900" on="0"/>
        <pt x="101" y="919" on="0"/>
        <pt x="121" y="937" on="0"/>
        <pt x="169" y="937" on="0"/>
        <pt x="185" y="909" on="0"/>
        <pt x="185" y="867" on="0"/>
      </contour>
      <contour>
        <pt x="391" y="848" on="0"/>
        <pt x="370" y="830" on="0"/>
        <pt x="331" y="830" on="0"/>
        <pt x="311" y="848" on="0"/>
        <pt x="307" y="867" on="0"/>
        <pt x="307" y="900" on="0"/>
        <pt x="311" y="919" on="0"/>
        <pt x="331" y="937" on="0"/>
        <pt x="379" y="937" on="0"/>
        <pt x="395" y="909" on="0"/>
        <pt x="395" y="867" on="0"/>
      </contour>
    </TTGlyph>
    <TTGlyph name="Z" xMin="30" yMin="0" xMax="515" yMax="730">
      <contour>
        <pt x="106" y="572" on="1"/>
        <pt x="50" y="572" on="1"/>
        <pt x="50" y="730" on="1"/>
        <pt x="505" y="730" on="1"/>
        <pt x="505" y="684" on="1"/>
        <pt x="122" y="64" on="1"/>
        <pt x="459" y="64" on="1"/>
        <pt x="459" y="158" on="1"/>
        <pt x="515" y="158" on="1"/>
        <pt x="515" y="0" on="1"/>
        <pt x="30" y="0" on="1"/>
        <pt x="30" y="46" on="1"/>
        <pt x="413" y="666" on="1"/>
        <pt x="106" y="666" on="1"/>
      </contour>
    </TTGlyph>
    <TTGlyph name="Zcaron" xMin="30" yMin="0" xMax="515" yMax="985">
      <contour>
        <pt x="515" y="0" on="1"/>
        <pt x="30" y="0" on="1"/>
        <pt x="30" y="46" on="1"/>
        <pt x="413" y="666" on="1"/>
        <pt x="106" y="666" on="1"/>
        <pt x="106" y="572" on="1"/>
        <pt x="50" y="572" on="1"/>
        <pt x="50" y="730" on="1"/>
        <pt x="505" y="730" on="1"/>
        <pt x="505" y="684" on="1"/>
        <pt x="122" y="64" on="1"/>
        <pt x="459" y="64" on="1"/>
        <pt x="459" y="158" on="1"/>
        <pt x="515" y="158" on="1"/>
      </contour>
      <contour>
        <pt x="371" y="985" on="1"/>
        <pt x="413" y="943" on="1"/>
        <pt x="277" y="788" on="1"/>
        <pt x="248" y="788" on="1"/>
        <pt x="112" y="943" on="1"/>
        <pt x="154" y="985" on="1"/>
        <pt x="263" y="875" on="1"/>
      </contour>
    </TTGlyph>
    <TTGlyph name="a" xMin="64" yMin="-14" xMax="552" yMax="586">
      <contour>
        <pt x="427" y="65" on="1"/>
        <pt x="339" y="-14" on="0"/>
        <pt x="139" y="-14" on="0"/>
        <pt x="64" y="66" on="0"/>
        <pt x="64" y="231" on="0"/>
        <pt x="136" y="307" on="0"/>
        <pt x="237" y="314" on="1"/>
        <pt x="422" y="326" on="1"/>
        <pt x="422" y="426" on="1"/>
        <pt x="422" y="527" on="0"/>
        <pt x="294" y="527" on="1"/>
        <pt x="209" y="527" on="0"/>
        <pt x="152" y="469" on="0"/>
        <pt x="148" y="407" on="1"/>
        <pt x="89" y="410" on="1"/>
        <pt x="92" y="453" on="0"/>
        <pt x="111" y="511" on="0"/>
        <pt x="132" y="536" on="1"/>
        <pt x="174" y="586" on="0"/>
        <pt x="294" y="586" on="1"/>
        <pt x="492" y="586" on="0"/>
        <pt x="492" y="426" on="1"/>
        <pt x="492" y="50" on="1"/>
        <pt x="552" y="50" on="1"/>
        <pt x="552" y="0" on="1"/>
        <pt x="445" y="0" on="1"/>
      </contour>
      <contour>
        <pt x="243" y="43" on="1"/>
        <pt x="340" y="43" on="0"/>
        <pt x="422" y="121" on="1"/>
        <pt x="422" y="272" on="1"/>
        <pt x="241" y="261" on="1"/>
        <pt x="177" y="257" on="0"/>
        <pt x="132" y="210" on="0"/>
        <pt x="132" y="92" on="0"/>
        <pt x="182" y="43" on="0"/>
      </contour>
    </TTGlyph>
    <TTGlyph name="aacute" xMin="64" yMin="-14" xMax="552" yMax="827">
      <contour>
        <pt x="427" y="65" on="1"/>
        <pt x="339" y="-14" on="0"/>
        <pt x="139" y="-14" on="0"/>
        <pt x="64" y="66" on="0"/>
        <pt x="64" y="231" on="0"/>
        <pt x="136" y="307" on="0"/>
        <pt x="237" y="314" on="1"/>
        <pt x="422" y="326" on="1"/>
        <pt x="422" y="426" on="1"/>
        <pt x="422" y="527" on="0"/>
        <pt x="294" y="527" on="1"/>
        <pt x="209" y="527" on="0"/>
        <pt x="152" y="469" on="0"/>
        <pt x="148" y="407" on="1"/>
        <pt x="89" y="410" on="1"/>
        <pt x="92" y="453" on="0"/>
        <pt x="111" y="511" on="0"/>
        <pt x="132" y="536" on="1"/>
        <pt x="174" y="586" on="0"/>
        <pt x="294" y="586" on="1"/>
        <pt x="492" y="586" on="0"/>
        <pt x="492" y="426" on="1"/>
        <pt x="492" y="50" on="1"/>
        <pt x="552" y="50" on="1"/>
        <pt x="552" y="0" on="1"/>
        <pt x="445" y="0" on="1"/>
      </contour>
      <contour>
        <pt x="243" y="43" on="1"/>
        <pt x="340" y="43" on="0"/>
        <pt x="422" y="121" on="1"/>
        <pt x="422" y="272" on="1"/>
        <pt x="241" y="261" on="1"/>
        <pt x="177" y="257" on="0"/>
        <pt x="132" y="210" on="0"/>
        <pt x="132" y="92" on="0"/>
        <pt x="182" y="43" on="0"/>
      </contour>
      <contour>
        <pt x="272" y="624" on="1"/>
        <pt x="230" y="666" on="1"/>
        <pt x="391" y="827" on="1"/>
        <pt x="444" y="774" on="1"/>
      </contour>
    </TTGlyph>
    <TTGlyph name="acircumflex" xMin="64" yMin="-14" xMax="552" yMax="821">
      <contour>
        <pt x="427" y="65" on="1"/>
        <pt x="339" y="-14" on="0"/>
        <pt x="139" y="-14" on="0"/>
        <pt x="64" y="66" on="0"/>
        <pt x="64" y="231" on="0"/>
        <pt x="136" y="307" on="0"/>
        <pt x="237" y="314" on="1"/>
        <pt x="422" y="326" on="1"/>
        <pt x="422" y="426" on="1"/>
        <pt x="422" y="527" on="0"/>
        <pt x="294" y="527" on="1"/>
        <pt x="209" y="527" on="0"/>
        <pt x="152" y="469" on="0"/>
        <pt x="148" y="407" on="1"/>
        <pt x="89" y="410" on="1"/>
        <pt x="92" y="453" on="0"/>
        <pt x="111" y="511" on="0"/>
        <pt x="132" y="536" on="1"/>
        <pt x="174" y="586" on="0"/>
        <pt x="294" y="586" on="1"/>
        <pt x="492" y="586" on="0"/>
        <pt x="492" y="426" on="1"/>
        <pt x="492" y="50" on="1"/>
        <pt x="552" y="50" on="1"/>
        <pt x="552" y="0" on="1"/>
        <pt x="445" y="0" on="1"/>
      </contour>
      <contour>
        <pt x="243" y="43" on="1"/>
        <pt x="340" y="43" on="0"/>
        <pt x="422" y="121" on="1"/>
        <pt x="422" y="272" on="1"/>
        <pt x="241" y="261" on="1"/>
        <pt x="177" y="257" on="0"/>
        <pt x="132" y="210" on="0"/>
        <pt x="132" y="92" on="0"/>
        <pt x="182" y="43" on="0"/>
      </contour>
      <contour>
        <pt x="183" y="624" on="1"/>
        <pt x="141" y="666" on="1"/>
        <pt x="277" y="821" on="1"/>
        <pt x="306" y="821" on="1"/>
        <pt x="442" y="666" on="1"/>
        <pt x="400" y="624" on="1"/>
        <pt x="291" y="734" on="1"/>
      </contour>
    </TTGlyph>
    <TTGlyph name="acute" xMin="50" yMin="624" xMax="264" yMax="827">
      <contour>
        <pt x="92" y="624" on="1"/>
        <pt x="50" y="666" on="1"/>
        <pt x="211" y="827" on="1"/>
        <pt x="264" y="774" on="1"/>
      </contour>
    </TTGlyph>
    <TTGlyph name="adieresis" xMin="64" yMin="-14" xMax="552" yMax="779">
      <contour>
        <pt x="427" y="65" on="1"/>
        <pt x="339" y="-14" on="0"/>
        <pt x="139" y="-14" on="0"/>
        <pt x="64" y="66" on="0"/>
        <pt x="64" y="231" on="0"/>
        <pt x="136" y="307" on="0"/>
        <pt x="237" y="314" on="1"/>
        <pt x="422" y="326" on="1"/>
        <pt x="422" y="426" on="1"/>
        <pt x="422" y="527" on="0"/>
        <pt x="294" y="527" on="1"/>
        <pt x="209" y="527" on="0"/>
        <pt x="152" y="469" on="0"/>
        <pt x="148" y="407" on="1"/>
        <pt x="89" y="410" on="1"/>
        <pt x="92" y="453" on="0"/>
        <pt x="111" y="511" on="0"/>
        <pt x="132" y="536" on="1"/>
        <pt x="174" y="586" on="0"/>
        <pt x="294" y="586" on="1"/>
        <pt x="492" y="586" on="0"/>
        <pt x="492" y="426" on="1"/>
        <pt x="492" y="50" on="1"/>
        <pt x="552" y="50" on="1"/>
        <pt x="552" y="0" on="1"/>
        <pt x="445" y="0" on="1"/>
      </contour>
      <contour>
        <pt x="243" y="43" on="1"/>
        <pt x="340" y="43" on="0"/>
        <pt x="422" y="121" on="1"/>
        <pt x="422" y="272" on="1"/>
        <pt x="241" y="261" on="1"/>
        <pt x="177" y="257" on="0"/>
        <pt x="132" y="210" on="0"/>
        <pt x="132" y="92" on="0"/>
        <pt x="182" y="43" on="0"/>
      </contour>
      <contour>
        <pt x="233" y="690" on="0"/>
        <pt x="212" y="672" on="0"/>
        <pt x="173" y="672" on="0"/>
        <pt x="153" y="690" on="0"/>
        <pt x="149" y="709" on="0"/>
        <pt x="149" y="742" on="0"/>
        <pt x="153" y="761" on="0"/>
        <pt x="173" y="779" on="0"/>
        <pt x="221" y="779" on="0"/>
        <pt x="237" y="751" on="0"/>
        <pt x="237" y="709" on="0"/>
      </contour>
      <contour>
        <pt x="443" y="690" on="0"/>
        <pt x="422" y="672" on="0"/>
        <pt x="383" y="672" on="0"/>
        <pt x="363" y="690" on="0"/>
        <pt x="359" y="709" on="0"/>
        <pt x="359" y="742" on="0"/>
        <pt x="363" y="761" on="0"/>
        <pt x="383" y="779" on="0"/>
        <pt x="431" y="779" on="0"/>
        <pt x="447" y="751" on="0"/>
        <pt x="447" y="709" on="0"/>
      </contour>
    </TTGlyph>
    <TTGlyph name="ae" xMin="64" yMin="-14" xMax="870" yMax="586">
      <contour>
        <pt x="641" y="-14" on="1"/>
        <pt x="491" y="-14" on="0"/>
        <pt x="440" y="75" on="1"/>
        <pt x="401" y="35" on="0"/>
        <pt x="291" y="-14" on="0"/>
        <pt x="233" y="-14" on="1"/>
        <pt x="139" y="-14" on="0"/>
        <pt x="64" y="66" on="0"/>
        <pt x="64" y="231" on="0"/>
        <pt x="136" y="307" on="0"/>
        <pt x="237" y="314" on="1"/>
        <pt x="402" y="324" on="1"/>
        <pt x="406" y="404" on="0"/>
        <pt x="420" y="448" on="1"/>
        <pt x="407" y="527" on="0"/>
        <pt x="294" y="527" on="1"/>
        <pt x="209" y="527" on="0"/>
        <pt x="152" y="469" on="0"/>
        <pt x="148" y="407" on="1"/>
        <pt x="89" y="410" on="1"/>
        <pt x="92" y="453" on="0"/>
        <pt x="111" y="511" on="0"/>
        <pt x="132" y="536" on="1"/>
        <pt x="174" y="586" on="0"/>
        <pt x="418" y="586" on="0"/>
        <pt x="462" y="524" on="1"/>
        <pt x="519" y="586" on="0"/>
        <pt x="637" y="586" on="1"/>
        <pt x="698" y="586" on="0"/>
        <pt x="785" y="552" on="0"/>
        <pt x="834" y="500" on="0"/>
        <pt x="862" y="416" on="0"/>
        <pt x="870" y="339" on="0"/>
        <pt x="870" y="286" on="1"/>
        <pt x="870" y="270" on="1"/>
        <pt x="472" y="270" on="1"/>
        <pt x="473" y="148" on="0"/>
        <pt x="540" y="45" on="0"/>
        <pt x="729" y="45" on="0"/>
        <pt x="797" y="114" on="0"/>
        <pt x="803" y="180" on="1"/>
        <pt x="861" y="177" on="1"/>
        <pt x="857" y="134" on="0"/>
        <pt x="837" y="73" on="0"/>
        <pt x="814" y="44" on="1"/>
        <pt x="768" y="-14" on="0"/>
      </contour>
      <contour>
        <pt x="636" y="527" on="1"/>
        <pt x="586" y="527" on="0"/>
        <pt x="519" y="495" on="0"/>
        <pt x="502" y="464" on="1"/>
        <pt x="474" y="412" on="0"/>
        <pt x="472" y="325" on="1"/>
        <pt x="799" y="325" on="1"/>
        <pt x="797" y="415" on="0"/>
        <pt x="770" y="466" on="1"/>
        <pt x="738" y="527" on="0"/>
      </contour>
      <contour>
        <pt x="243" y="43" on="1"/>
        <pt x="340" y="43" on="0"/>
        <pt x="421" y="120" on="1"/>
        <pt x="402" y="180" on="0"/>
        <pt x="402" y="271" on="1"/>
        <pt x="241" y="261" on="1"/>
        <pt x="177" y="257" on="0"/>
        <pt x="132" y="210" on="0"/>
        <pt x="132" y="92" on="0"/>
        <pt x="182" y="43" on="0"/>
      </contour>
    </TTGlyph>
    <TTGlyph name="agrave" xMin="64" yMin="-14" xMax="552" yMax="827">
      <contour>
        <pt x="427" y="65" on="1"/>
        <pt x="339" y="-14" on="0"/>
        <pt x="139" y="-14" on="0"/>
        <pt x="64" y="66" on="0"/>
        <pt x="64" y="231" on="0"/>
        <pt x="136" y="307" on="0"/>
        <pt x="237" y="314" on="1"/>
        <pt x="422" y="326" on="1"/>
        <pt x="422" y="426" on="1"/>
        <pt x="422" y="527" on="0"/>
        <pt x="294" y="527" on="1"/>
        <pt x="209" y="527" on="0"/>
        <pt x="152" y="469" on="0"/>
        <pt x="148" y="407" on="1"/>
        <pt x="89" y="410" on="1"/>
        <pt x="92" y="453" on="0"/>
        <pt x="111" y="511" on="0"/>
        <pt x="132" y="536" on="1"/>
        <pt x="174" y="586" on="0"/>
        <pt x="294" y="586" on="1"/>
        <pt x="492" y="586" on="0"/>
        <pt x="492" y="426" on="1"/>
        <pt x="492" y="50" on="1"/>
        <pt x="552" y="50" on="1"/>
        <pt x="552" y="0" on="1"/>
        <pt x="445" y="0" on="1"/>
      </contour>
      <contour>
        <pt x="243" y="43" on="1"/>
        <pt x="340" y="43" on="0"/>
        <pt x="422" y="121" on="1"/>
        <pt x="422" y="272" on="1"/>
        <pt x="241" y="261" on="1"/>
        <pt x="177" y="257" on="0"/>
        <pt x="132" y="210" on="0"/>
        <pt x="132" y="92" on="0"/>
        <pt x="182" y="43" on="0"/>
      </contour>
      <contour>
        <pt x="398" y="666" on="1"/>
        <pt x="356" y="624" on="1"/>
        <pt x="184" y="774" on="1"/>
        <pt x="237" y="827" on="1"/>
      </contour>
    </TTGlyph>
    <TTGlyph name="ampersand" xMin="55" yMin="-14" xMax="609" yMax="714">
      <contour>
        <pt x="55" y="182" on="1"/>
        <pt x="55" y="252" on="0"/>
        <pt x="117" y="344" on="0"/>
        <pt x="169" y="364" on="1"/>
        <pt x="125" y="387" on="0"/>
        <pt x="74" y="471" on="0"/>
        <pt x="74" y="525" on="1"/>
        <pt x="74" y="714" on="0"/>
        <pt x="275" y="714" on="1"/>
        <pt x="463" y="714" on="0"/>
        <pt x="463" y="520" on="1"/>
        <pt x="401" y="520" on="1"/>
        <pt x="401" y="655" on="0"/>
        <pt x="276" y="655" on="1"/>
        <pt x="203" y="655" on="0"/>
        <pt x="144" y="587" on="0"/>
        <pt x="144" y="463" on="0"/>
        <pt x="213" y="385" on="0"/>
        <pt x="272" y="385" on="1"/>
        <pt x="609" y="385" on="1"/>
        <pt x="609" y="331" on="1"/>
        <pt x="496" y="331" on="1"/>
        <pt x="496" y="179" on="1"/>
        <pt x="496" y="83" on="0"/>
        <pt x="398" y="-14" on="0"/>
        <pt x="281" y="-14" on="1"/>
        <pt x="55" y="-14" on="0"/>
      </contour>
      <contour>
        <pt x="125" y="178" on="1"/>
        <pt x="125" y="45" on="0"/>
        <pt x="281" y="45" on="1"/>
        <pt x="363" y="45" on="0"/>
        <pt x="434" y="114" on="0"/>
        <pt x="434" y="179" on="1"/>
        <pt x="434" y="331" on="1"/>
        <pt x="263" y="331" on="1"/>
        <pt x="191" y="331" on="0"/>
        <pt x="125" y="248" on="0"/>
      </contour>
    </TTGlyph>
    <TTGlyph name="apple" xMin="100" yMin="-114" xMax="823" yMax="608">
      <contour>
        <pt x="589" y="-89" on="1"/>
        <pt x="566" y="-88" on="1"/>
        <pt x="552" y="-88" on="0"/>
        <pt x="517" y="-112" on="0"/>
        <pt x="508" y="-112" on="1"/>
        <pt x="462" y="-102" on="1"/>
        <pt x="454" y="-102" on="0"/>
        <pt x="423" y="-114" on="0"/>
        <pt x="406" y="-114" on="0"/>
        <pt x="374" y="-89" on="0"/>
        <pt x="361" y="-89" on="1"/>
        <pt x="337" y="-91" on="1"/>
        <pt x="322" y="-91" on="0"/>
        <pt x="304" y="-74" on="1"/>
        <pt x="286" y="-55" on="1"/>
        <pt x="274" y="-49" on="0"/>
        <pt x="248" y="-47" on="0"/>
        <pt x="230" y="-36" on="0"/>
        <pt x="216" y="-1" on="0"/>
        <pt x="205" y="8" on="0"/>
        <pt x="177" y="19" on="0"/>
        <pt x="171" y="28" on="1"/>
        <pt x="166" y="37" on="0"/>
        <pt x="162" y="66" on="0"/>
        <pt x="154" y="79" on="0"/>
        <pt x="144" y="86" on="1"/>
        <pt x="122" y="104" on="0"/>
        <pt x="122" y="124" on="1"/>
        <pt x="125" y="149" on="1"/>
        <pt x="125" y="158" on="0"/>
        <pt x="100" y="193" on="0"/>
        <pt x="100" y="211" on="0"/>
        <pt x="112" y="240" on="0"/>
        <pt x="112" y="257" on="0"/>
        <pt x="100" y="283" on="0"/>
        <pt x="100" y="301" on="0"/>
        <pt x="125" y="342" on="0"/>
        <pt x="125" y="351" on="1"/>
        <pt x="124" y="376" on="1"/>
        <pt x="124" y="391" on="0"/>
        <pt x="157" y="420" on="0"/>
        <pt x="162" y="430" on="0"/>
        <pt x="166" y="462" on="0"/>
        <pt x="174" y="474" on="0"/>
        <pt x="205" y="486" on="0"/>
        <pt x="215" y="496" on="0"/>
        <pt x="229" y="527" on="0"/>
        <pt x="242" y="538" on="0"/>
        <pt x="280" y="546" on="0"/>
        <pt x="291" y="552" on="0"/>
        <pt x="321" y="586" on="0"/>
        <pt x="335" y="587" on="1"/>
        <pt x="361" y="585" on="1"/>
        <pt x="374" y="585" on="0"/>
        <pt x="405" y="608" on="0"/>
        <pt x="416" y="608" on="1"/>
        <pt x="460" y="596" on="1"/>
        <pt x="505" y="608" on="1"/>
        <pt x="518" y="608" on="0"/>
        <pt x="550" y="583" on="0"/>
        <pt x="562" y="583" on="1"/>
        <pt x="590" y="586" on="1"/>
        <pt x="606" y="586" on="0"/>
        <pt x="632" y="553" on="0"/>
        <pt x="645" y="546" on="0"/>
        <pt x="675" y="540" on="0"/>
        <pt x="690" y="530" on="0"/>
        <pt x="700" y="502" on="0"/>
        <pt x="711" y="492" on="0"/>
        <pt x="751" y="471" on="0"/>
        <pt x="760" y="455" on="0"/>
        <pt x="761" y="423" on="0"/>
        <pt x="766" y="414" on="0"/>
        <pt x="800" y="385" on="0"/>
        <pt x="800" y="369" on="1"/>
        <pt x="799" y="344" on="1"/>
        <pt x="799" y="331" on="0"/>
        <pt x="823" y="294" on="0"/>
        <pt x="823" y="276" on="0"/>
        <pt x="812" y="250" on="0"/>
        <pt x="812" y="236" on="0"/>
        <pt x="823" y="207" on="0"/>
        <pt x="822" y="191" on="0"/>
        <pt x="798" y="166" on="0"/>
        <pt x="798" y="152" on="1"/>
        <pt x="800" y="120" on="1"/>
        <pt x="800" y="104" on="0"/>
        <pt x="768" y="78" on="0"/>
        <pt x="763" y="68" on="0"/>
        <pt x="754" y="30" on="0"/>
        <pt x="743" y="17" on="0"/>
        <pt x="718" y="6" on="0"/>
        <pt x="708" y="-4" on="0"/>
        <pt x="690" y="-37" on="0"/>
        <pt x="676" y="-47" on="0"/>
        <pt x="641" y="-56" on="0"/>
        <pt x="631" y="-62" on="0"/>
        <pt x="604" y="-89" on="0"/>
      </contour>
      <contour>
        <pt x="462" y="-6" on="1"/>
        <pt x="495" y="-13" on="1"/>
        <pt x="501" y="-13" on="0"/>
        <pt x="512" y="-6" on="1"/>
        <pt x="527" y="4" on="0"/>
        <pt x="539" y="4" on="1"/>
        <pt x="554" y="3" on="1"/>
        <pt x="566" y="3" on="0"/>
        <pt x="584" y="23" on="0"/>
        <pt x="591" y="27" on="0"/>
        <pt x="617" y="34" on="0"/>
        <pt x="628" y="42" on="0"/>
        <pt x="641" y="65" on="0"/>
        <pt x="648" y="72" on="0"/>
        <pt x="666" y="80" on="0"/>
        <pt x="674" y="89" on="0"/>
        <pt x="680" y="117" on="0"/>
        <pt x="685" y="125" on="0"/>
        <pt x="707" y="143" on="0"/>
        <pt x="707" y="157" on="1"/>
        <pt x="706" y="177" on="1"/>
        <pt x="706" y="188" on="0"/>
        <pt x="723" y="207" on="0"/>
        <pt x="724" y="213" on="1"/>
        <pt x="716" y="245" on="1"/>
        <pt x="724" y="273" on="1"/>
        <pt x="724" y="281" on="0"/>
        <pt x="706" y="309" on="0"/>
        <pt x="706" y="318" on="1"/>
        <pt x="707" y="335" on="1"/>
        <pt x="707" y="347" on="0"/>
        <pt x="683" y="367" on="0"/>
        <pt x="679" y="375" on="0"/>
        <pt x="678" y="398" on="0"/>
        <pt x="672" y="409" on="0"/>
        <pt x="643" y="424" on="0"/>
        <pt x="635" y="432" on="0"/>
        <pt x="627" y="452" on="0"/>
        <pt x="617" y="460" on="0"/>
        <pt x="595" y="464" on="0"/>
        <pt x="585" y="469" on="0"/>
        <pt x="567" y="493" on="0"/>
        <pt x="555" y="493" on="1"/>
        <pt x="535" y="491" on="1"/>
        <pt x="526" y="491" on="0"/>
        <pt x="504" y="509" on="0"/>
        <pt x="494" y="509" on="1"/>
        <pt x="461" y="500" on="1"/>
        <pt x="429" y="509" on="1"/>
        <pt x="421" y="509" on="0"/>
        <pt x="397" y="492" on="0"/>
        <pt x="387" y="492" on="1"/>
        <pt x="370" y="493" on="1"/>
        <pt x="359" y="493" on="0"/>
        <pt x="338" y="468" on="0"/>
        <pt x="329" y="463" on="0"/>
        <pt x="303" y="458" on="0"/>
        <pt x="293" y="450" on="0"/>
        <pt x="283" y="428" on="0"/>
        <pt x="275" y="420" on="0"/>
        <pt x="254" y="412" on="0"/>
        <pt x="250" y="407" on="1"/>
        <pt x="248" y="403" on="0"/>
        <pt x="244" y="380" on="0"/>
        <pt x="240" y="372" on="0"/>
        <pt x="216" y="351" on="0"/>
        <pt x="216" y="340" on="1"/>
        <pt x="217" y="324" on="1"/>
        <pt x="217" y="316" on="0"/>
        <pt x="200" y="286" on="0"/>
        <pt x="200" y="278" on="1"/>
        <pt x="208" y="248" on="1"/>
        <pt x="200" y="215" on="1"/>
        <pt x="200" y="207" on="0"/>
        <pt x="217" y="182" on="0"/>
        <pt x="217" y="174" on="1"/>
        <pt x="215" y="158" on="1"/>
        <pt x="215" y="147" on="0"/>
        <pt x="240" y="124" on="0"/>
        <pt x="244" y="116" on="0"/>
        <pt x="247" y="95" on="0"/>
        <pt x="255" y="82" on="0"/>
        <pt x="275" y="74" on="0"/>
        <pt x="283" y="67" on="0"/>
        <pt x="294" y="41" on="0"/>
        <pt x="306" y="33" on="0"/>
        <pt x="325" y="33" on="0"/>
        <pt x="337" y="27" on="0"/>
        <pt x="360" y="2" on="0"/>
        <pt x="371" y="2" on="1"/>
        <pt x="386" y="3" on="1"/>
        <pt x="396" y="3" on="0"/>
        <pt x="420" y="-14" on="0"/>
        <pt x="426" y="-15" on="1"/>
      </contour>
      <contour>
        <pt x="392" y="417" on="0"/>
        <pt x="532" y="417" on="0"/>
        <pt x="632" y="318" on="0"/>
        <pt x="632" y="176" on="0"/>
        <pt x="532" y="77" on="0"/>
        <pt x="392" y="77" on="0"/>
        <pt x="292" y="176" on="0"/>
        <pt x="292" y="318" on="0"/>
      </contour>
      <contour>
        <pt x="505" y="292" on="1"/>
        <pt x="557" y="292" on="1"/>
        <pt x="557" y="360" on="1"/>
        <pt x="366" y="360" on="1"/>
        <pt x="366" y="292" on="1"/>
        <pt x="420" y="292" on="1"/>
        <pt x="420" y="117" on="1"/>
        <pt x="505" y="117" on="1"/>
      </contour>
    </TTGlyph>
    <TTGlyph name="approxequal" xMin="94" yMin="166" xMax="486" yMax="467">
      <contour>
        <pt x="94" y="448" on="1"/>
        <pt x="128" y="424" on="0"/>
        <pt x="213" y="424" on="0"/>
        <pt x="366" y="467" on="0"/>
        <pt x="449" y="467" on="0"/>
        <pt x="486" y="448" on="1"/>
        <pt x="486" y="388" on="1"/>
        <pt x="448" y="409" on="0"/>
        <pt x="366" y="409" on="0"/>
        <pt x="213" y="366" on="0"/>
        <pt x="131" y="366" on="0"/>
        <pt x="94" y="388" on="1"/>
      </contour>
      <contour>
        <pt x="94" y="248" on="1"/>
        <pt x="128" y="224" on="0"/>
        <pt x="213" y="224" on="0"/>
        <pt x="366" y="267" on="0"/>
        <pt x="449" y="267" on="0"/>
        <pt x="486" y="248" on="1"/>
        <pt x="486" y="188" on="1"/>
        <pt x="448" y="209" on="0"/>
        <pt x="366" y="209" on="0"/>
        <pt x="213" y="166" on="0"/>
        <pt x="131" y="166" on="0"/>
        <pt x="94" y="188" on="1"/>
      </contour>
    </TTGlyph>
    <TTGlyph name="aring" xMin="64" yMin="-14" xMax="552" yMax="823">
      <contour>
        <pt x="427" y="65" on="1"/>
        <pt x="339" y="-14" on="0"/>
        <pt x="139" y="-14" on="0"/>
        <pt x="64" y="66" on="0"/>
        <pt x="64" y="231" on="0"/>
        <pt x="136" y="307" on="0"/>
        <pt x="237" y="314" on="1"/>
        <pt x="422" y="326" on="1"/>
        <pt x="422" y="426" on="1"/>
        <pt x="422" y="527" on="0"/>
        <pt x="294" y="527" on="1"/>
        <pt x="209" y="527" on="0"/>
        <pt x="152" y="469" on="0"/>
        <pt x="148" y="407" on="1"/>
        <pt x="89" y="410" on="1"/>
        <pt x="92" y="453" on="0"/>
        <pt x="111" y="511" on="0"/>
        <pt x="132" y="536" on="1"/>
        <pt x="174" y="586" on="0"/>
        <pt x="294" y="586" on="1"/>
        <pt x="492" y="586" on="0"/>
        <pt x="492" y="426" on="1"/>
        <pt x="492" y="50" on="1"/>
        <pt x="552" y="50" on="1"/>
        <pt x="552" y="0" on="1"/>
        <pt x="445" y="0" on="1"/>
      </contour>
      <contour>
        <pt x="243" y="43" on="1"/>
        <pt x="340" y="43" on="0"/>
        <pt x="422" y="121" on="1"/>
        <pt x="422" y="272" on="1"/>
        <pt x="241" y="261" on="1"/>
        <pt x="177" y="257" on="0"/>
        <pt x="132" y="210" on="0"/>
        <pt x="132" y="92" on="0"/>
        <pt x="182" y="43" on="0"/>
      </contour>
      <contour>
        <pt x="322" y="628" on="0"/>
        <pt x="258" y="628" on="0"/>
        <pt x="218" y="644" on="0"/>
        <pt x="201" y="676" on="0"/>
        <pt x="196" y="704" on="0"/>
        <pt x="196" y="746" on="0"/>
        <pt x="201" y="774" on="0"/>
        <pt x="218" y="807" on="0"/>
        <pt x="258" y="823" on="0"/>
        <pt x="322" y="823" on="0"/>
        <pt x="364" y="807" on="0"/>
        <pt x="381" y="774" on="0"/>
        <pt x="386" y="746" on="0"/>
        <pt x="386" y="704" on="0"/>
        <pt x="381" y="676" on="0"/>
        <pt x="364" y="644" on="0"/>
      </contour>
      <contour>
        <pt x="252" y="689" on="0"/>
        <pt x="271" y="671" on="0"/>
        <pt x="310" y="671" on="0"/>
        <pt x="330" y="689" on="0"/>
        <pt x="334" y="709" on="0"/>
        <pt x="334" y="742" on="0"/>
        <pt x="330" y="761" on="0"/>
        <pt x="310" y="780" on="0"/>
        <pt x="263" y="780" on="0"/>
        <pt x="248" y="751" on="0"/>
        <pt x="248" y="709" on="0"/>
      </contour>
    </TTGlyph>
    <TTGlyph name="asciicircum" xMin="104" yMin="316" xMax="476" yMax="618">
      <contour>
        <pt x="252" y="618" on="1"/>
        <pt x="328" y="618" on="1"/>
        <pt x="476" y="316" on="1"/>
        <pt x="410" y="316" on="1"/>
        <pt x="290" y="567" on="1"/>
        <pt x="170" y="316" on="1"/>
        <pt x="104" y="316" on="1"/>
      </contour>
    </TTGlyph>
    <TTGlyph name="asciitilde" xMin="94" yMin="266" xMax="486" yMax="367">
      <contour>
        <pt x="94" y="348" on="1"/>
        <pt x="128" y="324" on="0"/>
        <pt x="213" y="324" on="0"/>
        <pt x="366" y="367" on="0"/>
        <pt x="449" y="367" on="0"/>
        <pt x="486" y="348" on="1"/>
        <pt x="486" y="288" on="1"/>
        <pt x="448" y="309" on="0"/>
        <pt x="366" y="309" on="0"/>
        <pt x="213" y="266" on="0"/>
        <pt x="131" y="266" on="0"/>
        <pt x="94" y="288" on="1"/>
      </contour>
    </TTGlyph>
    <TTGlyph name="asterisk" xMin="27" yMin="306" xMax="525" yMax="779">
      <contour>
        <pt x="236" y="779" on="1"/>
        <pt x="316" y="779" on="1"/>
        <pt x="316" y="700" on="1"/>
        <pt x="288" y="577" on="1"/>
        <pt x="264" y="577" on="1"/>
        <pt x="236" y="700" on="1"/>
      </contour>
      <contour>
        <pt x="27" y="570" on="1"/>
        <pt x="52" y="645" on="1"/>
        <pt x="127" y="621" on="1"/>
        <pt x="236" y="556" on="1"/>
        <pt x="228" y="534" on="1"/>
        <pt x="102" y="545" on="1"/>
      </contour>
      <contour>
        <pt x="162" y="306" on="1"/>
        <pt x="98" y="353" on="1"/>
        <pt x="144" y="418" on="1"/>
        <pt x="239" y="501" on="1"/>
        <pt x="258" y="486" on="1"/>
        <pt x="209" y="370" on="1"/>
      </contour>
      <contour>
        <pt x="454" y="353" on="1"/>
        <pt x="390" y="306" on="1"/>
        <pt x="343" y="370" on="1"/>
        <pt x="293" y="486" on="1"/>
        <pt x="313" y="500" on="1"/>
        <pt x="408" y="418" on="1"/>
      </contour>
      <contour>
        <pt x="500" y="645" on="1"/>
        <pt x="525" y="570" on="1"/>
        <pt x="450" y="545" on="1"/>
        <pt x="324" y="533" on="1"/>
        <pt x="317" y="556" on="1"/>
        <pt x="424" y="621" on="1"/>
      </contour>
    </TTGlyph>
    <TTGlyph name="at" xMin="90" yMin="-89" xMax="890" yMax="745">
      <contour>
        <pt x="584" y="159" on="1"/>
        <pt x="519" y="106" on="0"/>
        <pt x="364" y="106" on="0"/>
        <pt x="303" y="170" on="0"/>
        <pt x="303" y="302" on="0"/>
        <pt x="362" y="365" on="0"/>
        <pt x="444" y="370" on="1"/>
        <pt x="584" y="378" on="1"/>
        <pt x="584" y="456" on="1"/>
        <pt x="584" y="497" on="0"/>
        <pt x="537" y="531" on="0"/>
        <pt x="426" y="531" on="0"/>
        <pt x="384" y="488" on="0"/>
        <pt x="381" y="440" on="1"/>
        <pt x="323" y="442" on="1"/>
        <pt x="328" y="514" on="0"/>
        <pt x="398" y="586" on="0"/>
        <pt x="490" y="586" on="1"/>
        <pt x="648" y="586" on="0"/>
        <pt x="648" y="458" on="1"/>
        <pt x="648" y="-20" on="1"/>
        <pt x="752" y="4" on="0"/>
        <pt x="788" y="98" on="1"/>
        <pt x="820" y="183" on="0"/>
        <pt x="820" y="328" on="1"/>
        <pt x="820" y="405" on="0"/>
        <pt x="804" y="512" on="0"/>
        <pt x="762" y="605" on="0"/>
        <pt x="689" y="660" on="0"/>
        <pt x="572" y="690" on="0"/>
        <pt x="408" y="690" on="0"/>
        <pt x="291" y="660" on="0"/>
        <pt x="217" y="605" on="0"/>
        <pt x="175" y="512" on="0"/>
        <pt x="160" y="405" on="0"/>
        <pt x="160" y="251" on="0"/>
        <pt x="175" y="144" on="0"/>
        <pt x="217" y="51" on="0"/>
        <pt x="254" y="24" on="1"/>
        <pt x="331" y="-34" on="0"/>
        <pt x="490" y="-34" on="1"/>
        <pt x="490" y="-89" on="1"/>
        <pt x="371" y="-89" on="0"/>
        <pt x="214" y="-38" on="0"/>
        <pt x="125" y="72" on="0"/>
        <pt x="90" y="219" on="0"/>
        <pt x="90" y="437" on="0"/>
        <pt x="125" y="584" on="0"/>
        <pt x="214" y="694" on="0"/>
        <pt x="371" y="745" on="0"/>
        <pt x="609" y="745" on="0"/>
        <pt x="766" y="694" on="0"/>
        <pt x="855" y="584" on="0"/>
        <pt x="890" y="437" on="0"/>
        <pt x="890" y="328" on="1"/>
        <pt x="890" y="131" on="0"/>
        <pt x="757" y="-68" on="0"/>
        <pt x="584" y="-87" on="1"/>
      </contour>
      <contour>
        <pt x="452" y="158" on="1"/>
        <pt x="523" y="158" on="0"/>
        <pt x="584" y="214" on="1"/>
        <pt x="584" y="332" on="1"/>
        <pt x="452" y="324" on="1"/>
        <pt x="403" y="321" on="0"/>
        <pt x="368" y="284" on="0"/>
        <pt x="368" y="195" on="0"/>
        <pt x="406" y="158" on="0"/>
      </contour>
    </TTGlyph>
    <TTGlyph name="atilde" xMin="64" yMin="-14" xMax="552" yMax="786">
      <contour>
        <pt x="427" y="65" on="1"/>
        <pt x="339" y="-14" on="0"/>
        <pt x="139" y="-14" on="0"/>
        <pt x="64" y="66" on="0"/>
        <pt x="64" y="231" on="0"/>
        <pt x="136" y="307" on="0"/>
        <pt x="237" y="314" on="1"/>
        <pt x="422" y="326" on="1"/>
        <pt x="422" y="426" on="1"/>
        <pt x="422" y="527" on="0"/>
        <pt x="294" y="527" on="1"/>
        <pt x="209" y="527" on="0"/>
        <pt x="152" y="469" on="0"/>
        <pt x="148" y="407" on="1"/>
        <pt x="89" y="410" on="1"/>
        <pt x="92" y="453" on="0"/>
        <pt x="111" y="511" on="0"/>
        <pt x="132" y="536" on="1"/>
        <pt x="174" y="586" on="0"/>
        <pt x="294" y="586" on="1"/>
        <pt x="492" y="586" on="0"/>
        <pt x="492" y="426" on="1"/>
        <pt x="492" y="50" on="1"/>
        <pt x="552" y="50" on="1"/>
        <pt x="552" y="0" on="1"/>
        <pt x="445" y="0" on="1"/>
      </contour>
      <contour>
        <pt x="243" y="43" on="1"/>
        <pt x="340" y="43" on="0"/>
        <pt x="422" y="121" on="1"/>
        <pt x="422" y="272" on="1"/>
        <pt x="241" y="261" on="1"/>
        <pt x="177" y="257" on="0"/>
        <pt x="132" y="210" on="0"/>
        <pt x="132" y="92" on="0"/>
        <pt x="182" y="43" on="0"/>
      </contour>
      <contour>
        <pt x="364" y="677" on="1"/>
        <pt x="338" y="677" on="0"/>
        <pt x="240" y="713" on="0"/>
        <pt x="209" y="713" on="0"/>
        <pt x="189" y="693" on="0"/>
        <pt x="181" y="669" on="1"/>
        <pt x="130" y="685" on="1"/>
        <pt x="157" y="778" on="0"/>
        <pt x="218" y="778" on="1"/>
        <pt x="244" y="778" on="0"/>
        <pt x="342" y="742" on="0"/>
        <pt x="374" y="742" on="0"/>
        <pt x="394" y="762" on="0"/>
        <pt x="402" y="786" on="1"/>
        <pt x="452" y="770" on="1"/>
        <pt x="425" y="677" on="0"/>
      </contour>
    </TTGlyph>
    <TTGlyph name="b" xMin="40" yMin="-15" xMax="556" yMax="750">
      <contour>
        <pt x="40" y="700" on="1"/>
        <pt x="40" y="750" on="1"/>
        <pt x="170" y="750" on="1"/>
        <pt x="170" y="532" on="1"/>
        <pt x="261" y="586" on="0"/>
        <pt x="346" y="586" on="1"/>
        <pt x="497" y="586" on="0"/>
        <pt x="536" y="458" on="1"/>
        <pt x="556" y="389" on="0"/>
        <pt x="556" y="233" on="0"/>
        <pt x="549" y="156" on="0"/>
        <pt x="523" y="72" on="0"/>
        <pt x="501" y="46" on="1"/>
        <pt x="450" y="-14" on="0"/>
        <pt x="251" y="-14" on="0"/>
        <pt x="161" y="51" on="1"/>
        <pt x="147" y="0" on="1"/>
        <pt x="100" y="0" on="1"/>
        <pt x="100" y="700" on="1"/>
      </contour>
      <contour>
        <pt x="170" y="475" on="1"/>
        <pt x="170" y="102" on="1"/>
        <pt x="245" y="45" on="0"/>
        <pt x="326" y="45" on="1"/>
        <pt x="409" y="45" on="0"/>
        <pt x="446" y="91" on="1"/>
        <pt x="477" y="128" on="0"/>
        <pt x="484" y="210" on="1"/>
        <pt x="486" y="240" on="0"/>
        <pt x="486" y="320" on="0"/>
        <pt x="482" y="371" on="0"/>
        <pt x="472" y="430" on="0"/>
        <pt x="451" y="473" on="0"/>
        <pt x="435" y="491" on="1"/>
        <pt x="403" y="527" on="0"/>
        <pt x="251" y="527" on="0"/>
      </contour>
    </TTGlyph>
    <TTGlyph name="backslash" xMin="0" yMin="-106" xMax="308" yMax="775">
      <contour>
        <pt x="71" y="775" on="1"/>
        <pt x="308" y="-106" on="1"/>
        <pt x="237" y="-106" on="1"/>
        <pt x="0" y="775" on="1"/>
      </contour>
    </TTGlyph>
    <TTGlyph name="bar" xMin="120" yMin="-106" xMax="201" yMax="775">
      <contour>
        <pt x="120" y="-106" on="1"/>
        <pt x="120" y="775" on="1"/>
        <pt x="201" y="775" on="1"/>
        <pt x="201" y="-106" on="1"/>
      </contour>
    </TTGlyph>
    <TTGlyph name="braceleft" xMin="21" yMin="-66" xMax="289" yMax="736">
      <contour>
        <pt x="162" y="526" on="1"/>
        <pt x="170" y="404" on="1"/>
        <pt x="170" y="374" on="0"/>
        <pt x="141" y="338" on="0"/>
        <pt x="121" y="338" on="1"/>
        <pt x="121" y="332" on="1"/>
        <pt x="141" y="332" on="0"/>
        <pt x="170" y="296" on="0"/>
        <pt x="170" y="266" on="1"/>
        <pt x="162" y="144" on="1"/>
        <pt x="162" y="73" on="0"/>
        <pt x="219" y="-4" on="0"/>
        <pt x="289" y="-4" on="1"/>
        <pt x="289" y="-66" on="1"/>
        <pt x="88" y="-66" on="0"/>
        <pt x="88" y="137" on="1"/>
        <pt x="96" y="261" on="1"/>
        <pt x="96" y="288" on="0"/>
        <pt x="49" y="310" on="0"/>
        <pt x="21" y="310" on="1"/>
        <pt x="21" y="360" on="1"/>
        <pt x="49" y="360" on="0"/>
        <pt x="96" y="382" on="0"/>
        <pt x="96" y="409" on="1"/>
        <pt x="96" y="409" on="0"/>
        <pt x="88" y="533" on="1"/>
        <pt x="88" y="736" on="0"/>
        <pt x="289" y="736" on="1"/>
        <pt x="289" y="674" on="1"/>
        <pt x="219" y="674" on="0"/>
        <pt x="162" y="597" on="0"/>
      </contour>
    </TTGlyph>
    <TTGlyph name="braceright" xMin="5" yMin="-66" xMax="273" yMax="736">
      <contour>
        <pt x="132" y="144" on="1"/>
        <pt x="124" y="266" on="1"/>
        <pt x="124" y="296" on="0"/>
        <pt x="153" y="332" on="0"/>
        <pt x="173" y="332" on="1"/>
        <pt x="173" y="338" on="1"/>
        <pt x="153" y="338" on="0"/>
        <pt x="124" y="374" on="0"/>
        <pt x="124" y="404" on="1"/>
        <pt x="132" y="526" on="1"/>
        <pt x="132" y="597" on="0"/>
        <pt x="75" y="674" on="0"/>
        <pt x="5" y="674" on="1"/>
        <pt x="5" y="736" on="1"/>
        <pt x="206" y="736" on="0"/>
        <pt x="206" y="533" on="1"/>
        <pt x="198" y="409" on="1"/>
        <pt x="198" y="382" on="0"/>
        <pt x="245" y="360" on="0"/>
        <pt x="273" y="360" on="1"/>
        <pt x="273" y="310" on="1"/>
        <pt x="245" y="310" on="0"/>
        <pt x="198" y="288" on="0"/>
        <pt x="198" y="261" on="1"/>
        <pt x="198" y="261" on="0"/>
        <pt x="206" y="137" on="1"/>
        <pt x="206" y="-66" on="0"/>
        <pt x="5" y="-66" on="1"/>
        <pt x="5" y="-4" on="1"/>
        <pt x="75" y="-4" on="0"/>
        <pt x="132" y="73" on="0"/>
      </contour>
    </TTGlyph>
    <TTGlyph name="bracketleft" xMin="80" yMin="-66" xMax="279" yMax="735">
      <contour>
        <pt x="80" y="-66" on="1"/>
        <pt x="80" y="735" on="1"/>
        <pt x="279" y="735" on="1"/>
        <pt x="279" y="673" on="1"/>
        <pt x="153" y="673" on="1"/>
        <pt x="153" y="-4" on="1"/>
        <pt x="279" y="-4" on="1"/>
        <pt x="279" y="-66" on="1"/>
      </contour>
    </TTGlyph>
    <TTGlyph name="bracketright" xMin="5" yMin="-66" xMax="204" yMax="735">
      <contour>
        <pt x="204" y="735" on="1"/>
        <pt x="204" y="-66" on="1"/>
        <pt x="5" y="-66" on="1"/>
        <pt x="5" y="-4" on="1"/>
        <pt x="131" y="-4" on="1"/>
        <pt x="131" y="673" on="1"/>
        <pt x="5" y="673" on="1"/>
        <pt x="5" y="735" on="1"/>
      </contour>
    </TTGlyph>
    <TTGlyph name="breve" xMin="87" yMin="644" xMax="338" yMax="779">
      <contour>
        <pt x="282" y="779" on="1"/>
        <pt x="338" y="779" on="1"/>
        <pt x="338" y="701" on="0"/>
        <pt x="305" y="671" on="1"/>
        <pt x="276" y="644" on="0"/>
        <pt x="172" y="644" on="0"/>
        <pt x="119" y="665" on="0"/>
        <pt x="107" y="686" on="1"/>
        <pt x="87" y="721" on="0"/>
        <pt x="87" y="779" on="1"/>
        <pt x="142" y="779" on="1"/>
        <pt x="142" y="755" on="0"/>
        <pt x="148" y="728" on="0"/>
        <pt x="181" y="705" on="0"/>
        <pt x="243" y="705" on="0"/>
        <pt x="276" y="728" on="0"/>
        <pt x="282" y="755" on="0"/>
      </contour>
    </TTGlyph>
    <TTGlyph name="brokenbar" xMin="120" yMin="-106" xMax="201" yMax="775">
      <contour>
        <pt x="120" y="445" on="1"/>
        <pt x="120" y="775" on="1"/>
        <pt x="201" y="775" on="1"/>
        <pt x="201" y="445" on="1"/>
      </contour>
      <contour>
        <pt x="120" y="-106" on="1"/>
        <pt x="120" y="224" on="1"/>
        <pt x="201" y="224" on="1"/>
        <pt x="201" y="-106" on="1"/>
      </contour>
    </TTGlyph>
    <TTGlyph name="bullet" xMin="60" yMin="246" xMax="204" yMax="421">
      <contour>
        <pt x="187" y="260" on="0"/>
        <pt x="156" y="246" on="0"/>
        <pt x="107" y="246" on="0"/>
        <pt x="77" y="261" on="0"/>
        <pt x="70" y="275" on="1"/>
        <pt x="60" y="298" on="0"/>
        <pt x="60" y="359" on="0"/>
        <pt x="67" y="392" on="0"/>
        <pt x="100" y="421" on="0"/>
        <pt x="156" y="421" on="0"/>
        <pt x="187" y="407" on="0"/>
        <pt x="200" y="378" on="0"/>
        <pt x="204" y="352" on="0"/>
        <pt x="204" y="314" on="0"/>
        <pt x="200" y="289" on="0"/>
      </contour>
    </TTGlyph>
    <TTGlyph name="c" xMin="60" yMin="-14" xMax="504" yMax="586">
      <contour>
        <pt x="498" y="572" on="1"/>
        <pt x="498" y="370" on="1"/>
        <pt x="452" y="370" on="1"/>
        <pt x="443" y="449" on="0"/>
        <pt x="367" y="527" on="0"/>
        <pt x="289" y="527" on="1"/>
        <pt x="246" y="527" on="0"/>
        <pt x="185" y="497" on="0"/>
        <pt x="153" y="454" on="0"/>
        <pt x="144" y="419" on="1"/>
        <pt x="130" y="369" on="0"/>
        <pt x="130" y="251" on="0"/>
        <pt x="133" y="203" on="0"/>
        <pt x="143" y="141" on="0"/>
        <pt x="165" y="101" on="0"/>
        <pt x="182" y="82" on="1"/>
        <pt x="217" y="45" on="0"/>
        <pt x="382" y="45" on="0"/>
        <pt x="443" y="103" on="0"/>
        <pt x="447" y="165" on="1"/>
        <pt x="504" y="162" on="1"/>
        <pt x="501" y="119" on="0"/>
        <pt x="482" y="61" on="0"/>
        <pt x="438" y="10" on="0"/>
        <pt x="356" y="-14" on="0"/>
        <pt x="234" y="-14" on="0"/>
        <pt x="145" y="20" on="0"/>
        <pt x="96" y="72" on="0"/>
        <pt x="68" y="156" on="0"/>
        <pt x="60" y="233" on="0"/>
        <pt x="60" y="339" on="0"/>
        <pt x="69" y="419" on="0"/>
        <pt x="98" y="501" on="0"/>
        <pt x="122" y="527" on="1"/>
        <pt x="178" y="586" on="0"/>
        <pt x="398" y="586" on="0"/>
        <pt x="448" y="510" on="1"/>
        <pt x="447" y="572" on="1"/>
      </contour>
    </TTGlyph>
    <TTGlyph name="caron" xMin="35" yMin="630" xMax="336" yMax="827">
      <contour>
        <pt x="294" y="827" on="1"/>
        <pt x="336" y="785" on="1"/>
        <pt x="200" y="630" on="1"/>
        <pt x="171" y="630" on="1"/>
        <pt x="35" y="785" on="1"/>
        <pt x="77" y="827" on="1"/>
        <pt x="186" y="717" on="1"/>
      </contour>
    </TTGlyph>
    <TTGlyph name="ccedilla" xMin="60" yMin="-241" xMax="504" yMax="586">
      <contour>
        <pt x="498" y="572" on="1"/>
        <pt x="498" y="370" on="1"/>
        <pt x="452" y="370" on="1"/>
        <pt x="443" y="449" on="0"/>
        <pt x="367" y="527" on="0"/>
        <pt x="289" y="527" on="1"/>
        <pt x="246" y="527" on="0"/>
        <pt x="185" y="497" on="0"/>
        <pt x="153" y="454" on="0"/>
        <pt x="144" y="419" on="1"/>
        <pt x="130" y="369" on="0"/>
        <pt x="130" y="251" on="0"/>
        <pt x="133" y="203" on="0"/>
        <pt x="143" y="141" on="0"/>
        <pt x="165" y="101" on="0"/>
        <pt x="182" y="82" on="1"/>
        <pt x="217" y="45" on="0"/>
        <pt x="382" y="45" on="0"/>
        <pt x="443" y="103" on="0"/>
        <pt x="447" y="165" on="1"/>
        <pt x="504" y="162" on="1"/>
        <pt x="501" y="119" on="0"/>
        <pt x="482" y="61" on="0"/>
        <pt x="438" y="10" on="0"/>
        <pt x="356" y="-14" on="0"/>
        <pt x="234" y="-14" on="0"/>
        <pt x="145" y="20" on="0"/>
        <pt x="96" y="72" on="0"/>
        <pt x="68" y="156" on="0"/>
        <pt x="60" y="233" on="0"/>
        <pt x="60" y="339" on="0"/>
        <pt x="69" y="419" on="0"/>
        <pt x="98" y="501" on="0"/>
        <pt x="122" y="527" on="1"/>
        <pt x="178" y="586" on="0"/>
        <pt x="398" y="586" on="0"/>
        <pt x="448" y="510" on="1"/>
        <pt x="447" y="572" on="1"/>
      </contour>
      <contour>
        <pt x="181" y="-146" on="1"/>
        <pt x="231" y="-146" on="1"/>
        <pt x="231" y="-168" on="0"/>
        <pt x="252" y="-191" on="0"/>
        <pt x="308" y="-191" on="0"/>
        <pt x="330" y="-168" on="0"/>
        <pt x="330" y="-145" on="1"/>
        <pt x="330" y="-105" on="0"/>
        <pt x="278" y="-96" on="1"/>
        <pt x="225" y="-86" on="1"/>
        <pt x="225" y="-50" on="1"/>
        <pt x="284" y="-50" on="1"/>
        <pt x="329" y="-50" on="0"/>
        <pt x="380" y="-92" on="0"/>
        <pt x="380" y="-193" on="0"/>
        <pt x="337" y="-241" on="0"/>
        <pt x="224" y="-241" on="0"/>
        <pt x="181" y="-193" on="0"/>
      </contour>
    </TTGlyph>
    <TTGlyph name="cedilla" xMin="50" yMin="-241" xMax="249" yMax="-50">
      <contour>
        <pt x="50" y="-146" on="1"/>
        <pt x="100" y="-146" on="1"/>
        <pt x="100" y="-168" on="0"/>
        <pt x="121" y="-191" on="0"/>
        <pt x="177" y="-191" on="0"/>
        <pt x="199" y="-168" on="0"/>
        <pt x="199" y="-145" on="1"/>
        <pt x="199" y="-105" on="0"/>
        <pt x="147" y="-96" on="1"/>
        <pt x="94" y="-86" on="1"/>
        <pt x="94" y="-50" on="1"/>
        <pt x="153" y="-50" on="1"/>
        <pt x="198" y="-50" on="0"/>
        <pt x="249" y="-92" on="0"/>
        <pt x="249" y="-193" on="0"/>
        <pt x="206" y="-241" on="0"/>
        <pt x="93" y="-241" on="0"/>
        <pt x="50" y="-193" on="0"/>
      </contour>
    </TTGlyph>
    <TTGlyph name="cent" xMin="84" yMin="-74" xMax="526" yMax="744">
      <contour>
        <pt x="288" y="-74" on="1"/>
        <pt x="288" y="35" on="1"/>
        <pt x="235" y="38" on="0"/>
        <pt x="158" y="75" on="0"/>
        <pt x="115" y="127" on="0"/>
        <pt x="103" y="168" on="1"/>
        <pt x="84" y="233" on="0"/>
        <pt x="84" y="384" on="0"/>
        <pt x="91" y="457" on="0"/>
        <pt x="116" y="537" on="0"/>
        <pt x="158" y="589" on="0"/>
        <pt x="235" y="628" on="0"/>
        <pt x="288" y="633" on="1"/>
        <pt x="288" y="744" on="1"/>
        <pt x="338" y="744" on="1"/>
        <pt x="338" y="635" on="1"/>
        <pt x="432" y="632" on="0"/>
        <pt x="512" y="532" on="0"/>
        <pt x="519" y="446" on="1"/>
        <pt x="456" y="441" on="1"/>
        <pt x="453" y="501" on="0"/>
        <pt x="402" y="568" on="0"/>
        <pt x="338" y="571" on="1"/>
        <pt x="338" y="99" on="1"/>
        <pt x="407" y="104" on="0"/>
        <pt x="461" y="160" on="0"/>
        <pt x="463" y="214" on="1"/>
        <pt x="526" y="209" on="1"/>
        <pt x="519" y="129" on="0"/>
        <pt x="436" y="42" on="0"/>
        <pt x="338" y="36" on="1"/>
        <pt x="338" y="-74" on="1"/>
      </contour>
      <contour>
        <pt x="154" y="283" on="0"/>
        <pt x="161" y="218" on="0"/>
        <pt x="173" y="181" on="1"/>
        <pt x="197" y="108" on="0"/>
        <pt x="288" y="100" on="1"/>
        <pt x="288" y="568" on="1"/>
        <pt x="187" y="554" on="0"/>
        <pt x="164" y="456" on="1"/>
        <pt x="154" y="411" on="0"/>
      </contour>
    </TTGlyph>
    <TTGlyph name="circumflex" xMin="50" yMin="624" xMax="351" yMax="821">
      <contour>
        <pt x="92" y="624" on="1"/>
        <pt x="50" y="666" on="1"/>
        <pt x="186" y="821" on="1"/>
        <pt x="215" y="821" on="1"/>
        <pt x="351" y="666" on="1"/>
        <pt x="309" y="624" on="1"/>
        <pt x="200" y="734" on="1"/>
      </contour>
    </TTGlyph>
    <TTGlyph name="colon" xMin="65" yMin="-9" xMax="161" yMax="530">
      <contour>
        <pt x="65" y="50" on="1"/>
        <pt x="65" y="68" on="0"/>
        <pt x="69" y="89" on="0"/>
        <pt x="91" y="109" on="0"/>
        <pt x="143" y="109" on="0"/>
        <pt x="161" y="77" on="0"/>
        <pt x="161" y="38" on="0"/>
        <pt x="158" y="21" on="0"/>
        <pt x="154" y="12" on="1"/>
        <pt x="144" y="-8" on="0"/>
        <pt x="65" y="-8" on="0"/>
      </contour>
      <contour>
        <pt x="65" y="471" on="1"/>
        <pt x="65" y="489" on="0"/>
        <pt x="69" y="510" on="0"/>
        <pt x="91" y="530" on="0"/>
        <pt x="143" y="530" on="0"/>
        <pt x="161" y="498" on="0"/>
        <pt x="161" y="459" on="0"/>
        <pt x="158" y="442" on="0"/>
        <pt x="154" y="432" on="1"/>
        <pt x="144" y="413" on="0"/>
        <pt x="65" y="413" on="0"/>
      </contour>
    </TTGlyph>
    <TTGlyph name="comma" xMin="38" yMin="-120" xMax="161" yMax="109">
      <contour>
        <pt x="77" y="-14" on="1"/>
        <pt x="65" y="50" on="1"/>
        <pt x="65" y="68" on="0"/>
        <pt x="69" y="89" on="0"/>
        <pt x="91" y="109" on="0"/>
        <pt x="143" y="109" on="0"/>
        <pt x="161" y="77" on="0"/>
        <pt x="161" y="22" on="0"/>
        <pt x="140" y="-34" on="0"/>
        <pt x="126" y="-54" on="1"/>
        <pt x="93" y="-97" on="0"/>
        <pt x="72" y="-112" on="1"/>
        <pt x="61" y="-120" on="1"/>
        <pt x="38" y="-93" on="1"/>
        <pt x="51" y="-81" on="0"/>
        <pt x="58" y="-73" on="1"/>
        <pt x="77" y="-51" on="0"/>
      </contour>
    </TTGlyph>
    <TTGlyph name="copyright" xMin="70" yMin="267" xMax="657" yMax="854">
      <contour>
        <pt x="70" y="402" on="0"/>
        <pt x="70" y="718" on="0"/>
        <pt x="205" y="854" on="0"/>
        <pt x="521" y="854" on="0"/>
        <pt x="657" y="718" on="0"/>
        <pt x="657" y="402" on="0"/>
        <pt x="521" y="267" on="0"/>
        <pt x="205" y="267" on="0"/>
      </contour>
      <contour>
        <pt x="118" y="697" on="0"/>
        <pt x="118" y="423" on="0"/>
        <pt x="226" y="310" on="0"/>
        <pt x="500" y="310" on="0"/>
        <pt x="609" y="424" on="0"/>
        <pt x="609" y="697" on="0"/>
        <pt x="500" y="811" on="0"/>
        <pt x="227" y="811" on="0"/>
      </contour>
      <contour>
        <pt x="362" y="727" on="1"/>
        <pt x="300" y="727" on="0"/>
        <pt x="259" y="648" on="0"/>
        <pt x="259" y="471" on="0"/>
        <pt x="298" y="395" on="0"/>
        <pt x="363" y="395" on="1"/>
        <pt x="446" y="395" on="0"/>
        <pt x="449" y="484" on="1"/>
        <pt x="491" y="482" on="1"/>
        <pt x="487" y="418" on="0"/>
        <pt x="431" y="352" on="0"/>
        <pt x="363" y="352" on="1"/>
        <pt x="268" y="352" on="0"/>
        <pt x="207" y="451" on="0"/>
        <pt x="207" y="669" on="0"/>
        <pt x="271" y="769" on="0"/>
        <pt x="362" y="769" on="1"/>
        <pt x="426" y="769" on="0"/>
        <pt x="484" y="713" on="0"/>
        <pt x="490" y="656" on="1"/>
        <pt x="447" y="653" on="1"/>
        <pt x="443" y="691" on="0"/>
        <pt x="404" y="727" on="0"/>
      </contour>
    </TTGlyph>
    <TTGlyph name="currency" xMin="39" yMin="84" xMax="541" yMax="586">
      <contour>
        <pt x="427" y="163" on="1"/>
        <pt x="377" y="131" on="0"/>
        <pt x="200" y="131" on="0"/>
        <pt x="155" y="165" on="1"/>
        <pt x="74" y="84" on="1"/>
        <pt x="39" y="119" on="1"/>
        <pt x="121" y="201" on="1"/>
        <pt x="96" y="245" on="0"/>
        <pt x="96" y="424" on="0"/>
        <pt x="123" y="467" on="1"/>
        <pt x="39" y="551" on="1"/>
        <pt x="74" y="586" on="1"/>
        <pt x="157" y="503" on="1"/>
        <pt x="208" y="539" on="0"/>
        <pt x="385" y="539" on="0"/>
        <pt x="429" y="509" on="1"/>
        <pt x="506" y="586" on="1"/>
        <pt x="541" y="551" on="1"/>
        <pt x="464" y="474" on="1"/>
        <pt x="494" y="430" on="0"/>
        <pt x="494" y="244" on="0"/>
        <pt x="462" y="197" on="1"/>
        <pt x="541" y="119" on="1"/>
        <pt x="506" y="84" on="1"/>
      </contour>
      <contour>
        <pt x="188" y="214" on="0"/>
        <pt x="243" y="191" on="0"/>
        <pt x="326" y="191" on="0"/>
        <pt x="382" y="208" on="0"/>
        <pt x="412" y="233" on="0"/>
        <pt x="420" y="254" on="1"/>
        <pt x="431" y="283" on="0"/>
        <pt x="431" y="368" on="0"/>
        <pt x="425" y="409" on="0"/>
        <pt x="414" y="432" on="1"/>
        <pt x="390" y="478" on="0"/>
        <pt x="303" y="478" on="1"/>
        <pt x="205" y="478" on="0"/>
        <pt x="179" y="432" on="1"/>
        <pt x="166" y="409" on="0"/>
        <pt x="159" y="368" on="0"/>
        <pt x="159" y="302" on="0"/>
        <pt x="165" y="261" on="0"/>
      </contour>
    </TTGlyph>
    <TTGlyph name="d" xMin="60" yMin="-14" xMax="576" yMax="750">
      <contour>
        <pt x="275" y="-14" on="1"/>
        <pt x="219" y="-14" on="0"/>
        <pt x="138" y="20" on="0"/>
        <pt x="93" y="72" on="0"/>
        <pt x="67" y="156" on="0"/>
        <pt x="60" y="233" on="0"/>
        <pt x="60" y="339" on="0"/>
        <pt x="67" y="416" on="0"/>
        <pt x="94" y="500" on="0"/>
        <pt x="140" y="552" on="0"/>
        <pt x="223" y="586" on="0"/>
        <pt x="360" y="586" on="0"/>
        <pt x="446" y="550" on="1"/>
        <pt x="446" y="700" on="1"/>
        <pt x="386" y="700" on="1"/>
        <pt x="386" y="750" on="1"/>
        <pt x="516" y="750" on="1"/>
        <pt x="516" y="50" on="1"/>
        <pt x="576" y="50" on="1"/>
        <pt x="576" y="0" on="1"/>
        <pt x="469" y="0" on="1"/>
        <pt x="456" y="60" on="1"/>
        <pt x="372" y="-14" on="0"/>
      </contour>
      <contour>
        <pt x="130" y="167" on="0"/>
        <pt x="194" y="45" on="0"/>
        <pt x="373" y="45" on="0"/>
        <pt x="446" y="112" on="1"/>
        <pt x="446" y="493" on="1"/>
        <pt x="373" y="527" on="0"/>
        <pt x="290" y="527" on="1"/>
        <pt x="193" y="527" on="0"/>
        <pt x="160" y="458" on="1"/>
        <pt x="130" y="396" on="0"/>
      </contour>
    </TTGlyph>
    <TTGlyph name="dagger" xMin="20" yMin="0" xMax="420" yMax="730">
      <contour>
        <pt x="420" y="572" on="1"/>
        <pt x="420" y="496" on="1"/>
        <pt x="344" y="496" on="1"/>
        <pt x="256" y="507" on="1"/>
        <pt x="244" y="0" on="1"/>
        <pt x="196" y="0" on="1"/>
        <pt x="183" y="507" on="1"/>
        <pt x="96" y="496" on="1"/>
        <pt x="20" y="496" on="1"/>
        <pt x="20" y="572" on="1"/>
        <pt x="96" y="572" on="1"/>
        <pt x="182" y="561" on="1"/>
        <pt x="178" y="730" on="1"/>
        <pt x="262" y="730" on="1"/>
        <pt x="258" y="561" on="1"/>
        <pt x="344" y="572" on="1"/>
      </contour>
    </TTGlyph>
    <TTGlyph name="daggerdbl" xMin="20" yMin="0" xMax="420" yMax="730">
      <contour>
        <pt x="20" y="158" on="1"/>
        <pt x="20" y="234" on="1"/>
        <pt x="96" y="234" on="1"/>
        <pt x="188" y="222" on="1"/>
        <pt x="188" y="201" on="1"/>
        <pt x="196" y="365" on="1"/>
        <pt x="188" y="529" on="1"/>
        <pt x="188" y="508" on="1"/>
        <pt x="96" y="496" on="1"/>
        <pt x="20" y="496" on="1"/>
        <pt x="20" y="572" on="1"/>
        <pt x="96" y="572" on="1"/>
        <pt x="186" y="560" on="1"/>
        <pt x="178" y="730" on="1"/>
        <pt x="262" y="730" on="1"/>
        <pt x="253" y="560" on="1"/>
        <pt x="344" y="572" on="1"/>
        <pt x="420" y="572" on="1"/>
        <pt x="420" y="496" on="1"/>
        <pt x="344" y="496" on="1"/>
        <pt x="252" y="508" on="1"/>
        <pt x="252" y="527" on="1"/>
        <pt x="244" y="365" on="1"/>
        <pt x="252" y="203" on="1"/>
        <pt x="252" y="222" on="1"/>
        <pt x="344" y="234" on="1"/>
        <pt x="420" y="234" on="1"/>
        <pt x="420" y="158" on="1"/>
        <pt x="344" y="158" on="1"/>
        <pt x="253" y="170" on="1"/>
        <pt x="262" y="0" on="1"/>
        <pt x="178" y="0" on="1"/>
        <pt x="186" y="170" on="1"/>
        <pt x="96" y="158" on="1"/>
      </contour>
    </TTGlyph>
    <TTGlyph name="degree" xMin="48" yMin="340" xMax="377" yMax="710">
      <contour>
        <pt x="178" y="391" on="0"/>
        <pt x="246" y="391" on="0"/>
        <pt x="290" y="412" on="0"/>
        <pt x="308" y="455" on="0"/>
        <pt x="313" y="493" on="0"/>
        <pt x="313" y="557" on="0"/>
        <pt x="308" y="595" on="0"/>
        <pt x="290" y="638" on="0"/>
        <pt x="246" y="659" on="0"/>
        <pt x="178" y="659" on="0"/>
        <pt x="134" y="638" on="0"/>
        <pt x="116" y="595" on="0"/>
        <pt x="111" y="557" on="0"/>
        <pt x="111" y="493" on="0"/>
        <pt x="116" y="455" on="0"/>
        <pt x="134" y="412" on="0"/>
      </contour>
      <contour>
        <pt x="265" y="340" on="0"/>
        <pt x="159" y="340" on="0"/>
        <pt x="90" y="369" on="0"/>
        <pt x="58" y="427" on="0"/>
        <pt x="48" y="484" on="0"/>
        <pt x="48" y="567" on="0"/>
        <pt x="58" y="624" on="0"/>
        <pt x="90" y="681" on="0"/>
        <pt x="159" y="710" on="0"/>
        <pt x="265" y="710" on="0"/>
        <pt x="335" y="681" on="0"/>
        <pt x="367" y="624" on="0"/>
        <pt x="377" y="567" on="0"/>
        <pt x="377" y="484" on="0"/>
        <pt x="367" y="427" on="0"/>
        <pt x="335" y="369" on="0"/>
      </contour>
    </TTGlyph>
    <TTGlyph name="dieresis" xMin="5" yMin="672" xMax="303" yMax="779">
      <contour>
        <pt x="89" y="690" on="0"/>
        <pt x="68" y="672" on="0"/>
        <pt x="29" y="672" on="0"/>
        <pt x="9" y="690" on="0"/>
        <pt x="5" y="709" on="0"/>
        <pt x="5" y="742" on="0"/>
        <pt x="9" y="761" on="0"/>
        <pt x="29" y="779" on="0"/>
        <pt x="77" y="779" on="0"/>
        <pt x="93" y="751" on="0"/>
        <pt x="93" y="709" on="0"/>
      </contour>
      <contour>
        <pt x="299" y="690" on="0"/>
        <pt x="278" y="672" on="0"/>
        <pt x="239" y="672" on="0"/>
        <pt x="219" y="690" on="0"/>
        <pt x="215" y="709" on="0"/>
        <pt x="215" y="742" on="0"/>
        <pt x="219" y="761" on="0"/>
        <pt x="239" y="779" on="0"/>
        <pt x="287" y="779" on="0"/>
        <pt x="303" y="751" on="0"/>
        <pt x="303" y="709" on="0"/>
      </contour>
    </TTGlyph>
    <TTGlyph name="divide" xMin="94" yMin="91" xMax="486" yMax="535">
      <contour>
        <pt x="94" y="288" on="1"/>
        <pt x="94" y="348" on="1"/>
        <pt x="486" y="348" on="1"/>
        <pt x="486" y="288" on="1"/>
      </contour>
      <contour>
        <pt x="242" y="149" on="1"/>
        <pt x="242" y="167" on="0"/>
        <pt x="246" y="188" on="0"/>
        <pt x="268" y="208" on="0"/>
        <pt x="320" y="208" on="0"/>
        <pt x="338" y="176" on="0"/>
        <pt x="338" y="137" on="0"/>
        <pt x="335" y="120" on="0"/>
        <pt x="330" y="110" on="1"/>
        <pt x="321" y="91" on="0"/>
        <pt x="242" y="91" on="0"/>
      </contour>
      <contour>
        <pt x="242" y="476" on="1"/>
        <pt x="242" y="494" on="0"/>
        <pt x="246" y="515" on="0"/>
        <pt x="268" y="535" on="0"/>
        <pt x="320" y="535" on="0"/>
        <pt x="338" y="503" on="0"/>
        <pt x="338" y="464" on="0"/>
        <pt x="335" y="447" on="0"/>
        <pt x="330" y="438" on="1"/>
        <pt x="321" y="418" on="0"/>
        <pt x="242" y="418" on="0"/>
      </contour>
    </TTGlyph>
    <TTGlyph name="dollar" xMin="73" yMin="-74" xMax="512" yMax="744">
      <contour>
        <pt x="267" y="-74" on="1"/>
        <pt x="267" y="-13" on="1"/>
        <pt x="162" y="-8" on="0"/>
        <pt x="73" y="97" on="0"/>
        <pt x="73" y="195" on="1"/>
        <pt x="145" y="195" on="1"/>
        <pt x="145" y="127" on="0"/>
        <pt x="198" y="55" on="0"/>
        <pt x="267" y="49" on="1"/>
        <pt x="267" y="306" on="1"/>
        <pt x="246" y="309" on="1"/>
        <pt x="159" y="322" on="0"/>
        <pt x="83" y="410" on="0"/>
        <pt x="83" y="581" on="0"/>
        <pt x="167" y="678" on="0"/>
        <pt x="267" y="683" on="1"/>
        <pt x="267" y="744" on="1"/>
        <pt x="317" y="744" on="1"/>
        <pt x="317" y="683" on="1"/>
        <pt x="416" y="676" on="0"/>
        <pt x="502" y="572" on="0"/>
        <pt x="502" y="475" on="1"/>
        <pt x="430" y="475" on="1"/>
        <pt x="430" y="543" on="0"/>
        <pt x="381" y="615" on="0"/>
        <pt x="317" y="621" on="1"/>
        <pt x="317" y="364" on="1"/>
        <pt x="338" y="361" on="1"/>
        <pt x="430" y="347" on="0"/>
        <pt x="512" y="259" on="0"/>
        <pt x="512" y="92" on="0"/>
        <pt x="421" y="-8" on="0"/>
        <pt x="317" y="-13" on="1"/>
        <pt x="317" y="-74" on="1"/>
      </contour>
      <contour>
        <pt x="440" y="181" on="1"/>
        <pt x="440" y="277" on="0"/>
        <pt x="338" y="295" on="1"/>
        <pt x="317" y="298" on="1"/>
        <pt x="317" y="49" on="1"/>
        <pt x="386" y="53" on="0"/>
        <pt x="440" y="118" on="0"/>
      </contour>
      <contour>
        <pt x="155" y="489" on="1"/>
        <pt x="155" y="390" on="0"/>
        <pt x="246" y="375" on="1"/>
        <pt x="267" y="372" on="1"/>
        <pt x="267" y="621" on="1"/>
        <pt x="203" y="615" on="0"/>
        <pt x="155" y="551" on="0"/>
      </contour>
    </TTGlyph>
    <TTGlyph name="dotaccent" xMin="93" yMin="660" xMax="197" yMax="791">
      <contour>
        <pt x="192" y="682" on="0"/>
        <pt x="167" y="660" on="0"/>
        <pt x="127" y="660" on="0"/>
        <pt x="105" y="671" on="0"/>
        <pt x="100" y="682" on="1"/>
        <pt x="93" y="699" on="0"/>
        <pt x="93" y="745" on="0"/>
        <pt x="98" y="769" on="0"/>
        <pt x="122" y="791" on="0"/>
        <pt x="167" y="791" on="0"/>
        <pt x="192" y="769" on="0"/>
        <pt x="197" y="745" on="0"/>
        <pt x="197" y="706" on="0"/>
      </contour>
    </TTGlyph>
    <TTGlyph name="dotlessi" xMin="70" yMin="0" xMax="260" yMax="572">
      <contour>
        <pt x="70" y="522" on="1"/>
        <pt x="70" y="572" on="1"/>
        <pt x="200" y="572" on="1"/>
        <pt x="200" y="50" on="1"/>
        <pt x="260" y="50" on="1"/>
        <pt x="260" y="0" on="1"/>
        <pt x="70" y="0" on="1"/>
        <pt x="70" y="50" on="1"/>
        <pt x="130" y="50" on="1"/>
        <pt x="130" y="522" on="1"/>
      </contour>
    </TTGlyph>
    <TTGlyph name="e" xMin="60" yMin="-14" xMax="528" yMax="586">
      <contour>
        <pt x="159" y="-14" on="0"/>
        <pt x="60" y="129" on="0"/>
        <pt x="60" y="286" on="1"/>
        <pt x="60" y="339" on="0"/>
        <pt x="68" y="416" on="0"/>
        <pt x="96" y="500" on="0"/>
        <pt x="146" y="552" on="0"/>
        <pt x="234" y="586" on="0"/>
        <pt x="356" y="586" on="0"/>
        <pt x="443" y="552" on="0"/>
        <pt x="492" y="500" on="0"/>
        <pt x="520" y="416" on="0"/>
        <pt x="528" y="339" on="0"/>
        <pt x="528" y="286" on="1"/>
        <pt x="528" y="270" on="1"/>
        <pt x="130" y="270" on="1"/>
        <pt x="131" y="148" on="0"/>
        <pt x="198" y="45" on="0"/>
        <pt x="387" y="45" on="0"/>
        <pt x="455" y="114" on="0"/>
        <pt x="461" y="180" on="1"/>
        <pt x="519" y="177" on="1"/>
        <pt x="515" y="134" on="0"/>
        <pt x="495" y="73" on="0"/>
        <pt x="472" y="44" on="1"/>
        <pt x="426" y="-14" on="0"/>
      </contour>
      <contour>
        <pt x="294" y="527" on="1"/>
        <pt x="244" y="527" on="0"/>
        <pt x="177" y="495" on="0"/>
        <pt x="160" y="464" on="1"/>
        <pt x="132" y="412" on="0"/>
        <pt x="130" y="325" on="1"/>
        <pt x="457" y="325" on="1"/>
        <pt x="455" y="415" on="0"/>
        <pt x="428" y="466" on="1"/>
        <pt x="396" y="527" on="0"/>
      </contour>
    </TTGlyph>
    <TTGlyph name="eacute" xMin="60" yMin="-14" xMax="528" yMax="827">
      <contour>
        <pt x="159" y="-14" on="0"/>
        <pt x="60" y="129" on="0"/>
        <pt x="60" y="286" on="1"/>
        <pt x="60" y="339" on="0"/>
        <pt x="68" y="416" on="0"/>
        <pt x="96" y="500" on="0"/>
        <pt x="146" y="552" on="0"/>
        <pt x="234" y="586" on="0"/>
        <pt x="356" y="586" on="0"/>
        <pt x="443" y="552" on="0"/>
        <pt x="492" y="500" on="0"/>
        <pt x="520" y="416" on="0"/>
        <pt x="528" y="339" on="0"/>
        <pt x="528" y="286" on="1"/>
        <pt x="528" y="270" on="1"/>
        <pt x="130" y="270" on="1"/>
        <pt x="131" y="148" on="0"/>
        <pt x="198" y="45" on="0"/>
        <pt x="387" y="45" on="0"/>
        <pt x="455" y="114" on="0"/>
        <pt x="461" y="180" on="1"/>
        <pt x="519" y="177" on="1"/>
        <pt x="515" y="134" on="0"/>
        <pt x="495" y="73" on="0"/>
        <pt x="472" y="44" on="1"/>
        <pt x="426" y="-14" on="0"/>
      </contour>
      <contour>
        <pt x="294" y="527" on="1"/>
        <pt x="244" y="527" on="0"/>
        <pt x="177" y="495" on="0"/>
        <pt x="160" y="464" on="1"/>
        <pt x="132" y="412" on="0"/>
        <pt x="130" y="325" on="1"/>
        <pt x="457" y="325" on="1"/>
        <pt x="455" y="415" on="0"/>
        <pt x="428" y="466" on="1"/>
        <pt x="396" y="527" on="0"/>
      </contour>
      <contour>
        <pt x="264" y="624" on="1"/>
        <pt x="222" y="666" on="1"/>
        <pt x="383" y="827" on="1"/>
        <pt x="436" y="774" on="1"/>
      </contour>
    </TTGlyph>
    <TTGlyph name="ecircumflex" xMin="60" yMin="-14" xMax="528" yMax="821">
      <contour>
        <pt x="159" y="-14" on="0"/>
        <pt x="60" y="129" on="0"/>
        <pt x="60" y="286" on="1"/>
        <pt x="60" y="339" on="0"/>
        <pt x="68" y="416" on="0"/>
        <pt x="96" y="500" on="0"/>
        <pt x="146" y="552" on="0"/>
        <pt x="234" y="586" on="0"/>
        <pt x="356" y="586" on="0"/>
        <pt x="443" y="552" on="0"/>
        <pt x="492" y="500" on="0"/>
        <pt x="520" y="416" on="0"/>
        <pt x="528" y="339" on="0"/>
        <pt x="528" y="286" on="1"/>
        <pt x="528" y="270" on="1"/>
        <pt x="130" y="270" on="1"/>
        <pt x="131" y="148" on="0"/>
        <pt x="198" y="45" on="0"/>
        <pt x="387" y="45" on="0"/>
        <pt x="455" y="114" on="0"/>
        <pt x="461" y="180" on="1"/>
        <pt x="519" y="177" on="1"/>
        <pt x="515" y="134" on="0"/>
        <pt x="495" y="73" on="0"/>
        <pt x="472" y="44" on="1"/>
        <pt x="426" y="-14" on="0"/>
      </contour>
      <contour>
        <pt x="294" y="527" on="1"/>
        <pt x="244" y="527" on="0"/>
        <pt x="177" y="495" on="0"/>
        <pt x="160" y="464" on="1"/>
        <pt x="132" y="412" on="0"/>
        <pt x="130" y="325" on="1"/>
        <pt x="457" y="325" on="1"/>
        <pt x="455" y="415" on="0"/>
        <pt x="428" y="466" on="1"/>
        <pt x="396" y="527" on="0"/>
      </contour>
      <contour>
        <pt x="183" y="624" on="1"/>
        <pt x="141" y="666" on="1"/>
        <pt x="277" y="821" on="1"/>
        <pt x="306" y="821" on="1"/>
        <pt x="442" y="666" on="1"/>
        <pt x="400" y="624" on="1"/>
        <pt x="291" y="734" on="1"/>
      </contour>
    </TTGlyph>
    <TTGlyph name="edieresis" xMin="60" yMin="-14" xMax="528" yMax="779">
      <contour>
        <pt x="159" y="-14" on="0"/>
        <pt x="60" y="129" on="0"/>
        <pt x="60" y="286" on="1"/>
        <pt x="60" y="339" on="0"/>
        <pt x="68" y="416" on="0"/>
        <pt x="96" y="500" on="0"/>
        <pt x="146" y="552" on="0"/>
        <pt x="234" y="586" on="0"/>
        <pt x="356" y="586" on="0"/>
        <pt x="443" y="552" on="0"/>
        <pt x="492" y="500" on="0"/>
        <pt x="520" y="416" on="0"/>
        <pt x="528" y="339" on="0"/>
        <pt x="528" y="286" on="1"/>
        <pt x="528" y="270" on="1"/>
        <pt x="130" y="270" on="1"/>
        <pt x="131" y="148" on="0"/>
        <pt x="198" y="45" on="0"/>
        <pt x="387" y="45" on="0"/>
        <pt x="455" y="114" on="0"/>
        <pt x="461" y="180" on="1"/>
        <pt x="519" y="177" on="1"/>
        <pt x="515" y="134" on="0"/>
        <pt x="495" y="73" on="0"/>
        <pt x="472" y="44" on="1"/>
        <pt x="426" y="-14" on="0"/>
      </contour>
      <contour>
        <pt x="294" y="527" on="1"/>
        <pt x="244" y="527" on="0"/>
        <pt x="177" y="495" on="0"/>
        <pt x="160" y="464" on="1"/>
        <pt x="132" y="412" on="0"/>
        <pt x="130" y="325" on="1"/>
        <pt x="457" y="325" on="1"/>
        <pt x="455" y="415" on="0"/>
        <pt x="428" y="466" on="1"/>
        <pt x="396" y="527" on="0"/>
      </contour>
      <contour>
        <pt x="226" y="690" on="0"/>
        <pt x="205" y="672" on="0"/>
        <pt x="166" y="672" on="0"/>
        <pt x="146" y="690" on="0"/>
        <pt x="142" y="709" on="0"/>
        <pt x="142" y="742" on="0"/>
        <pt x="146" y="761" on="0"/>
        <pt x="166" y="779" on="0"/>
        <pt x="214" y="779" on="0"/>
        <pt x="230" y="751" on="0"/>
        <pt x="230" y="709" on="0"/>
      </contour>
      <contour>
        <pt x="436" y="690" on="0"/>
        <pt x="415" y="672" on="0"/>
        <pt x="376" y="672" on="0"/>
        <pt x="356" y="690" on="0"/>
        <pt x="352" y="709" on="0"/>
        <pt x="352" y="742" on="0"/>
        <pt x="356" y="761" on="0"/>
        <pt x="376" y="779" on="0"/>
        <pt x="424" y="779" on="0"/>
        <pt x="440" y="751" on="0"/>
        <pt x="440" y="709" on="0"/>
      </contour>
    </TTGlyph>
    <TTGlyph name="egrave" xMin="60" yMin="-14" xMax="528" yMax="827">
      <contour>
        <pt x="159" y="-14" on="0"/>
        <pt x="60" y="129" on="0"/>
        <pt x="60" y="286" on="1"/>
        <pt x="60" y="339" on="0"/>
        <pt x="68" y="416" on="0"/>
        <pt x="96" y="500" on="0"/>
        <pt x="146" y="552" on="0"/>
        <pt x="234" y="586" on="0"/>
        <pt x="356" y="586" on="0"/>
        <pt x="443" y="552" on="0"/>
        <pt x="492" y="500" on="0"/>
        <pt x="520" y="416" on="0"/>
        <pt x="528" y="339" on="0"/>
        <pt x="528" y="286" on="1"/>
        <pt x="528" y="270" on="1"/>
        <pt x="130" y="270" on="1"/>
        <pt x="131" y="148" on="0"/>
        <pt x="198" y="45" on="0"/>
        <pt x="387" y="45" on="0"/>
        <pt x="455" y="114" on="0"/>
        <pt x="461" y="180" on="1"/>
        <pt x="519" y="177" on="1"/>
        <pt x="515" y="134" on="0"/>
        <pt x="495" y="73" on="0"/>
        <pt x="472" y="44" on="1"/>
        <pt x="426" y="-14" on="0"/>
      </contour>
      <contour>
        <pt x="294" y="527" on="1"/>
        <pt x="244" y="527" on="0"/>
        <pt x="177" y="495" on="0"/>
        <pt x="160" y="464" on="1"/>
        <pt x="132" y="412" on="0"/>
        <pt x="130" y="325" on="1"/>
        <pt x="457" y="325" on="1"/>
        <pt x="455" y="415" on="0"/>
        <pt x="428" y="466" on="1"/>
        <pt x="396" y="527" on="0"/>
      </contour>
      <contour>
        <pt x="398" y="666" on="1"/>
        <pt x="356" y="624" on="1"/>
        <pt x="184" y="774" on="1"/>
        <pt x="237" y="827" on="1"/>
      </contour>
    </TTGlyph>
    <TTGlyph name="eight" xMin="66" yMin="-14" xMax="514" yMax="684">
      <contour>
        <pt x="75" y="490" on="1"/>
        <pt x="75" y="584" on="0"/>
        <pt x="174" y="684" on="0"/>
        <pt x="406" y="684" on="0"/>
        <pt x="505" y="584" on="0"/>
        <pt x="505" y="490" on="1"/>
        <pt x="505" y="381" on="0"/>
        <pt x="401" y="339" on="1"/>
        <pt x="459" y="319" on="0"/>
        <pt x="514" y="239" on="0"/>
        <pt x="514" y="170" on="1"/>
        <pt x="514" y="-14" on="0"/>
        <pt x="66" y="-14" on="0"/>
        <pt x="66" y="170" on="1"/>
        <pt x="66" y="292" on="0"/>
        <pt x="176" y="334" on="1"/>
        <pt x="75" y="372" on="0"/>
      </contour>
      <contour>
        <pt x="257" y="314" on="1"/>
        <pt x="136" y="293" on="0"/>
        <pt x="136" y="45" on="0"/>
        <pt x="444" y="45" on="0"/>
        <pt x="444" y="170" on="1"/>
        <pt x="444" y="231" on="0"/>
        <pt x="395" y="292" on="0"/>
        <pt x="334" y="302" on="1"/>
      </contour>
      <contour>
        <pt x="435" y="490" on="1"/>
        <pt x="435" y="556" on="0"/>
        <pt x="371" y="625" on="0"/>
        <pt x="209" y="625" on="0"/>
        <pt x="145" y="556" on="0"/>
        <pt x="145" y="433" on="0"/>
        <pt x="194" y="378" on="0"/>
        <pt x="256" y="368" on="1"/>
        <pt x="314" y="358" on="1"/>
        <pt x="435" y="379" on="0"/>
      </contour>
    </TTGlyph>
    <TTGlyph name="ellipsis" xMin="65" yMin="-9" xMax="613" yMax="109">
      <contour>
        <pt x="65" y="50" on="1"/>
        <pt x="65" y="68" on="0"/>
        <pt x="69" y="89" on="0"/>
        <pt x="91" y="109" on="0"/>
        <pt x="143" y="109" on="0"/>
        <pt x="161" y="77" on="0"/>
        <pt x="161" y="38" on="0"/>
        <pt x="158" y="21" on="0"/>
        <pt x="154" y="12" on="1"/>
        <pt x="144" y="-8" on="0"/>
        <pt x="65" y="-8" on="0"/>
      </contour>
      <contour>
        <pt x="291" y="50" on="1"/>
        <pt x="291" y="68" on="0"/>
        <pt x="295" y="89" on="0"/>
        <pt x="317" y="109" on="0"/>
        <pt x="369" y="109" on="0"/>
        <pt x="387" y="77" on="0"/>
        <pt x="387" y="38" on="0"/>
        <pt x="384" y="21" on="0"/>
        <pt x="380" y="12" on="1"/>
        <pt x="370" y="-8" on="0"/>
        <pt x="291" y="-8" on="0"/>
      </contour>
      <contour>
        <pt x="517" y="50" on="1"/>
        <pt x="517" y="68" on="0"/>
        <pt x="521" y="89" on="0"/>
        <pt x="543" y="109" on="0"/>
        <pt x="595" y="109" on="0"/>
        <pt x="613" y="77" on="0"/>
        <pt x="613" y="38" on="0"/>
        <pt x="610" y="21" on="0"/>
        <pt x="606" y="12" on="1"/>
        <pt x="596" y="-8" on="0"/>
        <pt x="517" y="-8" on="0"/>
      </contour>
    </TTGlyph>
    <TTGlyph name="emdash" xMin="70" yMin="288" xMax="843" yMax="348">
      <contour>
        <pt x="70" y="288" on="1"/>
        <pt x="70" y="348" on="1"/>
        <pt x="843" y="348" on="1"/>
        <pt x="843" y="288" on="1"/>
      </contour>
    </TTGlyph>
    <TTGlyph name="endash" xMin="70" yMin="288" xMax="510" yMax="348">
      <contour>
        <pt x="70" y="288" on="1"/>
        <pt x="70" y="348" on="1"/>
        <pt x="510" y="348" on="1"/>
        <pt x="510" y="288" on="1"/>
      </contour>
    </TTGlyph>
    <TTGlyph name="equal" xMin="94" yMin="188" xMax="486" yMax="448">
      <contour>
        <pt x="94" y="388" on="1"/>
        <pt x="94" y="448" on="1"/>
        <pt x="486" y="448" on="1"/>
        <pt x="486" y="388" on="1"/>
      </contour>
      <contour>
        <pt x="94" y="188" on="1"/>
        <pt x="94" y="248" on="1"/>
        <pt x="486" y="248" on="1"/>
        <pt x="486" y="188" on="1"/>
      </contour>
    </TTGlyph>
    <TTGlyph name="eth" xMin="60" yMin="-14" xMax="548" yMax="764">
      <contour>
        <pt x="548" y="246" on="1"/>
        <pt x="548" y="138" on="0"/>
        <pt x="522" y="86" on="1"/>
        <pt x="496" y="37" on="0"/>
        <pt x="448" y="14" on="1"/>
        <pt x="392" y="-14" on="0"/>
        <pt x="304" y="-14" on="1"/>
        <pt x="171" y="-14" on="0"/>
        <pt x="116" y="46" on="1"/>
        <pt x="69" y="96" on="0"/>
        <pt x="62" y="189" on="1"/>
        <pt x="60" y="214" on="0"/>
        <pt x="60" y="278" on="0"/>
        <pt x="64" y="328" on="0"/>
        <pt x="76" y="385" on="0"/>
        <pt x="97" y="426" on="0"/>
        <pt x="134" y="466" on="0"/>
        <pt x="160" y="478" on="1"/>
        <pt x="216" y="506" on="0"/>
        <pt x="409" y="506" on="0"/>
        <pt x="463" y="443" on="1"/>
        <pt x="440" y="541" on="0"/>
        <pt x="384" y="625" on="1"/>
        <pt x="276" y="582" on="1"/>
        <pt x="276" y="637" on="1"/>
        <pt x="352" y="667" on="1"/>
        <pt x="330" y="693" on="0"/>
        <pt x="298" y="723" on="1"/>
        <pt x="333" y="764" on="1"/>
        <pt x="376" y="727" on="0"/>
        <pt x="408" y="690" on="1"/>
        <pt x="526" y="737" on="1"/>
        <pt x="526" y="682" on="1"/>
        <pt x="441" y="648" on="1"/>
        <pt x="547" y="498" on="0"/>
        <pt x="548" y="268" on="1"/>
      </contour>
      <contour>
        <pt x="256" y="45" on="0"/>
        <pt x="352" y="45" on="0"/>
        <pt x="419" y="69" on="0"/>
        <pt x="454" y="104" on="0"/>
        <pt x="474" y="163" on="0"/>
        <pt x="478" y="210" on="0"/>
        <pt x="478" y="282" on="0"/>
        <pt x="474" y="329" on="0"/>
        <pt x="454" y="388" on="0"/>
        <pt x="419" y="423" on="0"/>
        <pt x="352" y="447" on="0"/>
        <pt x="256" y="447" on="0"/>
        <pt x="189" y="423" on="0"/>
        <pt x="154" y="388" on="0"/>
        <pt x="134" y="329" on="0"/>
        <pt x="130" y="282" on="0"/>
        <pt x="130" y="210" on="0"/>
        <pt x="134" y="163" on="0"/>
        <pt x="154" y="104" on="0"/>
        <pt x="189" y="69" on="0"/>
      </contour>
    </TTGlyph>
    <TTGlyph name="exclam" xMin="110" yMin="-8" xMax="206" yMax="730">
      <contour>
        <pt x="137" y="-8" on="0"/>
        <pt x="114" y="12" on="0"/>
        <pt x="110" y="33" on="0"/>
        <pt x="110" y="77" on="0"/>
        <pt x="128" y="109" on="0"/>
        <pt x="189" y="109" on="0"/>
        <pt x="198" y="90" on="1"/>
        <pt x="203" y="80" on="0"/>
        <pt x="206" y="63" on="0"/>
        <pt x="206" y="23" on="0"/>
        <pt x="188" y="-8" on="0"/>
      </contour>
      <contour>
        <pt x="117" y="730" on="1"/>
        <pt x="197" y="730" on="1"/>
        <pt x="197" y="572" on="1"/>
        <pt x="179" y="185" on="1"/>
        <pt x="135" y="185" on="1"/>
        <pt x="117" y="572" on="1"/>
      </contour>
    </TTGlyph>
    <TTGlyph name="exclamdown" xMin="110" yMin="-152" xMax="206" yMax="586">
      <contour>
        <pt x="206" y="528" on="1"/>
        <pt x="206" y="510" on="0"/>
        <pt x="202" y="489" on="0"/>
        <pt x="180" y="469" on="0"/>
        <pt x="128" y="469" on="0"/>
        <pt x="110" y="501" on="0"/>
        <pt x="110" y="540" on="0"/>
        <pt x="113" y="557" on="0"/>
        <pt x="118" y="566" on="1"/>
        <pt x="127" y="586" on="0"/>
        <pt x="206" y="586" on="0"/>
      </contour>
      <contour>
        <pt x="199" y="-152" on="1"/>
        <pt x="119" y="-152" on="1"/>
        <pt x="119" y="6" on="1"/>
        <pt x="137" y="393" on="1"/>
        <pt x="181" y="393" on="1"/>
        <pt x="199" y="6" on="1"/>
      </contour>
    </TTGlyph>
    <TTGlyph name="f" xMin="60" yMin="0" xMax="328" yMax="755">
      <contour>
        <pt x="198" y="611" on="1"/>
        <pt x="198" y="572" on="1"/>
        <pt x="318" y="572" on="1"/>
        <pt x="318" y="522" on="1"/>
        <pt x="198" y="522" on="1"/>
        <pt x="198" y="50" on="1"/>
        <pt x="278" y="50" on="1"/>
        <pt x="278" y="0" on="1"/>
        <pt x="68" y="0" on="1"/>
        <pt x="68" y="50" on="1"/>
        <pt x="128" y="50" on="1"/>
        <pt x="128" y="522" on="1"/>
        <pt x="60" y="522" on="1"/>
        <pt x="60" y="572" on="1"/>
        <pt x="128" y="572" on="1"/>
        <pt x="128" y="606" on="1"/>
        <pt x="128" y="684" on="0"/>
        <pt x="182" y="755" on="0"/>
        <pt x="267" y="755" on="1"/>
        <pt x="328" y="755" on="1"/>
        <pt x="328" y="705" on="1"/>
        <pt x="267" y="700" on="1"/>
        <pt x="225" y="696" on="0"/>
        <pt x="198" y="658" on="0"/>
      </contour>
    </TTGlyph>
    <TTGlyph name="fi" xMin="50" yMin="0" xMax="578" yMax="779">
      <contour>
        <pt x="188" y="611" on="1"/>
        <pt x="188" y="572" on="1"/>
        <pt x="308" y="572" on="1"/>
        <pt x="308" y="522" on="1"/>
        <pt x="188" y="522" on="1"/>
        <pt x="188" y="50" on="1"/>
        <pt x="268" y="50" on="1"/>
        <pt x="268" y="0" on="1"/>
        <pt x="58" y="0" on="1"/>
        <pt x="58" y="50" on="1"/>
        <pt x="118" y="50" on="1"/>
        <pt x="118" y="522" on="1"/>
        <pt x="50" y="522" on="1"/>
        <pt x="50" y="572" on="1"/>
        <pt x="118" y="572" on="1"/>
        <pt x="118" y="606" on="1"/>
        <pt x="118" y="684" on="0"/>
        <pt x="172" y="755" on="0"/>
        <pt x="257" y="755" on="1"/>
        <pt x="318" y="755" on="1"/>
        <pt x="318" y="705" on="1"/>
        <pt x="257" y="700" on="1"/>
        <pt x="215" y="696" on="0"/>
        <pt x="188" y="658" on="0"/>
      </contour>
      <contour>
        <pt x="388" y="522" on="1"/>
        <pt x="388" y="572" on="1"/>
        <pt x="518" y="572" on="1"/>
        <pt x="518" y="50" on="1"/>
        <pt x="578" y="50" on="1"/>
        <pt x="578" y="0" on="1"/>
        <pt x="388" y="0" on="1"/>
        <pt x="388" y="50" on="1"/>
        <pt x="448" y="50" on="1"/>
        <pt x="448" y="522" on="1"/>
      </contour>
      <contour>
        <pt x="524" y="690" on="0"/>
        <pt x="503" y="672" on="0"/>
        <pt x="464" y="672" on="0"/>
        <pt x="444" y="690" on="0"/>
        <pt x="440" y="709" on="0"/>
        <pt x="440" y="742" on="0"/>
        <pt x="444" y="761" on="0"/>
        <pt x="464" y="779" on="0"/>
        <pt x="512" y="779" on="0"/>
        <pt x="528" y="751" on="0"/>
        <pt x="528" y="709" on="0"/>
      </contour>
    </TTGlyph>
    <TTGlyph name="five" xMin="83" yMin="-14" xMax="514" yMax="670">
      <contour>
        <pt x="477" y="670" on="1"/>
        <pt x="477" y="611" on="1"/>
        <pt x="177" y="611" on="1"/>
        <pt x="164" y="400" on="1"/>
        <pt x="207" y="400" on="1"/>
        <pt x="369" y="400" on="0"/>
        <pt x="514" y="309" on="0"/>
        <pt x="514" y="92" on="0"/>
        <pt x="412" y="-14" on="0"/>
        <pt x="179" y="-14" on="0"/>
        <pt x="83" y="92" on="0"/>
        <pt x="83" y="195" on="1"/>
        <pt x="145" y="195" on="1"/>
        <pt x="145" y="121" on="0"/>
        <pt x="209" y="45" on="0"/>
        <pt x="376" y="45" on="0"/>
        <pt x="444" y="120" on="0"/>
        <pt x="444" y="273" on="0"/>
        <pt x="338" y="341" on="0"/>
        <pt x="206" y="341" on="1"/>
        <pt x="97" y="341" on="1"/>
        <pt x="118" y="670" on="1"/>
      </contour>
    </TTGlyph>
    <TTGlyph name="fl" xMin="50" yMin="0" xMax="568" yMax="755">
      <contour>
        <pt x="188" y="611" on="1"/>
        <pt x="188" y="572" on="1"/>
        <pt x="308" y="572" on="1"/>
        <pt x="308" y="522" on="1"/>
        <pt x="188" y="522" on="1"/>
        <pt x="188" y="50" on="1"/>
        <pt x="268" y="50" on="1"/>
        <pt x="268" y="0" on="1"/>
        <pt x="58" y="0" on="1"/>
        <pt x="58" y="50" on="1"/>
        <pt x="118" y="50" on="1"/>
        <pt x="118" y="522" on="1"/>
        <pt x="50" y="522" on="1"/>
        <pt x="50" y="572" on="1"/>
        <pt x="118" y="572" on="1"/>
        <pt x="118" y="606" on="1"/>
        <pt x="118" y="684" on="0"/>
        <pt x="172" y="755" on="0"/>
        <pt x="257" y="755" on="1"/>
        <pt x="318" y="755" on="1"/>
        <pt x="318" y="705" on="1"/>
        <pt x="257" y="700" on="1"/>
        <pt x="215" y="696" on="0"/>
        <pt x="188" y="658" on="0"/>
      </contour>
      <contour>
        <pt x="378" y="700" on="1"/>
        <pt x="378" y="750" on="1"/>
        <pt x="508" y="750" on="1"/>
        <pt x="508" y="50" on="1"/>
        <pt x="568" y="50" on="1"/>
        <pt x="568" y="0" on="1"/>
        <pt x="378" y="0" on="1"/>
        <pt x="378" y="50" on="1"/>
        <pt x="438" y="50" on="1"/>
        <pt x="438" y="700" on="1"/>
      </contour>
    </TTGlyph>
    <TTGlyph name="florin" xMin="106" yMin="-240" xMax="550" yMax="684">
      <contour>
        <pt x="114" y="286" on="1"/>
        <pt x="114" y="346" on="1"/>
        <pt x="230" y="346" on="1"/>
        <pt x="230" y="489" on="1"/>
        <pt x="230" y="585" on="0"/>
        <pt x="314" y="684" on="0"/>
        <pt x="498" y="684" on="0"/>
        <pt x="550" y="632" on="1"/>
        <pt x="513" y="586" on="1"/>
        <pt x="477" y="625" on="0"/>
        <pt x="349" y="625" on="0"/>
        <pt x="305" y="558" on="0"/>
        <pt x="305" y="489" on="1"/>
        <pt x="305" y="346" on="1"/>
        <pt x="461" y="346" on="1"/>
        <pt x="461" y="286" on="1"/>
        <pt x="305" y="286" on="1"/>
        <pt x="305" y="-46" on="1"/>
        <pt x="305" y="-240" on="0"/>
        <pt x="106" y="-240" on="1"/>
        <pt x="116" y="-179" on="1"/>
        <pt x="183" y="-179" on="0"/>
        <pt x="230" y="-115" on="0"/>
        <pt x="230" y="-46" on="1"/>
        <pt x="230" y="286" on="1"/>
      </contour>
    </TTGlyph>
    <TTGlyph name="four" xMin="32" yMin="0" xMax="521" yMax="670">
      <contour>
        <pt x="437" y="0" on="1"/>
        <pt x="366" y="0" on="1"/>
        <pt x="366" y="150" on="1"/>
        <pt x="32" y="150" on="1"/>
        <pt x="32" y="208" on="1"/>
        <pt x="325" y="670" on="1"/>
        <pt x="437" y="670" on="1"/>
        <pt x="437" y="209" on="1"/>
        <pt x="521" y="209" on="1"/>
        <pt x="521" y="150" on="1"/>
        <pt x="437" y="150" on="1"/>
      </contour>
      <contour>
        <pt x="366" y="209" on="1"/>
        <pt x="366" y="611" on="1"/>
        <pt x="111" y="209" on="1"/>
      </contour>
    </TTGlyph>
    <TTGlyph name="fraction" xMin="0" yMin="-66" xMax="267" yMax="735">
      <contour>
        <pt x="0" y="-66" on="1"/>
        <pt x="214" y="735" on="1"/>
        <pt x="267" y="735" on="1"/>
        <pt x="52" y="-66" on="1"/>
      </contour>
    </TTGlyph>
    <TTGlyph name="g" xMin="50" yMin="-241" xMax="540" yMax="632">
      <contour>
        <pt x="288" y="184" on="1"/>
        <pt x="229" y="184" on="0"/>
        <pt x="184" y="200" on="1"/>
        <pt x="136" y="154" on="1"/>
        <pt x="110" y="129" on="0"/>
        <pt x="110" y="96" on="1"/>
        <pt x="110" y="53" on="0"/>
        <pt x="163" y="53" on="1"/>
        <pt x="392" y="53" on="1"/>
        <pt x="463" y="53" on="0"/>
        <pt x="540" y="-15" on="0"/>
        <pt x="540" y="-80" on="1"/>
        <pt x="540" y="-125" on="0"/>
        <pt x="509" y="-188" on="0"/>
        <pt x="467" y="-220" on="0"/>
        <pt x="390" y="-238" on="0"/>
        <pt x="332" y="-241" on="0"/>
        <pt x="226" y="-241" on="0"/>
        <pt x="152" y="-232" on="0"/>
        <pt x="118" y="-218" on="1"/>
        <pt x="50" y="-192" on="0"/>
        <pt x="50" y="-104" on="1"/>
        <pt x="50" y="-39" on="0"/>
        <pt x="108" y="8" on="1"/>
        <pt x="53" y="31" on="0"/>
        <pt x="53" y="91" on="1"/>
        <pt x="53" y="140" on="0"/>
        <pt x="97" y="184" on="1"/>
        <pt x="140" y="225" on="1"/>
        <pt x="88" y="269" on="0"/>
        <pt x="88" y="385" on="1"/>
        <pt x="88" y="503" on="0"/>
        <pt x="141" y="546" on="1"/>
        <pt x="192" y="586" on="0"/>
        <pt x="373" y="586" on="0"/>
        <pt x="423" y="561" on="1"/>
        <pt x="494" y="632" on="1"/>
        <pt x="536" y="590" on="1"/>
        <pt x="469" y="523" on="1"/>
        <pt x="501" y="479" on="0"/>
        <pt x="501" y="385" on="1"/>
        <pt x="501" y="268" on="0"/>
        <pt x="448" y="224" on="1"/>
        <pt x="398" y="184" on="0"/>
      </contour>
      <contour>
        <pt x="156" y="309" on="0"/>
        <pt x="209" y="237" on="0"/>
        <pt x="380" y="237" on="0"/>
        <pt x="433" y="309" on="0"/>
        <pt x="433" y="461" on="0"/>
        <pt x="380" y="533" on="0"/>
        <pt x="209" y="533" on="0"/>
        <pt x="156" y="461" on="0"/>
      </contour>
      <contour>
        <pt x="390" y="-188" on="0"/>
        <pt x="475" y="-151" on="0"/>
        <pt x="475" y="-81" on="1"/>
        <pt x="475" y="0" on="0"/>
        <pt x="372" y="0" on="1"/>
        <pt x="157" y="0" on="1"/>
        <pt x="111" y="-38" on="0"/>
        <pt x="111" y="-100" on="1"/>
        <pt x="111" y="-158" on="0"/>
        <pt x="162" y="-174" on="1"/>
        <pt x="205" y="-188" on="0"/>
      </contour>
    </TTGlyph>
    <TTGlyph name="germandbls" xMin="60" yMin="-14" xMax="606" yMax="755">
      <contour>
        <pt x="190" y="561" on="1"/>
        <pt x="190" y="0" on="1"/>
        <pt x="60" y="0" on="1"/>
        <pt x="60" y="50" on="1"/>
        <pt x="120" y="50" on="1"/>
        <pt x="120" y="561" on="1"/>
        <pt x="120" y="653" on="0"/>
        <pt x="225" y="755" on="0"/>
        <pt x="448" y="755" on="0"/>
        <pt x="549" y="655" on="0"/>
        <pt x="549" y="561" on="1"/>
        <pt x="549" y="510" on="0"/>
        <pt x="501" y="423" on="0"/>
        <pt x="461" y="396" on="1"/>
        <pt x="527" y="384" on="0"/>
        <pt x="606" y="280" on="0"/>
        <pt x="606" y="197" on="1"/>
        <pt x="606" y="-14" on="0"/>
        <pt x="421" y="-14" on="1"/>
        <pt x="320" y="-14" on="0"/>
        <pt x="248" y="82" on="0"/>
        <pt x="248" y="179" on="1"/>
        <pt x="307" y="179" on="1"/>
        <pt x="307" y="110" on="0"/>
        <pt x="352" y="45" on="0"/>
        <pt x="420" y="45" on="1"/>
        <pt x="536" y="45" on="0"/>
        <pt x="536" y="356" on="0"/>
        <pt x="408" y="356" on="1"/>
        <pt x="293" y="356" on="1"/>
        <pt x="293" y="410" on="1"/>
        <pt x="361" y="410" on="1"/>
        <pt x="418" y="410" on="0"/>
        <pt x="479" y="500" on="0"/>
        <pt x="479" y="628" on="0"/>
        <pt x="414" y="696" on="0"/>
        <pt x="332" y="696" on="1"/>
        <pt x="190" y="696" on="0"/>
      </contour>
    </TTGlyph>
    <TTGlyph name="grave" xMin="50" yMin="624" xMax="264" yMax="827">
      <contour>
        <pt x="264" y="666" on="1"/>
        <pt x="222" y="624" on="1"/>
        <pt x="50" y="774" on="1"/>
        <pt x="103" y="827" on="1"/>
      </contour>
    </TTGlyph>
    <TTGlyph name="greater" xMin="89" yMin="111" xMax="491" yMax="523">
      <contour>
        <pt x="491" y="355" on="1"/>
        <pt x="491" y="279" on="1"/>
        <pt x="89" y="111" on="1"/>
        <pt x="89" y="177" on="1"/>
        <pt x="432" y="317" on="1"/>
        <pt x="89" y="457" on="1"/>
        <pt x="89" y="523" on="1"/>
      </contour>
    </TTGlyph>
    <TTGlyph name="greaterequal" xMin="89" yMin="0" xMax="491" yMax="593">
      <contour>
        <pt x="491" y="425" on="1"/>
        <pt x="491" y="349" on="1"/>
        <pt x="89" y="181" on="1"/>
        <pt x="89" y="247" on="1"/>
        <pt x="432" y="387" on="1"/>
        <pt x="89" y="527" on="1"/>
        <pt x="89" y="593" on="1"/>
      </contour>
      <contour>
        <pt x="94" y="0" on="1"/>
        <pt x="94" y="60" on="1"/>
        <pt x="486" y="60" on="1"/>
        <pt x="486" y="0" on="1"/>
      </contour>
    </TTGlyph>
    <TTGlyph name="guillemotleft" xMin="30" yMin="112" xMax="460" yMax="518">
      <contour>
        <pt x="244" y="158" on="1"/>
        <pt x="198" y="112" on="1"/>
        <pt x="30" y="299" on="1"/>
        <pt x="30" y="331" on="1"/>
        <pt x="198" y="518" on="1"/>
        <pt x="244" y="472" on="1"/>
        <pt x="121" y="315" on="1"/>
      </contour>
      <contour>
        <pt x="460" y="158" on="1"/>
        <pt x="413" y="112" on="1"/>
        <pt x="245" y="299" on="1"/>
        <pt x="245" y="331" on="1"/>
        <pt x="413" y="518" on="1"/>
        <pt x="460" y="472" on="1"/>
        <pt x="336" y="315" on="1"/>
      </contour>
    </TTGlyph>
    <TTGlyph name="guillemotright" xMin="60" yMin="112" xMax="490" yMax="518">
      <contour>
        <pt x="276" y="472" on="1"/>
        <pt x="322" y="518" on="1"/>
        <pt x="490" y="331" on="1"/>
        <pt x="490" y="299" on="1"/>
        <pt x="322" y="112" on="1"/>
        <pt x="276" y="158" on="1"/>
        <pt x="399" y="315" on="1"/>
      </contour>
      <contour>
        <pt x="60" y="472" on="1"/>
        <pt x="107" y="518" on="1"/>
        <pt x="275" y="331" on="1"/>
        <pt x="275" y="299" on="1"/>
        <pt x="107" y="112" on="1"/>
        <pt x="60" y="158" on="1"/>
        <pt x="184" y="315" on="1"/>
      </contour>
    </TTGlyph>
    <TTGlyph name="guilsinglleft" xMin="30" yMin="112" xMax="245" yMax="518">
      <contour>
        <pt x="245" y="158" on="1"/>
        <pt x="198" y="112" on="1"/>
        <pt x="30" y="299" on="1"/>
        <pt x="30" y="331" on="1"/>
        <pt x="198" y="518" on="1"/>
        <pt x="245" y="472" on="1"/>
        <pt x="121" y="315" on="1"/>
      </contour>
    </TTGlyph>
    <TTGlyph name="guilsinglright" xMin="60" yMin="112" xMax="275" yMax="518">
      <contour>
        <pt x="60" y="472" on="1"/>
        <pt x="107" y="518" on="1"/>
        <pt x="275" y="331" on="1"/>
        <pt x="275" y="299" on="1"/>
        <pt x="107" y="112" on="1"/>
        <pt x="60" y="158" on="1"/>
        <pt x="184" y="315" on="1"/>
      </contour>
    </TTGlyph>
    <TTGlyph name="h" xMin="60" yMin="0" xMax="621" yMax="750">
      <contour>
        <pt x="60" y="700" on="1"/>
        <pt x="60" y="750" on="1"/>
        <pt x="190" y="750" on="1"/>
        <pt x="190" y="513" on="1"/>
        <pt x="290" y="586" on="0"/>
        <pt x="484" y="586" on="0"/>
        <pt x="561" y="499" on="0"/>
        <pt x="561" y="407" on="1"/>
        <pt x="561" y="50" on="1"/>
        <pt x="621" y="50" on="1"/>
        <pt x="621" y="0" on="1"/>
        <pt x="431" y="0" on="1"/>
        <pt x="431" y="50" on="1"/>
        <pt x="491" y="50" on="1"/>
        <pt x="491" y="408" on="1"/>
        <pt x="491" y="471" on="0"/>
        <pt x="442" y="527" on="0"/>
        <pt x="385" y="527" on="1"/>
        <pt x="283" y="527" on="0"/>
        <pt x="190" y="453" on="1"/>
        <pt x="190" y="50" on="1"/>
        <pt x="250" y="50" on="1"/>
        <pt x="250" y="0" on="1"/>
        <pt x="60" y="0" on="1"/>
        <pt x="60" y="50" on="1"/>
        <pt x="120" y="50" on="1"/>
        <pt x="120" y="700" on="1"/>
      </contour>
    </TTGlyph>
    <TTGlyph name="hungarumlaut" xMin="50" yMin="624" xMax="497" yMax="827">
      <contour>
        <pt x="92" y="624" on="1"/>
        <pt x="50" y="666" on="1"/>
        <pt x="211" y="827" on="1"/>
        <pt x="264" y="774" on="1"/>
      </contour>
      <contour>
        <pt x="325" y="624" on="1"/>
        <pt x="283" y="666" on="1"/>
        <pt x="444" y="827" on="1"/>
        <pt x="497" y="774" on="1"/>
      </contour>
    </TTGlyph>
    <TTGlyph name="hyphen" xMin="70" yMin="288" xMax="422" yMax="348">
      <contour>
        <pt x="70" y="288" on="1"/>
        <pt x="70" y="348" on="1"/>
        <pt x="422" y="348" on="1"/>
        <pt x="422" y="288" on="1"/>
      </contour>
    </TTGlyph>
    <TTGlyph name="i" xMin="70" yMin="0" xMax="260" yMax="779">
      <contour>
        <pt x="70" y="522" on="1"/>
        <pt x="70" y="572" on="1"/>
        <pt x="200" y="572" on="1"/>
        <pt x="200" y="50" on="1"/>
        <pt x="260" y="50" on="1"/>
        <pt x="260" y="0" on="1"/>
        <pt x="70" y="0" on="1"/>
        <pt x="70" y="50" on="1"/>
        <pt x="130" y="50" on="1"/>
        <pt x="130" y="522" on="1"/>
      </contour>
      <contour>
        <pt x="206" y="690" on="0"/>
        <pt x="185" y="672" on="0"/>
        <pt x="146" y="672" on="0"/>
        <pt x="126" y="690" on="0"/>
        <pt x="122" y="709" on="0"/>
        <pt x="122" y="742" on="0"/>
        <pt x="126" y="761" on="0"/>
        <pt x="146" y="779" on="0"/>
        <pt x="194" y="779" on="0"/>
        <pt x="210" y="751" on="0"/>
        <pt x="210" y="709" on="0"/>
      </contour>
    </TTGlyph>
    <TTGlyph name="iacute" xMin="70" yMin="0" xMax="287" yMax="827">
      <contour>
        <pt x="70" y="522" on="1"/>
        <pt x="70" y="572" on="1"/>
        <pt x="200" y="572" on="1"/>
        <pt x="200" y="50" on="1"/>
        <pt x="260" y="50" on="1"/>
        <pt x="260" y="0" on="1"/>
        <pt x="70" y="0" on="1"/>
        <pt x="70" y="50" on="1"/>
        <pt x="130" y="50" on="1"/>
        <pt x="130" y="522" on="1"/>
      </contour>
      <contour>
        <pt x="115" y="624" on="1"/>
        <pt x="73" y="666" on="1"/>
        <pt x="234" y="827" on="1"/>
        <pt x="287" y="774" on="1"/>
      </contour>
    </TTGlyph>
    <TTGlyph name="icircumflex" xMin="5" yMin="0" xMax="306" yMax="821">
      <contour>
        <pt x="70" y="522" on="1"/>
        <pt x="70" y="572" on="1"/>
        <pt x="200" y="572" on="1"/>
        <pt x="200" y="50" on="1"/>
        <pt x="260" y="50" on="1"/>
        <pt x="260" y="0" on="1"/>
        <pt x="70" y="0" on="1"/>
        <pt x="70" y="50" on="1"/>
        <pt x="130" y="50" on="1"/>
        <pt x="130" y="522" on="1"/>
      </contour>
      <contour>
        <pt x="47" y="624" on="1"/>
        <pt x="5" y="666" on="1"/>
        <pt x="141" y="821" on="1"/>
        <pt x="170" y="821" on="1"/>
        <pt x="306" y="666" on="1"/>
        <pt x="264" y="624" on="1"/>
        <pt x="155" y="734" on="1"/>
      </contour>
    </TTGlyph>
    <TTGlyph name="idieresis" xMin="6" yMin="0" xMax="304" yMax="779">
      <contour>
        <pt x="70" y="522" on="1"/>
        <pt x="70" y="572" on="1"/>
        <pt x="200" y="572" on="1"/>
        <pt x="200" y="50" on="1"/>
        <pt x="260" y="50" on="1"/>
        <pt x="260" y="0" on="1"/>
        <pt x="70" y="0" on="1"/>
        <pt x="70" y="50" on="1"/>
        <pt x="130" y="50" on="1"/>
        <pt x="130" y="522" on="1"/>
      </contour>
      <contour>
        <pt x="300" y="690" on="0"/>
        <pt x="279" y="672" on="0"/>
        <pt x="240" y="672" on="0"/>
        <pt x="220" y="690" on="0"/>
        <pt x="216" y="709" on="0"/>
        <pt x="216" y="742" on="0"/>
        <pt x="220" y="761" on="0"/>
        <pt x="240" y="779" on="0"/>
        <pt x="288" y="779" on="0"/>
        <pt x="304" y="751" on="0"/>
        <pt x="304" y="709" on="0"/>
      </contour>
      <contour>
        <pt x="90" y="690" on="0"/>
        <pt x="69" y="672" on="0"/>
        <pt x="30" y="672" on="0"/>
        <pt x="10" y="690" on="0"/>
        <pt x="6" y="709" on="0"/>
        <pt x="6" y="742" on="0"/>
        <pt x="10" y="761" on="0"/>
        <pt x="30" y="779" on="0"/>
        <pt x="78" y="779" on="0"/>
        <pt x="94" y="751" on="0"/>
        <pt x="94" y="709" on="0"/>
      </contour>
    </TTGlyph>
    <TTGlyph name="igrave" xMin="48" yMin="0" xMax="262" yMax="827">
      <contour>
        <pt x="70" y="522" on="1"/>
        <pt x="70" y="572" on="1"/>
        <pt x="200" y="572" on="1"/>
        <pt x="200" y="50" on="1"/>
        <pt x="260" y="50" on="1"/>
        <pt x="260" y="0" on="1"/>
        <pt x="70" y="0" on="1"/>
        <pt x="70" y="50" on="1"/>
        <pt x="130" y="50" on="1"/>
        <pt x="130" y="522" on="1"/>
      </contour>
      <contour>
        <pt x="262" y="666" on="1"/>
        <pt x="220" y="624" on="1"/>
        <pt x="48" y="774" on="1"/>
        <pt x="101" y="827" on="1"/>
      </contour>
    </TTGlyph>
    <TTGlyph name="infinity" xMin="40" yMin="151" xMax="597" yMax="486">
      <contour>
        <pt x="442" y="486" on="1"/>
        <pt x="519" y="486" on="0"/>
        <pt x="597" y="413" on="0"/>
        <pt x="597" y="224" on="0"/>
        <pt x="519" y="151" on="0"/>
        <pt x="354" y="151" on="0"/>
        <pt x="321" y="221" on="1"/>
        <pt x="290" y="151" on="0"/>
        <pt x="195" y="151" on="1"/>
        <pt x="118" y="151" on="0"/>
        <pt x="40" y="224" on="0"/>
        <pt x="40" y="413" on="0"/>
        <pt x="118" y="486" on="0"/>
        <pt x="283" y="486" on="0"/>
        <pt x="316" y="415" on="1"/>
        <pt x="347" y="486" on="0"/>
      </contour>
      <contour>
        <pt x="440" y="211" on="1"/>
        <pt x="490" y="211" on="0"/>
        <pt x="541" y="258" on="0"/>
        <pt x="541" y="379" on="0"/>
        <pt x="490" y="426" on="0"/>
        <pt x="396" y="426" on="0"/>
        <pt x="354" y="389" on="0"/>
        <pt x="347" y="342" on="1"/>
        <pt x="340" y="296" on="1"/>
        <pt x="356" y="211" on="0"/>
      </contour>
      <contour>
        <pt x="197" y="426" on="1"/>
        <pt x="147" y="426" on="0"/>
        <pt x="96" y="379" on="0"/>
        <pt x="96" y="258" on="0"/>
        <pt x="147" y="211" on="0"/>
        <pt x="240" y="211" on="0"/>
        <pt x="281" y="245" on="0"/>
        <pt x="288" y="288" on="1"/>
        <pt x="297" y="341" on="1"/>
        <pt x="279" y="426" on="0"/>
      </contour>
    </TTGlyph>
    <TTGlyph name="integral" xMin="0" yMin="-241" xMax="451" yMax="684">
      <contour>
        <pt x="263" y="-46" on="1"/>
        <pt x="263" y="-142" on="0"/>
        <pt x="179" y="-241" on="0"/>
        <pt x="84" y="-241" on="1"/>
        <pt x="34" y="-241" on="0"/>
        <pt x="0" y="-227" on="1"/>
        <pt x="25" y="-172" on="1"/>
        <pt x="53" y="-182" on="0"/>
        <pt x="84" y="-182" on="1"/>
        <pt x="144" y="-182" on="0"/>
        <pt x="188" y="-115" on="0"/>
        <pt x="188" y="-46" on="1"/>
        <pt x="188" y="489" on="1"/>
        <pt x="188" y="585" on="0"/>
        <pt x="272" y="684" on="0"/>
        <pt x="367" y="684" on="1"/>
        <pt x="417" y="684" on="0"/>
        <pt x="451" y="670" on="1"/>
        <pt x="426" y="615" on="1"/>
        <pt x="398" y="625" on="0"/>
        <pt x="367" y="625" on="1"/>
        <pt x="307" y="625" on="0"/>
        <pt x="263" y="558" on="0"/>
        <pt x="263" y="489" on="1"/>
      </contour>
    </TTGlyph>
    <TTGlyph name="j" xMin="-10" yMin="-227" xMax="210" yMax="779">
      <contour>
        <pt x="60" y="522" on="1"/>
        <pt x="60" y="572" on="1"/>
        <pt x="190" y="572" on="1"/>
        <pt x="190" y="-78" on="1"/>
        <pt x="190" y="-156" on="0"/>
        <pt x="136" y="-227" on="0"/>
        <pt x="51" y="-227" on="1"/>
        <pt x="-10" y="-227" on="1"/>
        <pt x="-10" y="-172" on="1"/>
        <pt x="51" y="-167" on="1"/>
        <pt x="93" y="-163" on="0"/>
        <pt x="120" y="-125" on="0"/>
        <pt x="120" y="-78" on="1"/>
        <pt x="120" y="522" on="1"/>
      </contour>
      <contour>
        <pt x="206" y="690" on="0"/>
        <pt x="185" y="672" on="0"/>
        <pt x="146" y="672" on="0"/>
        <pt x="126" y="690" on="0"/>
        <pt x="122" y="709" on="0"/>
        <pt x="122" y="742" on="0"/>
        <pt x="126" y="761" on="0"/>
        <pt x="146" y="779" on="0"/>
        <pt x="194" y="779" on="0"/>
        <pt x="210" y="751" on="0"/>
        <pt x="210" y="709" on="0"/>
      </contour>
    </TTGlyph>
    <TTGlyph name="k" xMin="60" yMin="0" xMax="566" yMax="750">
      <contour>
        <pt x="60" y="700" on="1"/>
        <pt x="60" y="750" on="1"/>
        <pt x="190" y="750" on="1"/>
        <pt x="190" y="336" on="1"/>
        <pt x="280" y="336" on="1"/>
        <pt x="410" y="522" on="1"/>
        <pt x="358" y="522" on="1"/>
        <pt x="358" y="572" on="1"/>
        <pt x="548" y="572" on="1"/>
        <pt x="548" y="522" on="1"/>
        <pt x="488" y="522" on="1"/>
        <pt x="333" y="303" on="1"/>
        <pt x="507" y="50" on="1"/>
        <pt x="566" y="50" on="1"/>
        <pt x="566" y="0" on="1"/>
        <pt x="376" y="0" on="1"/>
        <pt x="376" y="50" on="1"/>
        <pt x="429" y="50" on="1"/>
        <pt x="270" y="282" on="1"/>
        <pt x="190" y="282" on="1"/>
        <pt x="190" y="50" on="1"/>
        <pt x="250" y="50" on="1"/>
        <pt x="250" y="0" on="1"/>
        <pt x="60" y="0" on="1"/>
        <pt x="60" y="50" on="1"/>
        <pt x="120" y="50" on="1"/>
        <pt x="120" y="700" on="1"/>
      </contour>
    </TTGlyph>
    <TTGlyph name="l" xMin="60" yMin="0" xMax="250" yMax="750">
      <contour>
        <pt x="60" y="700" on="1"/>
        <pt x="60" y="750" on="1"/>
        <pt x="190" y="750" on="1"/>
        <pt x="190" y="50" on="1"/>
        <pt x="250" y="50" on="1"/>
        <pt x="250" y="0" on="1"/>
        <pt x="60" y="0" on="1"/>
        <pt x="60" y="50" on="1"/>
        <pt x="120" y="50" on="1"/>
        <pt x="120" y="700" on="1"/>
      </contour>
    </TTGlyph>
    <TTGlyph name="less" xMin="89" yMin="111" xMax="491" yMax="523">
      <contour>
        <pt x="89" y="279" on="1"/>
        <pt x="89" y="355" on="1"/>
        <pt x="491" y="523" on="1"/>
        <pt x="491" y="457" on="1"/>
        <pt x="148" y="317" on="1"/>
        <pt x="491" y="177" on="1"/>
        <pt x="491" y="111" on="1"/>
      </contour>
    </TTGlyph>
    <TTGlyph name="lessequal" xMin="89" yMin="0" xMax="491" yMax="593">
      <contour>
        <pt x="89" y="349" on="1"/>
        <pt x="89" y="425" on="1"/>
        <pt x="491" y="593" on="1"/>
        <pt x="491" y="527" on="1"/>
        <pt x="148" y="387" on="1"/>
        <pt x="491" y="247" on="1"/>
        <pt x="491" y="181" on="1"/>
      </contour>
      <contour>
        <pt x="94" y="0" on="1"/>
        <pt x="94" y="60" on="1"/>
        <pt x="486" y="60" on="1"/>
        <pt x="486" y="0" on="1"/>
      </contour>
    </TTGlyph>
    <TTGlyph name="logicalnot" xMin="94" yMin="150" xMax="486" yMax="348">
      <contour>
        <pt x="94" y="288" on="1"/>
        <pt x="94" y="348" on="1"/>
        <pt x="486" y="348" on="1"/>
        <pt x="486" y="150" on="1"/>
        <pt x="430" y="150" on="1"/>
        <pt x="430" y="288" on="1"/>
      </contour>
    </TTGlyph>
    <TTGlyph name="lozenge" xMin="50" yMin="-100" xMax="522" yMax="770">
      <contour>
        <pt x="248" y="770" on="1"/>
        <pt x="324" y="770" on="1"/>
        <pt x="522" y="335" on="1"/>
        <pt x="324" y="-100" on="1"/>
        <pt x="248" y="-100" on="1"/>
        <pt x="50" y="335" on="1"/>
      </contour>
      <contour>
        <pt x="286" y="-35" on="1"/>
        <pt x="451" y="335" on="1"/>
        <pt x="286" y="705" on="1"/>
        <pt x="121" y="335" on="1"/>
      </contour>
    </TTGlyph>
    <TTGlyph name="lslash" xMin="30" yMin="0" xMax="280" yMax="750">
      <contour>
        <pt x="60" y="700" on="1"/>
        <pt x="60" y="750" on="1"/>
        <pt x="190" y="750" on="1"/>
        <pt x="190" y="421" on="1"/>
        <pt x="280" y="457" on="1"/>
        <pt x="280" y="402" on="1"/>
        <pt x="190" y="366" on="1"/>
        <pt x="190" y="50" on="1"/>
        <pt x="250" y="50" on="1"/>
        <pt x="250" y="0" on="1"/>
        <pt x="60" y="0" on="1"/>
        <pt x="60" y="50" on="1"/>
        <pt x="120" y="50" on="1"/>
        <pt x="120" y="338" on="1"/>
        <pt x="30" y="302" on="1"/>
        <pt x="30" y="357" on="1"/>
        <pt x="120" y="393" on="1"/>
        <pt x="120" y="700" on="1"/>
      </contour>
    </TTGlyph>
    <TTGlyph name="m" xMin="70" yMin="0" xMax="962" yMax="586">
      <contour>
        <pt x="421" y="0" on="1"/>
        <pt x="421" y="50" on="1"/>
        <pt x="481" y="50" on="1"/>
        <pt x="481" y="408" on="1"/>
        <pt x="481" y="527" on="0"/>
        <pt x="374" y="527" on="1"/>
        <pt x="278" y="527" on="0"/>
        <pt x="200" y="455" on="1"/>
        <pt x="200" y="50" on="1"/>
        <pt x="260" y="50" on="1"/>
        <pt x="260" y="0" on="1"/>
        <pt x="70" y="0" on="1"/>
        <pt x="70" y="50" on="1"/>
        <pt x="130" y="50" on="1"/>
        <pt x="130" y="522" on="1"/>
        <pt x="70" y="522" on="1"/>
        <pt x="70" y="572" on="1"/>
        <pt x="177" y="572" on="1"/>
        <pt x="193" y="510" on="1"/>
        <pt x="277" y="586" on="0"/>
        <pt x="497" y="586" on="0"/>
        <pt x="534" y="503" on="1"/>
        <pt x="569" y="538" on="0"/>
        <pt x="678" y="586" on="0"/>
        <pt x="734" y="586" on="1"/>
        <pt x="902" y="586" on="0"/>
        <pt x="902" y="408" on="1"/>
        <pt x="902" y="50" on="1"/>
        <pt x="962" y="50" on="1"/>
        <pt x="962" y="0" on="1"/>
        <pt x="772" y="0" on="1"/>
        <pt x="772" y="50" on="1"/>
        <pt x="832" y="50" on="1"/>
        <pt x="832" y="408" on="1"/>
        <pt x="832" y="527" on="0"/>
        <pt x="725" y="527" on="1"/>
        <pt x="628" y="527" on="0"/>
        <pt x="548" y="453" on="1"/>
        <pt x="551" y="432" on="0"/>
        <pt x="551" y="408" on="1"/>
        <pt x="551" y="50" on="1"/>
        <pt x="611" y="50" on="1"/>
        <pt x="611" y="0" on="1"/>
      </contour>
    </TTGlyph>
    <TTGlyph name="macron" xMin="50" yMin="694" xMax="304" yMax="759">
      <contour>
        <pt x="50" y="694" on="1"/>
        <pt x="50" y="759" on="1"/>
        <pt x="304" y="759" on="1"/>
        <pt x="304" y="694" on="1"/>
      </contour>
    </TTGlyph>
    <TTGlyph name="minus" xMin="94" yMin="288" xMax="486" yMax="348">
      <contour>
        <pt x="94" y="288" on="1"/>
        <pt x="94" y="348" on="1"/>
        <pt x="486" y="348" on="1"/>
        <pt x="486" y="288" on="1"/>
      </contour>
    </TTGlyph>
    <TTGlyph name="mu" xMin="85" yMin="-227" xMax="541" yMax="572">
      <contour>
        <pt x="155" y="572" on="1"/>
        <pt x="155" y="315" on="1"/>
        <pt x="155" y="200" on="0"/>
        <pt x="178" y="109" on="0"/>
        <pt x="212" y="71" on="0"/>
        <pt x="270" y="48" on="0"/>
        <pt x="354" y="48" on="0"/>
        <pt x="412" y="71" on="0"/>
        <pt x="447" y="109" on="0"/>
        <pt x="456" y="144" on="1"/>
        <pt x="471" y="204" on="0"/>
        <pt x="471" y="315" on="1"/>
        <pt x="471" y="572" on="1"/>
        <pt x="541" y="572" on="1"/>
        <pt x="541" y="325" on="1"/>
        <pt x="541" y="158" on="0"/>
        <pt x="517" y="100" on="1"/>
        <pt x="492" y="38" on="0"/>
        <pt x="450" y="15" on="1"/>
        <pt x="396" y="-14" on="0"/>
        <pt x="240" y="-14" on="0"/>
        <pt x="153" y="19" on="0"/>
        <pt x="128" y="74" on="1"/>
        <pt x="122" y="71" on="1"/>
        <pt x="146" y="0" on="1"/>
        <pt x="146" y="-227" on="1"/>
        <pt x="85" y="-227" on="1"/>
        <pt x="85" y="572" on="1"/>
      </contour>
    </TTGlyph>
    <TTGlyph name="multiply" xMin="113" yMin="141" xMax="467" yMax="495">
      <contour>
        <pt x="155" y="141" on="1"/>
        <pt x="113" y="183" on="1"/>
        <pt x="248" y="318" on="1"/>
        <pt x="113" y="453" on="1"/>
        <pt x="155" y="495" on="1"/>
        <pt x="290" y="360" on="1"/>
        <pt x="425" y="495" on="1"/>
        <pt x="467" y="453" on="1"/>
        <pt x="332" y="318" on="1"/>
        <pt x="467" y="183" on="1"/>
        <pt x="425" y="141" on="1"/>
        <pt x="290" y="276" on="1"/>
      </contour>
    </TTGlyph>
    <TTGlyph name="n" xMin="70" yMin="0" xMax="631" yMax="586">
      <contour>
        <pt x="70" y="522" on="1"/>
        <pt x="70" y="572" on="1"/>
        <pt x="177" y="572" on="1"/>
        <pt x="194" y="508" on="1"/>
        <pt x="295" y="586" on="0"/>
        <pt x="406" y="586" on="1"/>
        <pt x="494" y="586" on="0"/>
        <pt x="571" y="499" on="0"/>
        <pt x="571" y="407" on="1"/>
        <pt x="571" y="50" on="1"/>
        <pt x="631" y="50" on="1"/>
        <pt x="631" y="0" on="1"/>
        <pt x="441" y="0" on="1"/>
        <pt x="441" y="50" on="1"/>
        <pt x="501" y="50" on="1"/>
        <pt x="501" y="408" on="1"/>
        <pt x="501" y="471" on="0"/>
        <pt x="452" y="527" on="0"/>
        <pt x="395" y="527" on="1"/>
        <pt x="293" y="527" on="0"/>
        <pt x="200" y="453" on="1"/>
        <pt x="200" y="50" on="1"/>
        <pt x="260" y="50" on="1"/>
        <pt x="260" y="0" on="1"/>
        <pt x="70" y="0" on="1"/>
        <pt x="70" y="50" on="1"/>
        <pt x="130" y="50" on="1"/>
        <pt x="130" y="522" on="1"/>
      </contour>
    </TTGlyph>
    <TTGlyph name="nine" xMin="63" yMin="-14" xMax="513" yMax="684">
      <contour>
        <pt x="291" y="684" on="1"/>
        <pt x="361" y="684" on="0"/>
        <pt x="449" y="646" on="0"/>
        <pt x="497" y="556" on="0"/>
        <pt x="513" y="439" on="0"/>
        <pt x="513" y="270" on="0"/>
        <pt x="504" y="170" on="0"/>
        <pt x="477" y="75" on="0"/>
        <pt x="452" y="47" on="1"/>
        <pt x="399" y="-14" on="0"/>
        <pt x="172" y="-14" on="0"/>
        <pt x="74" y="89" on="0"/>
        <pt x="73" y="188" on="1"/>
        <pt x="135" y="188" on="1"/>
        <pt x="135" y="117" on="0"/>
        <pt x="205" y="45" on="0"/>
        <pt x="372" y="45" on="0"/>
        <pt x="439" y="151" on="0"/>
        <pt x="442" y="301" on="1"/>
        <pt x="364" y="278" on="0"/>
        <pt x="288" y="278" on="1"/>
        <pt x="63" y="278" on="0"/>
        <pt x="63" y="473" on="1"/>
        <pt x="65" y="575" on="0"/>
        <pt x="172" y="684" on="0"/>
      </contour>
      <contour>
        <pt x="133" y="414" on="0"/>
        <pt x="208" y="335" on="0"/>
        <pt x="367" y="335" on="0"/>
        <pt x="443" y="355" on="1"/>
        <pt x="442" y="518" on="0"/>
        <pt x="382" y="625" on="0"/>
        <pt x="206" y="625" on="0"/>
        <pt x="133" y="548" on="0"/>
      </contour>
    </TTGlyph>
    <TTGlyph name="notequal" xMin="84" yMin="-66" xMax="476" yMax="735">
      <contour>
        <pt x="84" y="388" on="1"/>
        <pt x="84" y="448" on="1"/>
        <pt x="294" y="448" on="1"/>
        <pt x="371" y="735" on="1"/>
        <pt x="424" y="735" on="1"/>
        <pt x="347" y="448" on="1"/>
        <pt x="476" y="448" on="1"/>
        <pt x="476" y="388" on="1"/>
        <pt x="331" y="388" on="1"/>
        <pt x="293" y="248" on="1"/>
        <pt x="476" y="248" on="1"/>
        <pt x="476" y="188" on="1"/>
        <pt x="277" y="188" on="1"/>
        <pt x="209" y="-66" on="1"/>
        <pt x="157" y="-66" on="1"/>
        <pt x="225" y="188" on="1"/>
        <pt x="84" y="188" on="1"/>
        <pt x="84" y="248" on="1"/>
        <pt x="241" y="248" on="1"/>
        <pt x="278" y="388" on="1"/>
      </contour>
    </TTGlyph>
    <TTGlyph name="ntilde" xMin="40" yMin="0" xMax="601" yMax="786">
      <contour>
        <pt x="40" y="522" on="1"/>
        <pt x="40" y="572" on="1"/>
        <pt x="147" y="572" on="1"/>
        <pt x="164" y="508" on="1"/>
        <pt x="265" y="586" on="0"/>
        <pt x="376" y="586" on="1"/>
        <pt x="464" y="586" on="0"/>
        <pt x="541" y="499" on="0"/>
        <pt x="541" y="407" on="1"/>
        <pt x="541" y="50" on="1"/>
        <pt x="601" y="50" on="1"/>
        <pt x="601" y="0" on="1"/>
        <pt x="411" y="0" on="1"/>
        <pt x="411" y="50" on="1"/>
        <pt x="471" y="50" on="1"/>
        <pt x="471" y="408" on="1"/>
        <pt x="471" y="471" on="0"/>
        <pt x="422" y="527" on="0"/>
        <pt x="365" y="527" on="1"/>
        <pt x="263" y="527" on="0"/>
        <pt x="170" y="453" on="1"/>
        <pt x="170" y="50" on="1"/>
        <pt x="230" y="50" on="1"/>
        <pt x="230" y="0" on="1"/>
        <pt x="40" y="0" on="1"/>
        <pt x="40" y="50" on="1"/>
        <pt x="100" y="50" on="1"/>
        <pt x="100" y="522" on="1"/>
      </contour>
      <contour>
        <pt x="402" y="677" on="1"/>
        <pt x="376" y="677" on="0"/>
        <pt x="278" y="713" on="0"/>
        <pt x="247" y="713" on="0"/>
        <pt x="227" y="693" on="0"/>
        <pt x="219" y="669" on="1"/>
        <pt x="168" y="685" on="1"/>
        <pt x="195" y="778" on="0"/>
        <pt x="256" y="778" on="1"/>
        <pt x="282" y="778" on="0"/>
        <pt x="380" y="742" on="0"/>
        <pt x="412" y="742" on="0"/>
        <pt x="432" y="762" on="0"/>
        <pt x="440" y="786" on="1"/>
        <pt x="490" y="770" on="1"/>
        <pt x="463" y="677" on="0"/>
      </contour>
    </TTGlyph>
</ttFont>
